<?xml version="1.0" encoding="utf-8"?>
<!-- Generator: Adobe Illustrator 23.0.0, SVG Export Plug-In . SVG Version: 6.00 Build 0)  -->
<svg version="1.1" id="Layer_1" xmlns="http://www.w3.org/2000/svg" xmlns:xlink="http://www.w3.org/1999/xlink" x="0px" y="0px"
	 width="34px" height="34px" viewBox="0 0 34 34" style="enable-background:new 0 0 34 34;" xml:space="preserve">
<style type="text/css">
	.st0{fill-rule:evenodd;clip-rule:evenodd;fill:#FFBC00;}
	.st1{fill-rule:evenodd;clip-rule:evenodd;fill:#FFFFFF;}
</style>
<path class="st0" d="M17,34c9.4,0,17-7.6,17-17c0-9.4-7.6-17-17-17C7.6,0,0,7.6,0,17C0,26.4,7.6,34,17,34z"/>
<path class="st1" d="M21.6,16c-0.1-0.1-0.1-0.1-0.2-0.2c0,0-0.1-0.1-0.1-0.1c-0.7-0.7-1.5-1.5-2.2-2.2c-0.3-0.3-0.5-0.5-0.8-0.8
	c-0.1-0.1-0.2-0.2-0.3-0.3c-0.1-0.1-0.2-0.2-0.3-0.3c-0.3,0.3-0.7,0.7-1,1c-0.5,0.5-1,1-1.5,1.5c-0.6,0.6-1.1,1.1-1.7,1.7
	c-0.6,0.6-1.1,1.1-1.7,1.7l-1.4,1.4c-0.3,0.3-0.7,0.7-1,1c-0.1,0.1-0.2,0.2-0.3,0.3C9.1,20.7,9,20.8,9,21c0,0.5,0,1,0,1.5
	c0,0.7,0,1.3,0,2c0,0,0,0.1,0,0.1C9,24.8,9.2,25,9.4,25c0.5,0,1,0,1.5,0c0.7,0,1.3,0,2,0c0.1,0,0.1,0,0.2,0c0.1,0,0.2-0.1,0.2-0.1
	c0.1-0.1,0.1-0.1,0.2-0.2c0.3-0.3,0.6-0.6,0.9-0.9c0.5-0.5,0.9-0.9,1.4-1.4c0.5-0.5,1.1-1.1,1.6-1.6c0.6-0.6,1.1-1.1,1.7-1.7
	c0.5-0.5,1-1,1.5-1.5c0.4-0.4,0.8-0.8,1.2-1.2c0.1-0.1,0.1-0.1,0.2-0.2C21.8,16.2,21.7,16.1,21.6,16z"/>
<path class="st1" d="M24.7,11.9c-0.2-0.2-0.3-0.3-0.5-0.5c-0.5-0.5-1.1-1.1-1.6-1.6c-0.2-0.2-0.3-0.3-0.5-0.5
	c-0.1-0.1-0.2-0.2-0.3-0.2C21.4,9,21,9,20.7,9.2c-0.2,0.1-0.3,0.3-0.5,0.4c-0.2,0.2-0.5,0.5-0.7,0.7c-0.3,0.3-0.6,0.6-0.9,0.9
	l3.6,3.6c0.1,0.1,0.2,0.2,0.3,0.3l0.3,0.3c0.1-0.1,0.3-0.3,0.4-0.4c0.4-0.4,0.8-0.8,1.3-1.3c0.1-0.1,0.2-0.2,0.3-0.3c0,0,0,0,0,0
	c0,0,0,0,0,0C25.1,13,25.1,12.3,24.7,11.9z"/>
</svg>
