<?xml version="1.0" encoding="utf-8"?>
<!-- Generator: Adobe Illustrator 23.0.0, SVG Export Plug-In . SVG Version: 6.00 Build 0)  -->
<svg version="1.1" id="Layer_1" xmlns="http://www.w3.org/2000/svg" xmlns:xlink="http://www.w3.org/1999/xlink" x="0px" y="0px"
	 width="16px" height="45px" viewBox="0 0 16 45" style="enable-background:new 0 0 16 45;" xml:space="preserve">
<style type="text/css">
	.st0{fill:#F21616;}
</style>
<path class="st0" d="M15.8,26.7l-4.2-4.2l4.2-4.2c0.2-0.2,0.2-0.4,0.2-0.6c0-0.2-0.1-0.4-0.2-0.6l-2.4-2.4c-0.3-0.3-0.9-0.3-1.2,0
	L8,18.9l-4.2-4.2c-0.3-0.3-0.9-0.3-1.2,0l-2.4,2.4c-0.3,0.3-0.3,0.9,0,1.2l4.2,4.2l-4.2,4.2c-0.3,0.3-0.3,0.9,0,1.2l2.4,2.4
	c0.2,0.2,0.4,0.2,0.6,0.2s0.4-0.1,0.6-0.2L8,26.1l4.2,4.2c0.2,0.2,0.4,0.2,0.6,0.2c0.2,0,0.4-0.1,0.6-0.2l2.4-2.4
	C16.1,27.5,16.1,27,15.8,26.7z"/>
</svg>
