<svg width="9" height="15" viewBox="0 0 9 15" fill="none" xmlns="http://www.w3.org/2000/svg">
<path fillRule="evenodd" clipRule="evenodd" d="M3 1.5C3 2.325 2.325 3 1.5 3C0.675 3 0 2.325 0 1.5C0 0.675 0.675 0 1.5 0C2.325 0 3 0.675 3 1.5ZM1.5 9C2.325 9 3 8.325 3 7.5C3 6.675 2.325 6 1.5 6C0.675 6 0 6.675 0 7.5C0 8.325 0.675 9 1.5 9ZM1.5 12C0.675 12 0 12.675 0 13.5C0 14.325 0.675 15 1.5 15C2.325 15 3 14.325 3 13.5C3 12.675 2.325 12 1.5 12ZM7.5 9C8.325 9 9 8.325 9 7.5C9 6.675 8.325 6 7.5 6C6.675 6 6 6.675 6 7.5C6 8.325 6.675 9 7.5 9ZM7.5 3C8.325 3 9 2.325 9 1.5C9 0.675 8.325 0 7.5 0C6.675 0 6 0.675 6 1.5C6 2.325 6.675 3 7.5 3ZM6 13.5C6 12.675 6.675 12 7.5 12C8.325 12 9 12.675 9 13.5C9 14.325 8.325 15 7.5 15C6.675 15 6 14.325 6 13.5Z" fill="#5D62FF" fill-opacity="0.25"/>
</svg>
