<svg width="12" height="12" viewBox="0 0 12 12" fill="none" xmlns="http://www.w3.org/2000/svg">
    <path fill-rule="evenodd" clip-rule="evenodd" d="M11.7708 0.229221C11.4652 -0.0764069 10.9696 -0.0764069 10.664 0.229221L0.229221 10.664C-0.0764069 10.9696 -0.0764069 11.4652 0.229221 11.7708C0.534848 12.0764 1.03037 12.0764 1.336 11.7708L11.7708 1.336C12.0764 1.03037 12.0764 0.534848 11.7708 0.229221ZM10.664 4.40313C10.9696 4.09751 11.4652 4.09751 11.7708 4.40313C12.0764 4.70876 12.0764 5.20428 11.7708 5.50991L5.50991 11.7708C5.20428 12.0764 4.70876 12.0764 4.40313 11.7708C4.09751 11.4652 4.09751 10.9696 4.40313 10.664L10.664 4.40313ZM10.664 8.57705C10.9696 8.27142 11.4652 8.27142 11.7708 8.57705C12.0764 8.88267 12.0764 9.37819 11.7708 9.68382L9.68382 11.7708C9.37819 12.0764 8.88267 12.0764 8.57705 11.7708C8.27142 11.4652 8.27142 10.9696 8.57705 10.664L10.664 8.57705Z" fill="#5D62FF" fill-opacity="0.25"/>
</svg>
