<?xml version="1.0" encoding="utf-8"?>
<!-- Generator: Adobe Illustrator 23.0.0, SVG Export Plug-In . SVG Version: 6.00 Build 0)  -->
<svg version="1.1" id="Layer_1" xmlns="http://www.w3.org/2000/svg" xmlns:xlink="http://www.w3.org/1999/xlink" x="0px" y="0px"
	 width="18px" height="18px" viewBox="0 0 18 18" style="enable-background:new 0 0 18 18;" xml:space="preserve">
<style type="text/css">
	.st0{fill:#FFFFFF;}
</style>
<g>
	<path class="st0" d="M12,2.1c-2.7-2.7-7.2-2.7-10,0c-2.7,2.7-2.7,7.2,0,10c2.4,2.4,6.3,2.7,9,0.8c0.1,0.3,0.2,0.5,0.4,0.7l4,4
		c0.6,0.6,1.5,0.6,2.1,0c0.6-0.6,0.6-1.5,0-2.1l-4-4c-0.2-0.2-0.5-0.3-0.7-0.4C14.7,8.3,14.5,4.5,12,2.1z M10.8,10.8
		c-2.1,2.1-5.4,2.1-7.4,0c-2-2.1-2-5.4,0-7.4c2-2,5.4-2,7.4,0C12.8,5.4,12.8,8.7,10.8,10.8z"/>
</g>
</svg>
