<?xml version="1.0" encoding="utf-8"?>
<!-- Generator: Adobe Illustrator 23.0.0, SVG Export Plug-In . SVG Version: 6.00 Build 0)  -->
<svg version="1.1" id="Layer_1" xmlns="http://www.w3.org/2000/svg" xmlns:xlink="http://www.w3.org/1999/xlink" x="0px" y="0px"
	 width="20px" height="45px" viewBox="0 0 20 45" style="enable-background:new 0 0 20 45;" xml:space="preserve">
<style type="text/css">
	.st0{fill:#07A866;}
</style>
<path class="st0" d="M19.7,17.7l-2.6-2.6c-0.4-0.4-0.9-0.4-1.3,0L10,21l-3.3,3.3l-2.6-2.6c-0.2-0.2-0.4-0.3-0.6-0.3S3,21.6,2.9,21.8
	l-2.6,2.6c-0.4,0.4-0.4,0.9,0,1.3l5.8,5.8c0.2,0.2,0.4,0.3,0.6,0.3s0.5-0.1,0.6-0.3l2.6-2.6l9.7-9.7c0.2-0.2,0.3-0.4,0.3-0.6
	C20,18.1,19.9,17.9,19.7,17.7z"/>
</svg>
