<svg width="12" height="10" viewBox="0 0 12 10" fill="none" xmlns="http://www.w3.org/2000/svg">
<path d="M10.5864 1.62277C11.0949 1.31687 11.4851 0.831828 11.6683 0.254025C11.1921 0.53797 10.666 0.743316 10.1046 0.854487C9.65663 0.372985 9.01638 0.0727539 8.3078 0.0727539C6.94841 0.0727539 5.8468 1.18092 5.8468 2.54753C5.8468 2.74155 5.86723 2.93061 5.90949 3.11117C3.86406 3.00779 2.05036 2.02355 0.835358 0.525224C0.623349 0.892015 0.502201 1.31687 0.502201 1.77005C0.502201 2.62825 0.936785 3.38591 1.59746 3.83059C1.19387 3.81785 0.814228 3.70526 0.481775 3.52116V3.55161C0.481775 4.75111 1.32981 5.75164 2.45747 5.97823C2.2504 6.0363 2.03346 6.06533 1.80806 6.06533C1.64959 6.06533 1.49463 6.05046 1.34531 6.02143C1.65804 7.00426 2.56735 7.72085 3.64501 7.73996C2.8019 8.40415 1.74045 8.79927 0.587427 8.79927C0.388801 8.79927 0.192287 8.78865 0 8.76528C1.08963 9.467 2.38352 9.87698 3.7739 9.87698C8.30287 9.87698 10.778 6.10569 10.778 2.83502C10.778 2.72739 10.7765 2.62047 10.7716 2.51496C11.2527 2.16587 11.6711 1.72969 12 1.23332C11.5584 1.43016 11.0836 1.56329 10.5864 1.62277Z" fill="white"/>
</svg>
