<svg id="Layer_1" data-name="Layer 1" xmlns="http://www.w3.org/2000/svg" viewBox="0 0 1024 1024"><defs><style>.cls-1{fill:#1852b7;}.cls-2{fill:#fff;}</style></defs><title>ndtcoin</title><circle class="cls-1" cx="512" cy="512" r="512"/><path class="cls-2" d="M244.17,475.36c-.92,24.61-1.12,45.11-1.12,60,0,10.41-.84,25.64,1.71,45.44a149.5,149.5,0,0,0,2.63,15.6,141.92,141.92,0,0,0,15.89,39C276.39,657,294,669.38,300.37,674.25L480.21,811.84c2.11-36.11,2.18-64.59,1.79-84.46-.21-10.63-.56-19.39-2.91-30.62-5.23-25-16.36-43.11-21-50.45-3-4.81-5.32-7.85-6.29-9.11a104.07,104.07,0,0,0-21.28-20.82Z"/><path class="cls-2" d="M543.34,211.1c-.92,24.61-1.13,45.11-1.12,60,0,33.85,1.1,42.29,2.25,48.79,1.95,11.11,5.55,30.6,18,51.28A120.48,120.48,0,0,0,599.61,410l180,137.59c1.7-32.37,2-59.07,1.79-78.72-.14-16.53-.54-25.21-2.91-36.36a155.19,155.19,0,0,0-21-50.45c-3-4.81-5.32-7.85-6.3-9.11a104.07,104.07,0,0,0-21.3-20.82Z"/><path class="cls-2" d="M245.51,212a875.6,875.6,0,0,0-3,116.62c.69,15.85,1.9,32,8.65,51.4a159,159,0,0,0,28.09,49.41h0a179.19,179.19,0,0,0,18.31,19.2C305.3,455.57,506.38,607.19,780,812c2.46-62.57,2.66-108.65,1.84-120.48a206.44,206.44,0,0,0-2.8-21.95s-1-5.06-2.25-10A172.14,172.14,0,0,0,755.73,611a199.24,199.24,0,0,0-33.09-38.3C693.1,546.76,505.18,404.2,245.51,212Z"/></svg>