<svg id="Layer_1" data-name="Layer 1" xmlns="http://www.w3.org/2000/svg" xmlns:xlink="http://www.w3.org/1999/xlink" viewBox="0 0 300 299.9"><defs><style>.cls-1{fill:url(#linear-gradient);}.cls-2{fill:#fff;}</style><linearGradient id="linear-gradient" x1="60.1" y1="307.96" x2="240.56" y2="-4.62" gradientTransform="matrix(1, 0, 0, -1, 0, 302)" gradientUnits="userSpaceOnUse"><stop offset="0.01" stop-color="#ff6422"/><stop offset="1" stop-color="#ff3722"/></linearGradient></defs><title>qpy</title><path id="bg" class="cls-1" d="M233.66,300.28H67A66.66,66.66,0,0,1,.33,233.61V67.06A66.66,66.66,0,0,1,67,.38H233.66a66.66,66.66,0,0,1,66.67,66.68V233.71A66.7,66.7,0,0,1,233.66,300.28Z" transform="translate(-0.33 -0.38)"/><path id="u" class="cls-2" d="M239.05,237.1c-.3.3-5,5.2-11.79,4.8a16.06,16.06,0,0,1-8.5-2.9c-.3-.3-.7-.5-.9-.7-1.6-1.4-5.2-4.79-9.2-9l-1.9-1.9h0c-3.79-3.8-7.79-8-10.89-11.1a15.39,15.39,0,0,1,.2-20.89c.3-.3,5-5.2,11.79-4.8a15.2,15.2,0,0,1,9.4,3.7l22.49,22.49a15.09,15.09,0,0,1,3.1,8.7A15.67,15.67,0,0,1,239.05,237.1Z" transform="translate(-0.33 -0.38)"/><path id="Q" class="cls-2" d="M177.47,59.36a3.81,3.81,0,0,0-1-.3c-.5-.2-1.19-.3-1.69-.5-.3,0-.7-.2-1-.2a5.27,5.27,0,0,0-1.2-.3,2.54,2.54,0,0,0-1.2-.2,10.1,10.1,0,0,0-1.7-.3c-.9-.2-1.9-.3-2.8-.5a6.28,6.28,0,0,0-1.9-.3c-.5,0-.9-.2-1.4-.2q-6.15-.75-12.3-.9a31,31,0,0,0-4.3.2,29.52,29.52,0,0,0-4.19.3,395933633358711.06,395933633358711.06,0,0,1-2.4.4c-.5,0-1,.2-1.7.2-.3,0-.7.2-1,.2h0c-.5,0-1,.2-1.7.2h0a15.17,15.17,0,0,1-2.1.3A95.11,95.11,0,0,0,151.18,246.1h1.4a97,97,0,0,0,47.79-13.59h0a43.43,43.43,0,0,0,4.3-2.9c-3.5-3.5-6.9-7.1-10.6-10.6a16.54,16.54,0,0,1-4.7-9.5,16.18,16.18,0,0,1,.9-8.69c-5.9,4.69-20.29,14-39.09,13.69a63.13,63.13,0,0,1-28.09-7.6,72.59,72.59,0,0,1-12.49-8.29h0c-13.5-11.1-23-27.49-23-47.79a63.48,63.48,0,0,1,63.48-63.38h0c37,0,63.18,32.39,63.48,63.48.2,16.4-6.9,29.59-13.49,38.39a16.08,16.08,0,0,1,8.69-1.2,19.58,19.58,0,0,1,7.4,2.8,19.92,19.92,0,0,1,3.3,2.4s3.8,4,9.9,10A94.48,94.48,0,0,0,242.15,178s4.2-13.49,4.2-27.19A95.23,95.23,0,0,0,177.47,59.36Z" transform="translate(-0.33 -0.38)"/></svg>