<svg version="1.1" id="Layer_1" xmlns="http://www.w3.org/2000/svg" xmlns:xlink="http://www.w3.org/1999/xlink" x="0px" y="0px"
	 width="32px" height="32px" viewBox="0 0 32 32" style="enable-background:new 0 0 32 32;" xml:space="preserve">
<style type="text/css">
	.st0{fill:#FFB404;}
	.st1{fill:url(#SVGID_1_);}
	.st2{fill:#FFFFFF;}
</style>
<path class="st0" d="M20,32h-8C5.4,32,0,26.6,0,20v-8C0,5.4,5.4,0,12,0h8c6.6,0,12,5.4,12,12v8C32,26.6,26.6,32,20,32z"/>
<linearGradient id="SVGID_1_" gradientUnits="userSpaceOnUse" x1="7.2681" y1="0.8759" x2="24.7319" y2="31.1241">
	<stop  offset="0" style="stop-color:#FFFFFF;stop-opacity:0.5"/>
	<stop  offset="1" style="stop-color:#FFFFFF;stop-opacity:0"/>
</linearGradient>
<path class="st1" d="M20,32h-8C5.4,32,0,26.6,0,20v-8C0,5.4,5.4,0,12,0h8c6.6,0,12,5.4,12,12v8C32,26.6,26.6,32,20,32z"/>
<title>NBC Logo without bg</title>
<path id="LEAR" class="st2" d="M5.4,6.7l3,5.2c0,0.1,0.1,0.2,0.1,0.2l0,6.7c0,0.1,0.1,0.2,0.1,0.3l2.4,2.4c0.3,0.3,0.8,0.1,0.8-0.3
	c0-3.3,0-6.7,0-10c0-0.1,0-0.2-0.1-0.2L9.5,7.1C9.4,7,9.3,6.9,9.2,6.9L5.9,6C5.7,5.9,5.4,6.1,5.3,6.4C5.3,6.5,5.3,6.6,5.4,6.7z"/>
<path id="LEYE" class="st2" d="M12.3,11.3V25c0,0.1,0,0.2,0.1,0.3l2.6,2.6c0.1,0.1,0.4,0.1,0.5,0c0.1-0.1,0.1-0.2,0.1-0.3V11.2
	c0-0.2-0.2-0.4-0.4-0.4l0,0h-2.5C12.5,10.8,12.3,11,12.3,11.3z"/>
<path id="REYE" class="st2" d="M19.7,11.3V25c0,0.1,0,0.2-0.1,0.3l-2.6,2.6c-0.1,0.1-0.4,0.1-0.5,0c-0.1-0.1-0.1-0.2-0.1-0.3V11.2
	c0-0.2,0.2-0.4,0.4-0.4h2.5C19.4,10.8,19.7,11,19.7,11.3z"/>
<path id="REAR" class="st2" d="M26.6,6.7l-3,5.2c0,0.1-0.1,0.2-0.1,0.2l0,6.7c0,0.1-0.1,0.2-0.1,0.3L21,21.6
	c-0.3,0.3-0.8,0.1-0.8-0.3c0-3.3,0-6.7,0-10c0-0.1,0-0.2,0.1-0.2l2.3-3.9c0.1-0.1,0.2-0.2,0.3-0.2L26.1,6
	C26.5,5.9,26.8,6.3,26.6,6.7z"/>
</svg>
