<svg xmlns="http://www.w3.org/2000/svg" id="Layer_1" style="enable-background:new 0 0 32 32;" viewBox="0 0 32 32" x="0px" y="0px" width="32px" height="32px" xmlns:xml="http://www.w3.org/XML/1998/namespace" xml:space="preserve" xmlns:xlink="http://www.w3.org/1999/xlink" version="1.1">
<style type="text/css">
	.st0{fill:#FF4E10;}
	.st1{fill:url(#SVGID_1_);}
	.st2{fill:#FFFFFF;}
</style>
<path class="st0" d="M 20 32 h -8 C 5.4 32 0 26.6 0 20 v -8 C 0 5.4 5.4 0 12 0 h 8 c 6.6 0 12 5.4 12 12 v 8 C 32 26.6 26.6 32 20 32 Z" />
<linearGradient id="SVGID_1_" gradientUnits="userSpaceOnUse" gradientTransform="matrix(1, 0, 0, -1, 0, 34)" x1="7.2726" y1="33.1163" x2="24.7274" y2="2.8837">
	<stop style="stop-color:#FFFFFF;stop-opacity:0.5" offset="0" />
	<stop style="stop-color:#FFFFFF;stop-opacity:0" offset="1" />
</linearGradient>
<path class="st1" d="M 20 32 h -8 C 5.4 32 0 26.6 0 20 v -8 C 0 5.4 5.4 0 12 0 h 8 c 6.6 0 12 5.4 12 12 v 8 C 32 26.6 26.6 32 20 32 Z" />
<title>NBC Logo without bg</title>
<polygon class="st2" points="23.9,15.4 23.9,16.6 27,16.6 27,18.6 23.9,18.6 23.9,24.6 18.7,24.6 11.8,13 11.8,24.6 8.1,24.6 8.1,18.6 5,18.6 5,16.6 8.1,16.6 8.1,15.4 5,15.4 5,13.4 8.1,13.4 8.1,7.4 12.8,7.4 20.2,19.9 20.2,7.4 23.9,7.4 23.9,13.4 27,13.4 27,15.4" />
</svg>
