<?xml version="1.0" encoding="utf-8"?>
<!-- Generator: Adobe Illustrator 23.0.0, SVG Export Plug-In . SVG Version: 6.00 Build 0)  -->
<svg version="1.1" id="Layer_1" xmlns="http://www.w3.org/2000/svg" xmlns:xlink="http://www.w3.org/1999/xlink" x="0px" y="0px"
	 viewBox="0 0 1700 1700" style="enable-background:new 0 0 1700 1700;" xml:space="preserve">
<style type="text/css">
	.st0{fill:#FFFFFF;}
	.st1{fill:#A12525;}
	.st2{fill:#3156AA;}
</style>
<path class="st0" d="M1366.1,510.5c-1.5,35.7-8.1,62.3-12.4,79.3c-20.2,79.6-31.3,119.1-49.5,187.3c-21.7,81.1-31.3,115.9-38,139.3
	c-1.2,4.1-2.3,7.8-3.8,13.1c-20.5,70.6-28.7,91.8-46.4,150.8c-16.7,55.7-17.7,60.9-18.3,63.3c-21.6,65-30.4,88.4-30.4,88.4
	c-9.1,24.2-24.5,65.4-50,116.4c-23.7,47.5-43.7,78.5-61.8,106.3c-18.8,28.9-32.3,46.9-52.6,65.1c-3.8,3.4-7.6,6.6-11.3,9.5
	c-13.8-10.7-25.4-19.8-34.3-26.8c0,0-140.2-110.1-251.5-211.6c-29.9-27.2-49.5-45.8-69.1-64.5c0,0-127.1-121-241.2-265.5
	c-2.3-2.8-17.4-22.2-32-50.8c-22.6-44.3-24-71.5-23.7-84.6c0.1-1,0.3-10.5,2.1-21.2c11.6-68.6,68-133.3,68-133.3
	C536.5,526,683.3,423.2,702.7,409.8c4.7-3.2,19.4-13.3,39.2-26.4c119.9-79.2,231.5-136.7,266.9-150.2c3.9-1.5,19.9-7.4,40.2-18
	c4.6-2.3,8.6-4.6,12.1-6.5c4.6,0.6,9.5,1.2,14.4,1.9c26,3.7,44.4,6.3,68,12.7c21.7,5.9,54.9,15.3,92.8,38.1
	c14.3,8.6,34.2,20.8,55.7,42.8c6.9,7.1,25.2,26.7,41.7,57.1c7.5,13.9,17.7,35.5,24.7,63.5C1360.2,432.2,1368,464.5,1366.1,510.5z"/>
<path class="st1" d="M1587.3,480.4c0,15.9-0.5,46.1-7.7,100c-2.8,21.1-9.4,66.4-29.4,152.3c-10.5,45-19.8,85.1-35.6,138.1
	c-33.5,112.5-69.8,195.2-83.5,225.3c-24.3,53.6-43.6,96.4-78.8,150.8c-34.4,53.1-67.3,91.6-88.1,115.8
	c-34.7,40.4-52.8,61.4-83.5,87.3c0,0-77.4,65.3-154.6,87.3c-6.3,1.8-12.7,3.4-18.1,4.7c-1.5,0.3-2.9,0.7-4.1,0.9
	c-5.4,1.2-9.1,2-9.1,2c-3.4,0.7-5.9,1.2-6.5,1.3c-11.3,2.1-20.6,3.2-27.1,3.8c6.5-3.7,14.5-8.7,23.4-15.3c2.3-1.7,4.6-3.4,7-5.3
	c3.7-2.9,7.5-6.1,11.3-9.5c20.3-18.2,33.8-36.2,52.6-65.1c18.1-27.8,38.1-58.8,61.8-106.3c25.5-51,40.9-92.2,50-116.4
	c0,0,8.8-23.4,30.4-88.4c0.6-2.4,1.6-7.6,18.3-63.3c17.7-59,25.9-80.2,46.4-150.8c1.5-5.3,2.6-9,3.8-13.1
	c6.7-23.4,16.3-58.2,38-139.3c18.2-68.2,29.3-107.7,49.5-187.3c4.3-17,10.9-43.6,12.4-79.3c1.9-46-5.9-78.3-7.7-85.7
	c-7-28-17.2-49.6-24.7-63.5c-16.5-30.4-34.8-50-41.7-57.1c-21.5-22-41.4-34.2-55.7-42.8c-37.9-22.8-71.1-32.2-92.8-38.1
	c-23.6-6.4-42-9-68-12.7c-5-0.7-9.8-1.4-14.4-1.9c-17.5-2.2-32.5-3.6-44.3-4.3c0.6-0.2,1.1-0.4,1.7-0.7
	c11.9-4.6,27.6-10.5,46.2-16.8c21.2-7.1,45.1-15.2,75.8-22.2c39.1-9,70-11.8,80.4-12.7c53-4.4,93.4,0,106.7,1.6
	c27.1,3.3,48.6,5.9,75.8,15.9c12.9,4.7,45.1,17.9,78.8,46c19.4,16.1,32.7,31.7,40.2,41.3c10.1,12.8,23.8,32.5,35.6,58.7
	c13,28.9,17.7,52.6,21.6,73C1581,395.8,1587.3,429.2,1587.3,480.4z"/>
<path class="st2" d="M1069.6,203.6c-2.2,1.3-5.1,3.1-8.5,5.1c-3.5,2-7.5,4.2-12.1,6.5c-20.3,10.6-36.3,16.5-40.2,18
	c-35.4,13.5-147,71-266.9,150.2c-19.8,13.1-34.5,23.2-39.2,26.4C683.3,423.2,536.5,526,409.9,671.1c0,0-56.4,64.7-68,133.3
	c-1.8,10.7-2,20.2-2.1,21.2c-0.3,13.1,1.1,40.3,23.7,84.6c14.6,28.6,29.7,48,32,50.8c114.1,144.5,241.2,265.5,241.2,265.5
	c19.6,18.7,39.2,37.3,69.1,64.5c111.3,101.5,251.5,211.6,251.5,211.6c8.9,7,20.5,16.1,34.3,26.8c5.2,4,10.6,8.2,16.4,12.6
	c2.6,2,5.3,4.1,8,6.1c-3.5-1.5-7.6-3.2-12.1-5.2c-5.7-2.4-12.1-5.2-19.2-8.2c-7.1-3-14.9-6.4-23.2-9.9
	c-61.8-26.3-101.5-42.8-115.4-48.7c-83.9-35.4-159.1-74.2-181.4-85.7c-66.1-34.2-133.4-69.1-216.4-127
	c-18.4-12.9-87.6-61.6-163.9-133.3c0,0-41.6-39.1-89.7-99.4c-12.4-15.6-28.3-36.5-42.3-66.7c-6.8-14.3-10.7-25.9-14.4-36.8
	c-4.5-13.2-17.8-52.5-22.7-91c-7.6-59.8,6.3-109.6,14.4-137.5c20-69.2,53.2-114.8,76.3-146c53.9-72.7,110.2-114,154.6-146
	c19-13.7,109.8-77.5,249.4-129.1c36.2-13.3,194.1-69.6,408.6-74c12.1-0.3,24.3-0.3,36.7-0.2C1061.3,203.4,1066.3,203.5,1069.6,203.6
	z"/>
<path class="st2" d="M375.3,899.9c0.1-48.1,0.3-96.3,0.4-144.4c0-0.4,0.1-0.7,0.2-1.1c0.7-2,2.1-5.2,5-8.2c2.5-2.7,5.1-4.2,6.9-5.1
	c0.4-0.2,0.9-0.3,1.3-0.3c35,0.3,70,0.6,105.1,0.8c0.2,0,0.4,0,0.6,0.1c6.6,1.3,18.9,4.8,30.9,14.8c12.5,10.4,18,22.4,19.3,25.4
	c3.6,8.3,4.9,15.8,5.4,21c0,0.1,0,0.2,0,0.3c0,32.2,0.1,64.4,0.1,96.6c0,1.8-1.4,3.3-3.2,3.3c-10.7-0.1-21.4-0.2-32.2-0.3
	c-1.7,0-3.2-1.5-3.1-3.3c0.4-46.1-0.2-79.9-1.1-90.1c-0.2-1.9-0.7-6.5-3-11.8c-1.3-3-3.7-8.3-9.3-12.3c-3.9-2.8-7.9-3.9-10.6-4.3
	c-0.2,0-0.3,0-0.5,0c-23.3-0.4-46.7-0.8-70-1.1c-1.8,0-3.2,1.4-3.2,3.2l-0.6,116.5c0,1.8-1.4,3.2-3.1,3.2
	c-10.8,0.1-21.5,0.2-32.3,0.3C376.7,903.2,375.3,901.7,375.3,899.9z"/>
<path class="st2" d="M794.4,773.1c-0.4-11.1-0.7-14-1.5-17.9c-0.4-2.1-1.9-9.2-5.8-17.9c-1.4-3.3-3.7-8.2-7.7-13.9
	c-4.2-5.9-8.2-9.6-13.5-14.3c-5-4.5-7.7-6.9-12-9.5c-5.4-3.2-10.1-4.9-17.4-7.5c-3.3-1.2-6.2-2.1-8.6-2.8c-1.7-0.5-3.4-0.7-5.2-0.7
	l-117.3,0.7c-10,0.1-18.1,8.4-18.1,18.7v175.2c0,10.2,8,18.6,17.9,18.8c52.2,0.7,90.1,0.6,103.8,0.5c4.4-0.1,14.4-0.2,26.3-4
	c8.1-2.5,13.9-5.8,16.2-7.1c6.2-3.6,10.4-7.3,13.5-9.9c2.9-2.4,6.1-5.2,9.7-9.5c5.2-6.2,8.1-11.7,10-15.5c4.2-8.1,6.1-14.7,6.6-16.3
	c1.6-5.6,2.2-10,2.7-13.5c0.8-5.6,1.1-10.2,1.2-17.1C795.2,806.3,795.4,795.9,794.4,773.1z M757.4,820.1c-0.5,3.5-1.5,7.4-1.5,7.4
	c-1.2,5-1.8,7.5-3.1,10.1c-1.7,3.4-3.6,5.4-6.6,8.6c-4.3,4.5-8.1,7.3-8.9,7.9c-2.8,1.9-6.3,4.4-11.6,6.3c-5.4,1.9-9.9,2.3-12.4,2.4
	c-9.4,0.4-41.2,0.7-84.7,0.4c-1.7,0-3.2-1.5-3.2-3.3c-0.3-42.7-0.7-85.4-1-128.1c0-1.8,1.4-3.3,3.2-3.1c28.6-0.3,57.3-0.7,85.9-1
	h0.5c2.5,0.3,5.3,0.9,8.5,1.8c2.6,0.8,18.3,5.4,25.9,17.2c1,1.5,2.5,4.1,3.9,7.1c1,2.2,2.2,4.7,3.1,8.3c0.8,3,1.1,5.4,1.2,6.7
	C757.8,780.8,760.1,804.4,757.4,820.1z"/>
<path class="st2" d="M847,688.6c-0.3,0-0.5,0-0.7,0.1c-1.9,0.5-5.1,1.6-8.1,4.3c-5.1,4.6-6.3,10.6-6.5,12.6c0,0.2,0,0.3,0,0.5v152.3
	c0,0.2,0,0.4,0,0.6c0.5,2.9,1.4,6.7,3,10.8c1,2.6,3.3,7.7,7.7,13.2c2.1,2.6,6.7,7.9,13.9,12.2c8.7,5.2,17,6.4,20.6,6.9
	c15.1,2,68,2.7,140.1,0.6c1.8-0.1,3.2-1.5,3.2-3.3l0.4-33.6c0-1.9-1.5-3.4-3.3-3.4c-46.1,0.2-92.3,0.3-138.4,0.5
	c-1.6-0.4-4.2-1.3-6.2-3.7c-2.2-2.6-2.5-5.7-2.6-6.9c-0.6-6.2-1-54.8-1-121.5c0-1.9,1.5-3.4,3.3-3.4c48-0.2,96-0.3,144-0.5
	c1.8,0,3.2-1.5,3.3-3.3c0.1-11,0.3-22,0.4-32.9c0-1.9-1.5-3.4-3.3-3.4L847,688.6z"/>
<path class="st2" d="M883.7,777.3v35.3c0,1.9,1.5,3.4,3.3,3.4l112.9-0.4c1.8,0,3.3-1.5,3.3-3.3c0.1-11.5,0.2-23,0.3-34.6
	c0-1.9-1.5-3.4-3.3-3.4c-37.7-0.1-75.5-0.2-113.2-0.4C885.2,773.9,883.7,775.4,883.7,777.3z"/>
<path class="st2" d="M1035.1,687.3c30.1,35.8,60.1,71.5,90.2,107.3c-29.9,36.2-59.8,72.4-89.7,108.6c17.9-0.1,35.8-0.2,53.7-0.3
	c20.9-25,41.7-50,62.6-75c21,25,42,50,63,75c17.5-0.1,35-0.3,52.6-0.4c-29.5-35.8-59-71.7-88.5-107.5c30-36,60-71.9,90.1-107.9
	c-17.7-0.3-35.4-0.5-53.1-0.8c-21.2,25.5-42.4,51-63.6,76.6c-21.4-25.3-42.8-50.5-64.2-75.8C1070.5,687.1,1052.8,687.2,1035.1,687.3
	z"/>
</svg>
