<?xml version="1.0" encoding="utf-8"?>
<!-- Generator: Adobe Illustrator 23.0.0, SVG Export Plug-In . SVG Version: 6.00 Build 0)  -->
<svg version="1.1" id="Layer_1" xmlns="http://www.w3.org/2000/svg" xmlns:xlink="http://www.w3.org/1999/xlink" x="0px" y="0px"
	 width="20px" height="20px" viewBox="0 0 20 20" style="enable-background:new 0 0 20 20;" xml:space="preserve">
<style type="text/css">
	.st0{opacity:0.5986;}
	.st1{fill-rule:evenodd;clip-rule:evenodd;fill:#FF2A00;}
</style>
<title>Shape</title>
<desc>Created with Sketch.</desc>
<g id="Homepage" class="st0">
	<g id="Homepage-Dark" transform="translate(-1006.000000, -1788.000000)">
		<g id="FOOTER" transform="translate(0.000000, 1653.000000)">
			<g id="Group-2" transform="translate(830.000000, 122.000000)">
				<g id="Group-Copy-3" transform="translate(162.994975, 0.000000)">
					<path id="Shape" class="st1" d="M13.6,23.2c0,4.3,2.7,8,6.6,9.3c0.5,0.1,0.7-0.2,0.7-0.5c0-0.2,0-0.8,0-1.7
						c-2.7,0.6-3.2-1.3-3.2-1.3c-0.4-1.1-1.1-1.4-1.1-1.4C15.6,27,16.6,27,16.6,27c1,0.1,1.5,1,1.5,1c0.9,1.5,2.2,1.1,2.8,0.8
						c0.1-0.6,0.3-1.1,0.6-1.3c-2.1-0.2-4.4-1.1-4.4-4.8c0-1.1,0.4-1.9,1-2.6c-0.1-0.2-0.4-1.2,0.1-2.6c0,0,0.8-0.3,2.6,1
						c0.8-0.2,1.6-0.3,2.4-0.3c0.8,0,1.6,0.1,2.4,0.3c1.8-1.3,2.6-1,2.6-1c0.5,1.3,0.2,2.3,0.1,2.6c0.6,0.7,1,1.6,1,2.6
						c0,3.7-2.2,4.6-4.4,4.8c0.3,0.3,0.7,0.9,0.7,1.8c0,1.3,0,2.4,0,2.7c0,0.3,0.2,0.6,0.7,0.5c3.8-1.3,6.6-4.9,6.6-9.3
						c0-5.4-4.3-9.8-9.6-9.8C17.9,13.5,13.6,17.9,13.6,23.2z"/>
				</g>
			</g>
		</g>
	</g>
</g>
</svg>
