<?xml version="1.0" encoding="utf-8"?>
<!-- Generator: Adobe Illustrator 23.0.0, SVG Export Plug-In . SVG Version: 6.00 Build 0)  -->
<svg version="1.1" id="Layer_1" xmlns="http://www.w3.org/2000/svg" xmlns:xlink="http://www.w3.org/1999/xlink" x="0px" y="0px"
	 width="17px" height="16px" viewBox="0 0 17 16" style="enable-background:new 0 0 17 16;" xml:space="preserve">
<style type="text/css">
	.st0{opacity:0.5986;}
	.st1{fill-rule:evenodd;clip-rule:evenodd;fill:#FF2A00;}
</style>
<title>Shape</title>
<desc>Created with Sketch.</desc>
<g id="Homepage" class="st0">
	<g id="Homepage-Dark" transform="translate(-953.000000, -1790.000000)">
		<g id="FOOTER" transform="translate(0.000000, 1653.000000)">
			<g id="Group-2" transform="translate(830.000000, 122.000000)">
				<g id="Group-Copy-2" transform="translate(108.663317, 0.000000)">
					<path id="Shape" class="st1" d="M15.6,20.2h3.1v10.8h-3.1V20.2z M17.1,18.8L17.1,18.8c-1.2,0-1.9-0.8-1.9-1.9
						c0-1.1,0.8-1.9,1.9-1.9c1.1,0,1.9,0.8,1.9,1.9C19,18,18.2,18.8,17.1,18.8L17.1,18.8z M31.2,30.9h-3.5v-5.6
						c0-1.5-0.6-2.5-1.8-2.5c-0.9,0-1.4,0.7-1.7,1.3c-0.1,0.2-0.1,0.6-0.1,0.9v5.8h-3.5c0,0,0-9.9,0-10.8h3.5v1.7
						c0.2-0.7,1.3-1.8,3.1-1.8c2.2,0,4,1.6,4,4.9V30.9L31.2,30.9z"/>
				</g>
			</g>
		</g>
	</g>
</g>
</svg>
