<?xml version="1.0" encoding="utf-8"?>
<!-- Generator: Adobe Illustrator 23.0.0, SVG Export Plug-In . SVG Version: 6.00 Build 0)  -->
<svg version="1.1" id="Layer_1" xmlns="http://www.w3.org/2000/svg" xmlns:xlink="http://www.w3.org/1999/xlink" x="0px" y="0px"
	 width="19px" height="18px" viewBox="0 0 19 18" style="enable-background:new 0 0 19 18;" xml:space="preserve">
<style type="text/css">
	.st0{opacity:0.5986;}
	.st1{fill-rule:evenodd;clip-rule:evenodd;fill:#FF2A00;}
</style>
<title>Shape</title>
<desc>Created with Sketch.</desc>
<g id="Homepage" class="st0">
	<g id="Homepage-Dark" transform="translate(-1061.000000, -1789.000000)">
		<g id="FOOTER" transform="translate(0.000000, 1653.000000)">
			<g id="Group-2" transform="translate(830.000000, 122.000000)">
				<g id="Group-Copy-4" transform="translate(217.326633, 0.000000)">
					<path id="Shape" class="st1" d="M23.2,15.8c2.3,0,2.6,0,3.6,0.1c0.9,0,1.3,0.2,1.6,0.3c0.4,0.2,0.7,0.3,1,0.7
						c0.3,0.3,0.5,0.6,0.7,1c0.1,0.3,0.3,0.8,0.3,1.6c0,0.9,0.1,1.2,0.1,3.5s0,2.6-0.1,3.5c0,0.9-0.2,1.3-0.3,1.6
						c-0.2,0.4-0.3,0.7-0.7,1c-0.3,0.3-0.6,0.5-1,0.7c-0.3,0.1-0.8,0.3-1.6,0.3c-0.9,0-1.2,0.1-3.6,0.1s-2.6,0-3.6-0.1
						c-0.9,0-1.3-0.2-1.6-0.3c-0.4-0.2-0.7-0.3-1-0.7c-0.3-0.3-0.5-0.6-0.7-1c-0.1-0.3-0.3-0.8-0.3-1.6c0-0.9-0.1-1.2-0.1-3.5
						s0-2.6,0.1-3.5c0-0.9,0.2-1.3,0.3-1.6c0.2-0.4,0.3-0.7,0.7-1c0.3-0.3,0.6-0.5,1-0.7c0.3-0.1,0.8-0.3,1.6-0.3
						C20.5,15.9,20.8,15.8,23.2,15.8 M23.2,14.3c2.4,0,2.7,0,3.6,0.1c0.9,0,1.6,0.2,2.1,0.4c0.6,0.2,1.1,0.5,1.6,1
						c0.5,0.5,0.8,1,1,1.5c0.2,0.6,0.4,1.2,0.4,2.1c0,0.9,0.1,1.2,0.1,3.6s0,2.7-0.1,3.6c0,0.9-0.2,1.6-0.4,2.1
						c-0.2,0.6-0.5,1.1-1,1.5c-0.5,0.5-1,0.8-1.6,1c-0.6,0.2-1.2,0.4-2.1,0.4c-0.9,0-1.2,0.1-3.6,0.1s-2.7,0-3.6-0.1
						c-0.9,0-1.6-0.2-2.1-0.4c-0.6-0.2-1.1-0.5-1.6-1s-0.8-1-1-1.5c-0.2-0.6-0.4-1.2-0.4-2.1c0-0.9-0.1-1.2-0.1-3.6s0-2.7,0.1-3.6
						c0-0.9,0.2-1.6,0.4-2.1c0.2-0.6,0.5-1.1,1-1.5s1-0.8,1.6-1c0.6-0.2,1.2-0.4,2.1-0.4C20.5,14.3,20.8,14.3,23.2,14.3z M23.2,18.5
						c-2.5,0-4.5,2-4.5,4.5s2,4.5,4.5,4.5s4.5-2,4.5-4.5S25.7,18.5,23.2,18.5z M23.2,25.9c-1.6,0-2.9-1.3-2.9-2.9
						c0-1.6,1.3-2.9,2.9-2.9c1.6,0,2.9,1.3,2.9,2.9C26.1,24.6,24.8,25.9,23.2,25.9z M28.9,18.3c0-0.6-0.5-1-1-1c-0.6,0-1,0.5-1,1
						c0,0.6,0.5,1,1,1C28.4,19.4,28.9,18.9,28.9,18.3z"/>
				</g>
			</g>
		</g>
	</g>
</g>
</svg>
