<?xml version="1.0" encoding="utf-8"?>
<!-- Generator: Adobe Illustrator 23.0.0, SVG Export Plug-In . SVG Version: 6.00 Build 0)  -->
<svg version="1.1" id="Layer_1" xmlns="http://www.w3.org/2000/svg" xmlns:xlink="http://www.w3.org/1999/xlink" x="0px" y="0px"
	 width="20px" height="17px" viewBox="0 0 20 17" style="enable-background:new 0 0 20 17;" xml:space="preserve">
<style type="text/css">
	.st0{opacity:0.5986;}
	.st1{fill-rule:evenodd;clip-rule:evenodd;fill:#FF2A00;}
</style>
<title>Group 4</title>
<desc>Created with Sketch.</desc>
<g id="Homepage" class="st0">
	<g id="Homepage-Dark" transform="translate(-1113.000000, -1790.000000)">
		<g id="FOOTER" transform="translate(0.000000, 1653.000000)">
			<g id="Group-2" transform="translate(830.000000, 122.000000)">
				<g id="Group-Copy-5" transform="translate(271.658291, 0.000000)">
					<g id="Group-4" transform="translate(11.984925, 15.068966)">
						<path id="Combined-Shape" class="st1" d="M7.6,11.2l0-0.1c0,0,7.8-7.1,8.1-7.4S16,3.4,16,3.4c0-0.4-0.6,0-0.6,0L5.1,10
							L0.8,8.5c0,0-0.7-0.2-0.7-0.8S0.8,7,0.8,7l17.1-6.8c0,0,1.4-0.6,1.4,0.4l-3,15.5c0,0-0.4,1.1-1.6,0.6L7.6,11.2z"/>
						<path id="Path" class="st1" d="M10.3,13.3l-2.8,2.6c0,0-0.2,0.2-0.5,0.1l0.5-4.7"/>
					</g>
				</g>
			</g>
		</g>
	</g>
</g>
</svg>
