<?xml version="1.0" encoding="utf-8"?>
<!-- Generator: Adobe Illustrator 23.0.0, SVG Export Plug-In . SVG Version: 6.00 Build 0)  -->
<svg version="1.1" id="Layer_1" xmlns="http://www.w3.org/2000/svg" xmlns:xlink="http://www.w3.org/1999/xlink" x="0px" y="0px"
	 width="17px" height="15px" viewBox="0 0 17 15" style="enable-background:new 0 0 17 15;" xml:space="preserve">
<style type="text/css">
	.st0{opacity:0.6;}
	.st1{fill-rule:evenodd;clip-rule:evenodd;fill:#FF2A00;}
</style>
<title>Shape</title>
<desc>Created with Sketch.</desc>
<g id="Homepage" class="st0">
	<g id="Homepage-Dark" transform="translate(-845.000000, -1791.000000)">
		<g id="FOOTER" transform="translate(0.000000, 1653.000000)">
			<g id="Group-2" transform="translate(830.000000, 122.000000)">
				<g id="Group">
					<path id="Shape" class="st1" d="M30,18.9c0.7-0.4,1.3-1.2,1.5-2c-0.7,0.4-1.4,0.7-2.2,0.9c-0.6-0.7-1.5-1.1-2.5-1.1
						c-1.9,0-3.4,1.6-3.4,3.6c0,0.3,0,0.6,0.1,0.8c-2.9-0.2-5.4-1.6-7.1-3.8c-0.3,0.5-0.5,1.2-0.5,1.8c0,1.2,0.6,2.4,1.5,3
						c-0.6,0-1.1-0.2-1.6-0.5v0c0,1.7,1.2,3.2,2.8,3.5c-0.3,0.1-0.6,0.1-0.9,0.1c-0.2,0-0.4,0-0.6-0.1c0.4,1.4,1.7,2.5,3.2,2.5
						c-1.2,1-2.7,1.5-4.3,1.5c-0.3,0-0.6,0-0.8,0c1.5,1,3.3,1.6,5.3,1.6c6.3,0,9.8-5.5,9.8-10.3c0-0.2,0-0.3,0-0.5
						c0.7-0.5,1.3-1.1,1.7-1.9C31.3,18.6,30.7,18.8,30,18.9z"/>
				</g>
			</g>
		</g>
	</g>
</g>
</svg>
