<svg id="NEXBIT" xmlns="http://www.w3.org/2000/svg" xmlns:xlink="http://www.w3.org/1999/xlink" viewBox="0 0 684.7 705"><defs><linearGradient id="New_Gradient_Swatch_8" x1="157.65" y1="400.82" x2="368.76" y2="400.82" gradientUnits="userSpaceOnUse"><stop offset="0" stop-color="#fac205"/><stop offset="0.5" stop-color="#ffc905"/><stop offset="0.85" stop-color="#eeac04"/><stop offset="1" stop-color="#ed9b07"/></linearGradient><linearGradient id="New_Gradient_Swatch_8-2" x1="380.9" y1="576.63" x2="493.43" y2="576.63" xlink:href="#New_Gradient_Swatch_8"/><linearGradient id="New_Gradient_Swatch_7" x1="506.49" y1="576.63" x2="619.02" y2="576.63" gradientUnits="userSpaceOnUse"><stop offset="0" stop-color="#ed9b07"/><stop offset="0.15" stop-color="#eeac04"/><stop offset="0.5" stop-color="#ffc905"/><stop offset="1" stop-color="#fac205"/></linearGradient><linearGradient id="New_Gradient_Swatch_7-2" x1="631.51" y1="400.82" x2="842.35" y2="400.82" xlink:href="#New_Gradient_Swatch_7"/></defs><title>NBC Logo without bg</title><path id="LEAR" d="M162.19,172.76l94.6,165.94a15.2,15.2,0,0,1,2,7.51l.37,213.25a15.19,15.19,0,0,0,4.44,10.71l76.7,77c9.57,9.61,26,2.81,26-10.76q-.18-159.25-.37-318.51a15.18,15.18,0,0,0-2-7.53L292,184.71a15.24,15.24,0,0,0-9.35-7.17l-103.41-27A15.21,15.21,0,0,0,162.19,172.76Z" transform="translate(-157.65 -147.5)" fill="#ffb404" stroke-miterlimit="10" stroke-width="5" stroke="url(#New_Gradient_Swatch_8)"/><path id="LEYE" d="M383.4,318.58V754.3a11.86,11.86,0,0,0,3.47,8.38l83.83,83.83a11.85,11.85,0,0,0,20.23-8.39v-523a11.85,11.85,0,0,0-11.85-11.85H398.72A15.32,15.32,0,0,0,383.4,318.58Z" transform="translate(-157.65 -147.5)" fill="#ffb404" stroke-miterlimit="10" stroke-width="5" stroke="url(#New_Gradient_Swatch_8-2)"/><path id="REYE" d="M616.52,318.58V754.3a11.86,11.86,0,0,1-3.47,8.38l-83.83,83.83A11.85,11.85,0,0,1,509,838.12v-523a11.85,11.85,0,0,1,11.85-11.85H601.2A15.32,15.32,0,0,1,616.52,318.58Z" transform="translate(-157.65 -147.5)" fill="#ffb404" stroke-miterlimit="10" stroke-width="5" stroke="url(#New_Gradient_Swatch_7)"/><path id="REAR" d="M837.81,172.76,743.34,338.7a15.2,15.2,0,0,0-2,7.51L741,559.46a15.22,15.22,0,0,1-4.43,10.71l-76.6,77c-9.56,9.61-26,2.81-25.94-10.76q.18-159.25.37-318.51a15.18,15.18,0,0,1,2-7.53l71.78-125.64a15.24,15.24,0,0,1,9.35-7.17l103.27-27C833.78,147.12,844.47,161.07,837.81,172.76Z" transform="translate(-157.65 -147.5)" fill="#ffb404" stroke-miterlimit="10" stroke-width="5" stroke="url(#New_Gradient_Swatch_7-2)"/></svg>