<svg id="NEXBIT" xmlns="http://www.w3.org/2000/svg" viewBox="0 0 891.79 927.44"><title>NBC</title><path d="M57.67,78.08,183,297.93a20.17,20.17,0,0,1,2.65,9.94l.48,282.55A20.18,20.18,0,0,0,192,604.61l101.62,102c12.69,12.74,34.44,3.74,34.42-14.24q-.24-211-.49-422a20.09,20.09,0,0,0-2.66-10L229.67,93.9a20.14,20.14,0,0,0-12.39-9.49l-137-35.8C63,44.1,48.84,62.58,57.67,78.08Z" transform="translate(-54.97 -47.92)" fill="#ffb404"/><path d="M347,271.28V848.56a15.67,15.67,0,0,0,4.6,11.1L462.62,970.73c9.89,9.89,26.81,2.88,26.81-11.11V266.68A15.7,15.7,0,0,0,473.72,251H367.26A20.3,20.3,0,0,0,347,271.28Z" transform="translate(-54.97 -47.92)" fill="#ffb404"/><path d="M653.34,271.28V848.56a15.67,15.67,0,0,1-4.6,11.1L537.68,970.73c-9.89,9.89-26.81,2.88-26.81-11.11V266.68a15.7,15.7,0,0,1,15.7-15.7H633A20.3,20.3,0,0,1,653.34,271.28Z" transform="translate(-54.97 -47.92)" fill="#ffb404"/><path d="M944.06,78.08,818.9,297.93a20.06,20.06,0,0,0-2.64,9.94l-.49,282.55a20.17,20.17,0,0,1-5.87,14.19l-101.48,102c-12.68,12.74-34.4,3.74-34.38-14.24q.26-211,.49-422a20.2,20.2,0,0,1,2.66-10L772.29,93.9a20.15,20.15,0,0,1,12.38-9.49l136.82-35.8C938.73,44.1,952.88,62.58,944.06,78.08Z" transform="translate(-54.97 -47.92)" fill="#ffb404"/></svg>