<svg id="NEXBIT" xmlns="http://www.w3.org/2000/svg" viewBox="0 0 5264.97 927.44"><title>NEXBIT Coin</title><path d="M120.22,66.44,245.55,286.29a20.17,20.17,0,0,1,2.64,9.95l.49,282.54A20.17,20.17,0,0,0,254.55,593L356.18,695c12.68,12.74,34.43,3.74,34.41-14.24q-.24-211-.49-422a20.1,20.1,0,0,0-2.66-10L292.22,82.26a20.11,20.11,0,0,0-12.4-9.48L142.82,37C125.56,32.46,111.39,51,120.22,66.44Z" transform="translate(-117.51 -36.28)" fill="#ffb404"/><path d="M409.5,259.64V836.92A15.74,15.74,0,0,0,414.1,848L525.16,959.09C535.06,969,552,962,552,948V255a15.7,15.7,0,0,0-15.7-15.7H429.8A20.3,20.3,0,0,0,409.5,259.64Z" transform="translate(-117.51 -36.28)" fill="#ffb404"/><path d="M715.88,259.64V836.92A15.73,15.73,0,0,1,711.29,848L600.22,959.09a15.7,15.7,0,0,1-26.8-11.1V255a15.7,15.7,0,0,1,15.7-15.7H695.59A20.29,20.29,0,0,1,715.88,259.64Z" transform="translate(-117.51 -36.28)" fill="#ffb404"/><path d="M1006.6,66.44,881.44,286.29a20.28,20.28,0,0,0-2.64,9.95l-.49,282.54A20.12,20.12,0,0,1,872.45,593L771,695c-12.67,12.74-34.39,3.74-34.37-14.24q.24-211,.49-422a20.2,20.2,0,0,1,2.65-10L834.84,82.26a20.05,20.05,0,0,1,12.37-9.48L984,37C1001.27,32.46,1015.43,51,1006.6,66.44Z" transform="translate(-117.51 -36.28)" fill="#ffb404"/><g id="NEXBIT_Coin" data-name="NEXBIT Coin"><path id="N" d="M1111.55,793.6V208h132.8l203.2,343.2V208h131.2V793.6h-131.2l-204-337.6V793.6Z" transform="translate(-117.51 -36.28)" fill="#ffb404"/><path id="E" d="M1649.94,672V336q0-86.4,64.8-115.2,30.39-12.8,72-12.8,189.6,3.21,259.2,12.8V330.4h-223.2q-29.61,0-36.8,14.4-4.8,11.2-4.8,30.4v66.4l227.2,8V558.4l-227.2,7.2V632q0,30.4,16.8,36.8,12,4.8,32.8,4.8h215.2V782.4q-57.6,8-231.2,12.8l-20,.8h-15.2q-8.8,0-22.8-1.2t-35.2-8.4q-21.21-7.2-36-20t-25.2-37.2Q1649.93,704.81,1649.94,672Z" transform="translate(-117.51 -36.28)" fill="#ffb404"/><path id="X" d="M2087.53,208h145.6l98.4,183.2,100-183.2h145.6l-177.6,293.6,172.8,292h-144.8l-96-179.2-96.8,179.2h-144.8l173.6-292Z" transform="translate(-117.51 -36.28)" fill="#ffb404"/><path id="B" d="M2633.12,793.6V208h247.2q87.19,0,128.4,42.8t41.2,115.6a159.71,159.71,0,0,1-21.2,80.4q-21.21,37.2-61.2,42.8,56.79,9.6,81.6,67.2,12.8,28,12.8,61.6,0,89.61-43.2,132.4t-136,42.8Zm131.2-360h107.2q24,0,36.8-14.8t12.8-43.2q0-28.38-14.4-41.2t-35.2-12.8h-107.2Zm0,246.4h112.8q53.6,0,53.6-68,0-31.2-12.8-51.2t-40.8-20h-112.8Z" transform="translate(-117.51 -36.28)" fill="#ffb404"/><path id="I" d="M3118.72,793.6V208h131.2V793.6Z" transform="translate(-117.51 -36.28)" fill="#ffb404"/><path id="T" d="M3301.91,327.2V208h442.4V327.2h-157.6V793.6h-131.2V327.2Z" transform="translate(-117.51 -36.28)" fill="#ffb404"/><path id="C" d="M3912.91,499.2q0-73.59,9.2-126t31.6-92.4q43.2-79.2,160-79.2,71.19,0,114,6t93.2,22.8V332.8c-7.48-.53-14.4-1.2-20.8-2s-13.74-1.6-22-2.4-17.6-1.72-28-2.8-20.94-1.86-31.6-2.4q-36-2.4-61.6-2.4t-36.8,1.2a146.3,146.3,0,0,0-24,4.8q-12.81,3.6-20,11.2t-14,20.4q-6.81,12.81-10.8,32-7.2,44-7.2,128t21.2,122.4q21.18,38.4,85.2,38.4,74.4,0,146.4-4.8l24-2.4V774.4q-67.2,24-184.8,24h-22.4q-109.62-1.62-156-79.2Q3912.89,644.8,3912.91,499.2Z" transform="translate(-117.51 -36.28)" fill="#ffb404"/><path id="O" d="M4357.7,587.2q0-87.19,19.2-135.2t60.4-67.6q41.19-19.59,116.4-19.6,110.4,0,153.2,48t42.8,170.8q0,122.82-42,168.4t-152.8,45.6q-110.81,0-154-47.6T4357.7,587.2Zm132-56.8q-.81,28-.8,67.2t6,62q6,22.8,18.4,29.6t35.6,6.8q23.19,0,32.8-1.6a49.12,49.12,0,0,0,18-6.8q8.4-5.19,11.6-18,7.2-26.4,7.2-71.6t-1.6-64.8a272.78,272.78,0,0,0-4.8-34.4q-3.21-14.79-11.2-21.2-22.41-17.58-72-10.4-20.81,3.21-29.6,19.2T4489.7,530.4Z" transform="translate(-117.51 -36.28)" fill="#ffb404"/><path id="I-2" data-name="I" d="M4803.29,308V227.2q0-20.79,19.2-20.8h99.2q18.41,0,18.4,20.8V308q0,18.4-18.4,18.4h-99.2c-5.87,0-10.53-1.72-14-5.2A17.85,17.85,0,0,1,4803.29,308Zm2.4,485.6V368.8h131.2V793.6Z" transform="translate(-117.51 -36.28)" fill="#ffb404"/><path id="N-2" data-name="N" d="M4998.49,793.6V368.8h108l23.2,44q22.38-17.58,34.4-26t37.2-16.8q25.2-8.4,59.2-8.4t59.6,11.6q25.59,11.61,38.4,34,24,40,24,108V793.6h-131.2v-280q0-36.8-17.6-46.4-8-4.8-28.8-4.8-42.42,0-75.2,33.6V793.6Z" transform="translate(-117.51 -36.28)" fill="#ffb404"/></g></svg>