<svg id="NEXBIT" xmlns="http://www.w3.org/2000/svg" xmlns:xlink="http://www.w3.org/1999/xlink" viewBox="0 0 4481.83 932"><defs><linearGradient id="New_Gradient_Swatch_2" x1="3871.68" y1="616.3" x2="4142.18" y2="616.3" gradientUnits="userSpaceOnUse"><stop offset="0" stop-color="#9a9faf"/><stop offset="0.5" stop-color="#9499aa"/><stop offset="0.85" stop-color="#8f9199"/><stop offset="1" stop-color="#82848c"/></linearGradient><linearGradient id="New_Gradient_Swatch_2-2" x1="4172.67" y1="665.3" x2="4353.67" y2="665.3" xlink:href="#New_Gradient_Swatch_2"/><linearGradient id="New_Gradient_Swatch_2-3" x1="4366.67" y1="666.55" x2="4615.67" y2="666.55" xlink:href="#New_Gradient_Swatch_2"/><linearGradient id="New_Gradient_Swatch_1" x1="1136.17" y1="502.95" x2="1608.37" y2="502.95" gradientUnits="userSpaceOnUse"><stop offset="0" stop-color="#ed9b07"/><stop offset="0.15" stop-color="#eeac04"/><stop offset="0.5" stop-color="#ffc905"/><stop offset="1" stop-color="#fac205"/></linearGradient><linearGradient id="New_Gradient_Swatch_1-2" x1="1674.56" y1="504.15" x2="2075.56" y2="504.15" xlink:href="#New_Gradient_Swatch_1"/><linearGradient id="New_Gradient_Swatch_1-3" x1="2110.24" y1="502.95" x2="2608.68" y2="502.95" xlink:href="#New_Gradient_Swatch_1"/><linearGradient id="New_Gradient_Swatch_1-4" x1="2657.74" y1="502.95" x2="3091.54" y2="502.95" xlink:href="#New_Gradient_Swatch_1"/><linearGradient id="New_Gradient_Swatch_1-5" x1="3143.34" y1="502.95" x2="3279.54" y2="502.95" xlink:href="#New_Gradient_Swatch_1"/><linearGradient id="New_Gradient_Swatch_1-6" x1="3326.53" y1="502.95" x2="3773.93" y2="502.95" xlink:href="#New_Gradient_Swatch_1"/><linearGradient id="linear-gradient" x1="291.48" y1="481.66" x2="569.42" y2="481.66" gradientTransform="matrix(1, 0, 0, -1, -157.65, 852.5)" gradientUnits="userSpaceOnUse"><stop offset="0" stop-color="#fac205"/><stop offset="0.5" stop-color="#ffc905"/><stop offset="0.85" stop-color="#eeac04"/><stop offset="1" stop-color="#ed9b07"/></linearGradient><linearGradient id="linear-gradient-2" x1="587.07" y1="248.88" x2="734.48" y2="248.88" xlink:href="#linear-gradient"/><linearGradient id="New_Gradient_Swatch_1-7" x1="753.41" y1="248.88" x2="900.8" y2="248.88" gradientTransform="matrix(1, 0, 0, -1, -157.65, 852.5)" xlink:href="#New_Gradient_Swatch_1"/><linearGradient id="New_Gradient_Swatch_1-8" x1="918.99" y1="481.67" x2="1196.58" y2="481.67" gradientTransform="matrix(1, 0, 0, -1, -157.65, 852.5)" xlink:href="#New_Gradient_Swatch_1"/></defs><title>NEXBIT Pro</title><g id="Pro"><path d="M3873.68,799.3v-366h160q57.48,0,83,30.5,23.49,28,23.5,85,0,32.51-7.25,56.25t-17.5,36.25a70.22,70.22,0,0,1-25.75,19.5q-20,8.51-44,8.5-17.52,0-52.75-4.5t-37.25-5.5v140Zm82-201h70.5q16,0,23.75-11.25t7.75-37.25q-.51-45.49-31.5-45.5h-70.5Z" transform="translate(-133.83 -36.15)" fill="#9fa0a4" stroke-miterlimit="10" stroke-width="4" stroke="url(#New_Gradient_Swatch_2)"/><path d="M4174.67,799.3V533.8h71l11,33.5q12.49-15.49,23.25-21.75a154.39,154.39,0,0,1,16.75-8.75,79.45,79.45,0,0,1,30.25-5.5q16.74,0,24.75,3v78.5q-15-.49-38.25-.5t-36.5,5.5q-13.26,5.51-20.25,24V799.3Z" transform="translate(-133.83 -36.15)" fill="#9fa0a4" stroke-miterlimit="10" stroke-width="4" stroke="url(#New_Gradient_Swatch_2-2)"/><path d="M4368.67,670.3q0-54.49,12-84.5t37.75-42.25q25.74-12.25,72.75-12.25,69,0,95.75,30t26.75,106.75q0,76.76-26.25,105.25t-95.5,28.5q-69.27,0-96.25-29.75T4368.67,670.3Zm82.5-35.5q-.51,17.51-.5,42t3.75,38.75q3.75,14.25,11.5,18.5t22.25,4.25q14.49,0,20.5-1a30.81,30.81,0,0,0,11.25-4.25q5.25-3.25,7.25-11.25,4.5-16.5,4.5-44.75t-1-40.5a172,172,0,0,0-3-21.5q-2-9.25-7-13.25-14-11-45-6.5-13,2-18.5,12T4451.17,634.8Z" transform="translate(-133.83 -36.15)" fill="#9fa0a4" stroke-miterlimit="10" stroke-width="4" stroke="url(#New_Gradient_Swatch_2-3)"/></g><g id="NEXBIT-2" data-name="NEXBIT"><path id="N" d="M1138.67,795.75V210.15h132.8l203.2,343.2V210.15h131.2v585.6h-131.2l-204-337.6v337.6Z" transform="translate(-133.83 -36.15)" fill="#ffb404" stroke-miterlimit="10" stroke-width="5" stroke="url(#New_Gradient_Swatch_1)"/><path id="E" d="M1677.06,674.15v-336q0-86.4,64.8-115.2,30.39-12.8,72-12.8,189.6,3.21,259.2,12.8v109.6h-223.2q-29.61,0-36.8,14.4-4.8,11.21-4.8,30.4v66.4l227.2,8v108.8l-227.2,7.2v66.4q0,30.4,16.8,36.8,12,4.8,32.8,4.8h215.2v108.8q-57.6,8-231.2,12.8l-20,.8h-15.2q-8.81,0-22.8-1.2t-35.2-8.4q-21.21-7.2-36-20t-25.2-37.2Q1677.05,707,1677.06,674.15Z" transform="translate(-133.83 -36.15)" fill="#ffb404" stroke-miterlimit="10" stroke-width="5" stroke="url(#New_Gradient_Swatch_1-2)"/><path id="X" d="M2114.65,210.15h145.6l98.4,183.2,100-183.2h145.6l-177.6,293.6,172.8,292h-144.8l-96-179.2-96.8,179.2h-144.8l173.6-292Z" transform="translate(-133.83 -36.15)" fill="#ffb404" stroke-miterlimit="10" stroke-width="5" stroke="url(#New_Gradient_Swatch_1-3)"/><path id="B" d="M2660.24,795.75V210.15h247.2q87.2,0,128.4,42.8t41.2,115.6a159.71,159.71,0,0,1-21.2,80.4q-21.21,37.2-61.2,42.8,56.79,9.6,81.6,67.2,12.8,28,12.8,61.6,0,89.61-43.2,132.4t-136,42.8Zm131.2-360h107.2q24,0,36.8-14.8t12.8-43.2q0-28.39-14.4-41.2t-35.2-12.8h-107.2Zm0,246.4h112.8q53.6,0,53.6-68,0-31.2-12.8-51.2t-40.8-20h-112.8Z" transform="translate(-133.83 -36.15)" fill="#ffb404" stroke-miterlimit="10" stroke-width="5" stroke="url(#New_Gradient_Swatch_1-4)"/><path id="I" d="M3145.84,795.75V210.15H3277v585.6Z" transform="translate(-133.83 -36.15)" fill="#ffb404" stroke-miterlimit="10" stroke-width="5" stroke="url(#New_Gradient_Swatch_1-5)"/><path id="T" d="M3329,329.35V210.15h442.4v119.2h-157.6v466.4h-131.2V329.35Z" transform="translate(-133.83 -36.15)" fill="#ffb404" stroke-miterlimit="10" stroke-width="5" stroke="url(#New_Gradient_Swatch_1-6)"/></g><path id="LEAR" d="M139,68.75,264.24,288.52a20.07,20.07,0,0,1,2.64,10l.49,282.42a20.14,20.14,0,0,0,5.88,14.18l101.58,102c12.68,12.73,34.44,3.72,34.44-14.25Q409,471.9,408.78,261a20.18,20.18,0,0,0-2.65-10L310.87,84.58a20.19,20.19,0,0,0-12.39-9.5l-137-35.75A20.14,20.14,0,0,0,139,68.75Z" transform="translate(-133.83 -36.15)" fill="#ffb404" stroke-miterlimit="10" stroke-width="5" stroke="url(#linear-gradient)"/><path id="LEYE" d="M431.92,261.87V838.93a15.72,15.72,0,0,0,4.59,11.1l111,111a15.7,15.7,0,0,0,26.8-11.11V257.29a15.69,15.69,0,0,0-15.7-15.69H452.2A20.27,20.27,0,0,0,431.92,261.87Z" transform="translate(-133.83 -36.15)" fill="#ffb404" stroke-miterlimit="10" stroke-width="5" stroke="url(#linear-gradient-2)"/><path id="REYE" d="M740.65,261.87V838.93a15.72,15.72,0,0,1-4.59,11.1l-111,111a15.69,15.69,0,0,1-26.78-11.11V257.29A15.68,15.68,0,0,1,614,241.6H720.36A20.28,20.28,0,0,1,740.65,261.87Z" transform="translate(-133.83 -36.15)" fill="#ffb404" stroke-miterlimit="10" stroke-width="5" stroke="url(#New_Gradient_Swatch_1-7)"/><path id="REAR" d="M1033.72,68.75,908.61,288.52a20.18,20.18,0,0,0-2.65,10l-.45,282.42a20.15,20.15,0,0,1-5.87,14.18l-101.44,102c-12.66,12.73-34.44,3.72-34.36-14.25q.24-210.9.49-421.83A20.18,20.18,0,0,1,767,251L862.05,84.61a20.15,20.15,0,0,1,12.38-9.5L1011.2,39.35C1028.39,34.8,1042.54,53.27,1033.72,68.75Z" transform="translate(-133.83 -36.15)" fill="#ffb404" stroke-miterlimit="10" stroke-width="5" stroke="url(#New_Gradient_Swatch_1-8)"/></svg>