<?xml version="1.0" encoding="utf-8"?>
<!-- Generator: Adobe Illustrator 23.0.0, SVG Export Plug-In . SVG Version: 6.00 Build 0)  -->
<svg version="1.1" id="Layer_1" xmlns="http://www.w3.org/2000/svg" xmlns:xlink="http://www.w3.org/1999/xlink" x="0px" y="0px"
	 width="64px" height="64px" viewBox="0 0 64 64" style="enable-background:new 0 0 64 64;" xml:space="preserve">
<style type="text/css">
	.st0{fill:url(#SVGID_1_);}
	.st1{fill:url(#SVGID_2_);}
	.st2{fill:#FFFFFF;}
</style>
<linearGradient id="SVGID_1_" gradientUnits="userSpaceOnUse" x1="49.3741" y1="62.2327" x2="14.4644" y2="1.7673">
	<stop  offset="0" style="stop-color:#373DFF"/>
	<stop  offset="1" style="stop-color:#255DFF"/>
</linearGradient>
<path class="st0" d="M39.9,64h-16c-13.2,0-24-10.8-24-24V24c0-13.2,10.8-24,24-24h16c13.2,0,24,10.8,24,24v16
	C63.9,53.2,53.1,64,39.9,64z"/>
<linearGradient id="SVGID_2_" gradientUnits="userSpaceOnUse" x1="14.5958" y1="1015.8548" x2="49.5054" y2="1076.3202" gradientTransform="matrix(1 0 0 1 0 -1014)">
	<stop  offset="0" style="stop-color:#FFFFFF;stop-opacity:0.3"/>
	<stop  offset="1" style="stop-color:#FFFFFF;stop-opacity:0"/>
</linearGradient>
<path class="st1" d="M40.1,64.1h-16c-13.2,0-24-10.8-24-24v-16c0-13.2,10.8-24,24-24h16c13.2,0,24,10.8,24,24v16
	C64.1,53.3,53.3,64.1,40.1,64.1z"/>
<g id="surface1">
	<path class="st2" d="M49.8,22.4L49.8,22.4c0-0.4,0-0.8,0-1.3c0-2.4-1.8-4.2-4.2-4.4c-4.8-0.3-8.6-1.8-11.8-5l0,0
		c-1-0.9-2.6-0.9-3.6,0l0,0c-3.2,3.1-6.9,4.7-11.8,5c-2.4,0.2-4.1,2-4.2,4.4c0,0.5,0,0.9,0,1.3v0.1c-0.1,5-0.3,11.1,1.8,16.6
		c1.1,3,2.9,5.7,5,7.9c2.5,2.5,5.9,4.4,9.9,5.9c0.2,0.1,0.3,0.1,0.4,0.1c0.2,0,0.4,0.1,0.6,0.1c0.2,0,0.4,0,0.6-0.1
		c0.2,0,0.3-0.1,0.4-0.1c4-1.4,7.4-3.4,9.9-5.9c2.3-2.2,3.9-4.9,5-7.9C50.1,33.4,49.9,27.3,49.8,22.4z"/>
</g>
</svg>
