<?xml version="1.0" encoding="utf-8"?>
<!-- Generator: Adobe Illustrator 23.0.0, SVG Export Plug-In . SVG Version: 6.00 Build 0)  -->
<svg version="1.1" id="Layer_1" xmlns="http://www.w3.org/2000/svg" xmlns:xlink="http://www.w3.org/1999/xlink" x="0px" y="0px"
	 width="64px" height="64px" viewBox="0 0 64 64" style="enable-background:new 0 0 64 64;" xml:space="preserve">
<style type="text/css">
	.st0{fill:#FF400D;}
	.st1{fill:url(#SVGID_1_);}
	.st2{fill:#FFFFFF;}
</style>
<path class="st0" d="M40,64H24C10.8,64,0,53.2,0,40V24C0,10.8,10.8,0,24,0h16c13.2,0,24,10.8,24,24v16C64,53.2,53.2,64,40,64z"/>
<linearGradient id="SVGID_1_" gradientUnits="userSpaceOnUse" x1="14.5452" y1="64.2327" x2="49.4548" y2="3.7673" gradientTransform="matrix(1 0 0 -1 0 66)">
	<stop  offset="0" style="stop-color:#FFFFFF;stop-opacity:0.5"/>
	<stop  offset="1" style="stop-color:#FFFFFF;stop-opacity:0"/>
</linearGradient>
<path class="st1" d="M40,64H24C10.8,64,0,53.2,0,40V24C0,10.8,10.8,0,24,0h16c13.2,0,24,10.8,24,24v16C64,53.2,53.2,64,40,64z"/>
<g>
	<g>
		<polygon class="st2" points="43.4,18.1 43.5,18.5 42.9,18.6 42.9,19.4 43.5,19.4 44.4,19.3 44.9,18.8 44.4,18.6 44.1,18.3 
			43.7,17.6 43.5,16.7 42.8,16.9 42.6,17.2 42.6,17.5 42.9,17.8 		"/>
		<polygon class="st2" points="42.8,18.4 42.8,17.9 42.4,17.7 41.8,17.9 41.3,18.6 41.3,19.1 41.9,19.1 		"/>
		<path class="st2" d="M30.1,20.5L30,20.9h-0.7v0.3h0.2c0,0,0,0.1,0,0.2l0.4,0l0.3-0.2l0.1-0.3l0.3,0l0.1-0.3l-0.3-0.1L30.1,20.5z"
			/>
		<polygon class="st2" points="28.4,21.1 28.4,21.5 28.9,21.4 28.9,21.1 28.6,20.9 		"/>
		<path class="st2" d="M57,31.7c0-0.7,0-1.5-0.1-2.2c-0.2-2.4-0.8-4.7-1.7-6.8c-0.1-0.2-0.1-0.3-0.2-0.5c-1.1-2.7-2.7-5.1-4.7-7.2
			c-0.1-0.1-0.3-0.3-0.4-0.4c-0.4-0.4-0.7-0.8-1.1-1.1C44.4,9.5,38.5,7,32,7c-6.5,0-12.5,2.5-16.9,6.6c-1,1-2,2-2.9,3.1
			C8.9,21,7,26.3,7,32c0,13.8,11.2,25,25,25c9.7,0,18.1-5.6,22.3-13.6c0.9-1.7,1.6-3.6,2-5.5c0.1-0.5,0.2-1,0.3-1.5
			c0.3-1.4,0.4-2.9,0.4-4.4C57,31.9,57,31.8,57,31.7z M52.3,21.7l0.1-0.2c0.2,0.4,0.4,0.7,0.5,1.1l-0.2,0l-0.4,0.1V21.7z M48.7,17.4
			l0-1.1c0.4,0.4,0.8,0.8,1.1,1.3l-0.5,0.7l-1.6,0l-0.1-0.3L48.7,17.4z M18.5,14.6L18.5,14.6l0.5,0l0-0.2h0.8v0.4l-0.2,0.3h-1.1
			L18.5,14.6L18.5,14.6z M19.3,15.7c0,0,0.5-0.1,0.5-0.1c0,0,0,0.5,0,0.5l-1.1,0.1L18.5,16L19.3,15.7z M53.9,25.7h-1.8l-1.1-0.8
			l-1.2,0.1v0.7h-0.4L49,25.4l-2-0.5v-1.3l-2.6,0.2l-0.8,0.4h-1l-0.5-0.1l-1.2,0.7v1.3l-2.5,1.8l0.2,0.8H39l-0.1,0.7l-0.4,0.1l0,1.9
			l2.2,2.5h1l0.1-0.2h1.7l0.5-0.5h1l0.5,0.5l1.4,0.2L46.7,36l1.6,2.8l-0.8,1.6l0.1,0.8l0.7,0.7v1.8l0.9,1.2v1.5h0.8
			c-4.2,5.2-10.6,8.5-17.8,8.5C19.3,54.9,9.1,44.7,9.1,32c0-3.2,0.7-6.2,1.8-9v-0.7l0.8-1c0.3-0.5,0.6-1.1,0.9-1.6l0,0.4l-1,1.2
			c-0.3,0.6-0.6,1.1-0.8,1.7v1.3l1,0.5v1.8l0.9,1.6l0.7,0.1l0.1-0.5l-0.9-1.4l-0.2-1.3h0.5l0.2,1.4l1.3,1.8l-0.3,0.6l0.8,1.2l2,0.5
			v-0.3l0.8,0.1L17.8,31l0.6,0.1l1,0.3l1.4,1.6l1.8,0.1l0.2,1.4l-1.2,0.8l-0.1,1.3l-0.2,0.8l1.7,2.2l0.1,0.7c0,0,0.6,0.2,0.7,0.2
			c0.1,0,1.4,1,1.4,1v3.9l0.5,0.1l-0.3,1.8l0.8,1.1L26,50.2l1.1,1.9l1.4,1.2l1.4,0l0.1-0.4l-1-0.8l0.1-0.4l0.2-0.5l0-0.5l-0.7,0
			l-0.3-0.4l0.6-0.5l0.1-0.4l-0.6-0.2l0-0.4l0.9-0.1l1.4-0.7l0.5-0.8l1.4-1.8l-0.3-1.4l0.4-0.8l1.3,0l0.9-0.7l0.3-2.8l1-1.2l0.2-0.8
			l-0.9-0.3l-0.6-1l-2,0L31,35.6l-0.1-1.1l-0.5-0.9l-1.4,0l-0.8-1.3l-0.7-0.4l0,0.4L26,32.3l-0.5-0.7l-1.4-0.3l-1.2,1.3l-1.8-0.3
			L21,30.3L19.6,30l0.5-1L20,28.4l-1.8,1.2l-1.1-0.1l-0.4-0.9l0.2-0.9l0.6-1.1l1.4-0.7l2.7,0l0,0.8l1,0.5l-0.1-1.4l0.7-0.7l1.4-0.9
			l0.1-0.7l1.4-1.5l1.5-0.8l-0.1-0.1l1-1l0.4,0.1l0.2,0.2l0.4-0.4l0.1,0l-0.4-0.1l-0.4-0.1v-0.4l0.2-0.2h0.5l0.2,0.1l0.2,0.4l0.2,0
			v0l0.1,0l0.7-0.1l0.1-0.3l0.4,0.1v0.4l-0.4,0.3h0l0.1,0.4l1.3,0.4c0,0,0,0,0,0l0.3,0l0-0.6l-1-0.5l-0.1-0.3l0.8-0.3l0-0.8
			l-0.9-0.5l-0.1-1.4L30.4,17H30l0.1-1l-1.6-0.4l-0.7,0.5v1.6L26.5,18l-0.5,1l-0.5,0.1v-1.3l-1.1-0.2l-0.6-0.4l-0.2-0.8l2-1.2l1-0.3
			l0.1,0.7l0.6,0l0-0.3l0.6-0.1l0-0.1L27.7,15l-0.1-0.4l0.7-0.1l0.4-0.5l0,0l0,0l0.1-0.1l1.5-0.2l0.7,0.6l-1.7,0.9l2.2,0.5l0.3-0.7
			h1l0.3-0.6l-0.7-0.2v-0.8l-2.2-1l-1.5,0.2L28,13l0.1,1.1L27.2,14l-0.1-0.6l0.8-0.8l-1.5-0.1l-0.4,0.1l-0.2,0.5l0.6,0.1l-0.1,0.6
			l-1,0.1l-0.2,0.4l-1.4,0c0,0,0-0.8-0.1-0.8s1.1,0,1.1,0l0.8-0.8l-0.5-0.2l-0.6,0.6l-1-0.1l-0.6-0.8h-1.3l-1.4,1h1.2l0.1,0.4
			l-0.3,0.3l1.4,0l0.2,0.5l-1.5-0.1l-0.1-0.4l-1-0.2l-0.5-0.3l-1.2,0C22.3,10.7,27,9.1,32,9.1c5.8,0,11.1,2.2,15.1,5.7l-0.3,0.5
			l-1.1,0.4l-0.4,0.5l0.1,0.6l0.5,0.1l0.3,0.8l0.9-0.4l0.2,1.1h-0.3l-0.8-0.1l-0.9,0.1l-0.8,1.2l-1.2,0.2l-0.2,1l0.5,0.1l-0.1,0.7
			l-1.2-0.2l-1.1,0.2l-0.2,0.6l0.2,1.3l0.6,0.3l1.1,0l0.7-0.1l0.2-0.6l1.1-1.5l0.7,0.2l0.7-0.7l0.1,0.5l1.8,1.2l-0.2,0.3l-0.8,0
			l0.3,0.4l0.5,0.1l0.6-0.2l0-0.7l0.3-0.1L49,22.3l-1.2-0.7l-0.3-0.9h1l0.3,0.3l0.9,0.7l0,0.9l0.9,0.9l0.3-1.3l0.6-0.3l0.1,1.1
			l0.6,0.7l1.2,0c0.2,0.6,0.4,1.2,0.6,1.8L53.9,25.7z M20.6,18.4l0.6-0.3l0.5,0.1l-0.2,0.7L21,19.1L20.6,18.4z M23.8,20.1v0.5h-1.4
			l-0.5-0.1l0.1-0.3l0.7-0.3h0.9v0.3H23.8z M24.5,20.7v0.5l-0.3,0.2l-0.4,0.1c0,0,0-0.7,0-0.8H24.5z M24.1,20.5V20l0.5,0.4
			L24.1,20.5z M24.3,21.6v0.4L24,22.4h-0.7l0.1-0.5l0.3,0l0.1-0.2L24.3,21.6z M22.5,20.7h0.8l-1,1.4l-0.4-0.2l0.1-0.6L22.5,20.7z
			 M25.6,21.5v0.4h-0.7l-0.2-0.3v-0.4h0.1L25.6,21.5z M24.9,20.9l0.2-0.2l0.4,0.2l-0.3,0.2L24.9,20.9z M54.3,26.8L54.3,26.8
			c0.1,0,0.1,0.2,0.2,0.3L54.3,26.8z"/>
		<path class="st2" d="M10.9,22.3V23c0.2-0.6,0.5-1.2,0.8-1.7L10.9,22.3z"/>
	</g>
</g>
</svg>
