<?xml version="1.0" encoding="utf-8"?>
<!-- Generator: Adobe Illustrator 23.0.0, SVG Export Plug-In . SVG Version: 6.00 Build 0)  -->
<svg version="1.1" id="Layer_1" xmlns="http://www.w3.org/2000/svg" xmlns:xlink="http://www.w3.org/1999/xlink" x="0px" y="0px"
	 width="64px" height="64px" viewBox="0 0 64 64" style="enable-background:new 0 0 64 64;" xml:space="preserve">
<style type="text/css">
	.st0{fill:url(#SVGID_1_);}
	.st1{fill:url(#SVGID_2_);}
	.st2{fill:#FFFFFF;}
</style>
<linearGradient id="SVGID_1_" gradientUnits="userSpaceOnUse" x1="49.4412" y1="62.2341" x2="14.5588" y2="1.8159">
	<stop  offset="0" style="stop-color:#373DFF"/>
	<stop  offset="1" style="stop-color:#255DFF"/>
</linearGradient>
<path class="st0" d="M40,64H24C10.8,64,0,53.2,0,40V24C0,10.8,10.8,0,24,0h16c13.2,0,24,10.8,24,24v16C64,53.2,53.2,64,40,64z"/>
<linearGradient id="SVGID_2_" gradientUnits="userSpaceOnUse" x1="14.5588" y1="1015.7659" x2="49.4412" y2="1076.1841" gradientTransform="matrix(1 0 0 1 0 -1014)">
	<stop  offset="0" style="stop-color:#FFFFFF;stop-opacity:0.3"/>
	<stop  offset="1" style="stop-color:#FFFFFF;stop-opacity:0"/>
</linearGradient>
<path class="st1" d="M40,64H24C10.8,64,0,53.2,0,40V24C0,10.8,10.8,0,24,0h16c13.2,0,24,10.8,24,24v16C64,53.2,53.2,64,40,64z"/>
<path class="st2" d="M25.2,29.5c1.8,0,3.3-1.8,3.3-4s-1.4-4-3.3-4s-3.3,1.8-3.3,4C21.9,27.7,23.3,29.5,25.2,29.5z"/>
<path class="st2" d="M13.2,39.2L13.2,39.2c-0.1,2.1,1,3.9,2.9,4.8l0,0c1.4,0.7,2.6,1.8,3.4,3.3l0,0c1,1.8,3,3,5.1,2.9l0,0
	c0.1,0,0.3,0,0.4,0c1.4,0,2.9,0.4,4.2,1.2c1.8,1.2,4.2,1.2,5.9,0c1.3-0.9,3-1.3,4.6-1.2l0,0c2.1,0.1,4-0.9,5.1-2.9l0,0
	c0.8-1.4,2-2.6,3.4-3.3l0,0c1.8-0.9,3-2.9,2.9-4.8l0,0c-0.1-1.6,0.4-3.1,1.3-4.4c1.2-1.7,1.2-3.9,0-5.6c-0.9-1.3-1.3-2.9-1.3-4.4
	l0,0c0.1-2-1-3.9-2.9-4.8l0,0c-1.4-0.7-2.6-1.8-3.4-3.3l0,0c-0.9-1.8-3-2.9-5.1-2.7l0,0c-1.6,0.1-3.3-0.4-4.6-1.2
	c-1.8-1.2-4.2-1.2-5.9,0c-1.3,0.9-3,1.3-4.6,1.2l0,0c-2.1-0.1-4.2,1-5.1,2.9l0,0c-0.8,1.4-2,2.6-3.4,3.3l0,0c-1.8,0.7-3,2.5-2.9,4.6
	l0,0c0.1,1.6-0.4,3.1-1.3,4.4c-1.2,1.7-1.2,3.9,0,5.6C12.8,35.9,13.3,37.5,13.2,39.2z M44.6,38.3c0,3.5-2.5,6.4-5.5,6.4
	c-3,0-5.5-2.9-5.5-6.4s2.5-6.4,5.5-6.4C42.1,32,44.6,34.9,44.6,38.3L44.6,38.3z M38.8,19.1c0.4-0.5,1-0.7,1.6-0.4
	c0.5,0.4,0.7,1,0.4,1.6L25.4,44.6c-0.4,0.5-1,0.7-1.6,0.4c-0.5-0.4-0.7-1-0.4-1.6L38.8,19.1z M25.2,19.1c3,0,5.5,2.9,5.5,6.4
	s-2.5,6.4-5.5,6.4s-5.5-2.9-5.5-6.4S22.2,19.1,25.2,19.1z"/>
<path class="st2" d="M35.8,38.3c0,2.2,1.4,4,3.3,4s3.3-1.8,3.3-4c0-2.2-1.4-4-3.3-4C37.3,34.2,35.8,36,35.8,38.3z"/>
</svg>
