<?xml version="1.0" encoding="utf-8"?>
<!-- Generator: Adobe Illustrator 23.0.0, SVG Export Plug-In . SVG Version: 6.00 Build 0)  -->
<svg version="1.1" id="Layer_1" xmlns="http://www.w3.org/2000/svg" xmlns:xlink="http://www.w3.org/1999/xlink" x="0px" y="0px"
	 width="64px" height="64px" viewBox="0 0 64 64" style="enable-background:new 0 0 64 64;" xml:space="preserve">
<style type="text/css">
	.st0{fill:url(#SVGID_1_);}
	.st1{fill:url(#SVGID_2_);}
	.st2{fill:#FFFFFF;}
</style>
<linearGradient id="SVGID_1_" gradientUnits="userSpaceOnUse" x1="49.4048" y1="62.2827" x2="14.4952" y2="1.8173">
	<stop  offset="0" style="stop-color:#373DFF"/>
	<stop  offset="1" style="stop-color:#255DFF"/>
</linearGradient>
<path class="st0" d="M39.9,64.1h-16c-13.2,0-24-10.8-24-24V24c0-13.2,10.8-24,24-24h16c13.2,0,24,10.8,24,24v16
	C63.9,53.3,53.2,64.1,39.9,64.1z"/>
<linearGradient id="SVGID_2_" gradientUnits="userSpaceOnUse" x1="14.4952" y1="1015.7673" x2="49.4048" y2="1076.2327" gradientTransform="matrix(1 0 0 1 0 -1014)">
	<stop  offset="0" style="stop-color:#FFFFFF;stop-opacity:0.3"/>
	<stop  offset="1" style="stop-color:#FFFFFF;stop-opacity:0"/>
</linearGradient>
<path class="st1" d="M39.9,64h-16c-13.2,0-24-10.8-24-24V24c0-13.2,10.8-24,24-24h16c13.2,0,24,10.8,24,24v16
	C63.9,53.2,53.2,64,39.9,64z"/>
<g>
	<g>
		<g>
			<path class="st2" d="M43.2,39.8c-3-2.5-6.3-4.2-7.1-4.5c-0.1,0-0.1-0.1-0.1-0.2v-4.8c0.6-0.4,1-1.1,1-1.8v-5c0-2.5-2-4.5-4.5-4.5
				H32h-0.6c-2.5,0-4.5,2-4.5,4.5v5c0,0.7,0.4,1.5,1,1.8v4.8c0,0.1-0.1,0.2-0.1,0.2c-0.6,0.4-4,2-7.1,4.5c-0.6,0.5-0.9,1.1-0.9,1.8
				v3.4H32h12.1v-3.4C44.1,40.9,43.8,40.2,43.2,39.8z"/>
		</g>
		<g>
			<path class="st2" d="M54.3,36.4c-2.6-2.1-5.3-3.5-5.9-3.8c-0.1,0-0.1-0.1-0.1-0.2v-4c0.5-0.4,0.8-0.9,0.8-1.6v-4.1
				c0-2-1.7-3.8-3.8-3.8h-0.5h-0.5c-2,0-3.8,1.7-3.8,3.8v4.1c0,0.6,0.4,1.2,0.8,1.6v4c0,0.1,0,0.1-0.1,0.2c-0.4,0.2-1.6,0.7-3,1.7
				c1.5,0.8,3.8,2.2,6,4c0.7,0.6,1.3,1.5,1.5,2.5H55v-2.9C55,37.3,54.7,36.8,54.3,36.4z"/>
		</g>
		<g>
			<path class="st2" d="M22.6,32.6c-0.1,0-0.1-0.1-0.1-0.2v-4c0.5-0.4,0.8-0.9,0.8-1.6v-4.1c0-2-1.7-3.8-3.8-3.8h-0.5h-0.5
				c-2,0-3.8,1.7-3.8,3.8v4.1c0,0.6,0.4,1.2,0.8,1.6v4c0,0.1,0,0.1-0.1,0.2c-0.6,0.3-3.3,1.7-5.9,3.8C9.3,36.8,9,37.3,9,38v2.9h9.2
				c0.2-0.9,0.7-1.8,1.5-2.5c2.2-1.8,4.5-3.2,6-4C24.2,33.4,23,32.8,22.6,32.6z"/>
		</g>
	</g>
</g>
</svg>
