<?xml version="1.0" encoding="utf-8"?>
<!-- Generator: Adobe Illustrator 23.0.0, SVG Export Plug-In . SVG Version: 6.00 Build 0)  -->
<svg version="1.1" id="Layer_1" xmlns="http://www.w3.org/2000/svg" xmlns:xlink="http://www.w3.org/1999/xlink" x="0px" y="0px"
	 width="64px" height="64px" viewBox="0 0 64 64" style="enable-background:new 0 0 64 64;" xml:space="preserve">
<style type="text/css">
	.st0{fill:#FF400D;}
	.st1{fill:url(#SVGID_1_);}
	.st2{fill:#FFFFFF;}
</style>
<path class="st0" d="M40,64H24C10.8,64,0,53.2,0,40V24C0,10.8,10.8,0,24,0h16c13.2,0,24,10.8,24,24v16C64,53.2,53.2,64,40,64z"/>
<linearGradient id="SVGID_1_" gradientUnits="userSpaceOnUse" x1="14.5452" y1="64.2327" x2="49.4548" y2="3.7673" gradientTransform="matrix(1 0 0 -1 0 66)">
	<stop  offset="0" style="stop-color:#FFFFFF;stop-opacity:0.5"/>
	<stop  offset="1" style="stop-color:#FFFFFF;stop-opacity:0"/>
</linearGradient>
<path class="st1" d="M40,64H24C10.8,64,0,53.2,0,40V24C0,10.8,10.8,0,24,0h16c13.2,0,24,10.8,24,24v16C64,53.2,53.2,64,40,64z"/>
<g>
	<g>
		<g>
			<path class="st2" d="M44.2,40.5c-3.3-2.7-6.9-4.6-7.7-4.9c-0.1,0-0.1-0.1-0.1-0.2v-5.2c0.7-0.4,1.1-1.2,1.1-2v-5.4
				c0-2.7-2.2-4.9-4.9-4.9H32h-0.6c-2.7,0-4.9,2.2-4.9,4.9v5.4c0,0.8,0.4,1.6,1.1,2v5.2c0,0.1-0.1,0.2-0.1,0.2
				c-0.7,0.4-4.3,2.2-7.7,4.9c-0.6,0.5-1,1.2-1,2v3.7H32h13.1v-3.7C45.1,41.7,44.8,40.9,44.2,40.5z"/>
		</g>
		<g>
			<path class="st2" d="M56.2,36.8c-2.8-2.3-5.8-3.8-6.4-4.1c-0.1,0-0.1-0.1-0.1-0.2v-4.4c0.5-0.4,0.9-1,0.9-1.7v-4.5
				c0-2.2-1.8-4.1-4.1-4.1H46h-0.5c-2.2,0-4.1,1.8-4.1,4.1v4.5c0,0.7,0.4,1.3,0.9,1.7v4.4c0,0.1,0,0.1-0.1,0.2
				c-0.4,0.2-1.7,0.8-3.3,1.9c1.6,0.9,4.1,2.4,6.5,4.4c0.8,0.7,1.4,1.6,1.6,2.7h10v-3.1C57,37.8,56.7,37.2,56.2,36.8z"/>
		</g>
		<g>
			<path class="st2" d="M21.8,32.7c-0.1,0-0.1-0.1-0.1-0.2v-4.4c0.5-0.4,0.9-1,0.9-1.7v-4.5c0-2.2-1.8-4.1-4.1-4.1H18h-0.5
				c-2.2,0-4.1,1.8-4.1,4.1v4.5c0,0.7,0.4,1.3,0.9,1.7v4.4c0,0.1,0,0.1-0.1,0.2c-0.6,0.3-3.6,1.8-6.4,4.1c-0.5,0.4-0.8,1-0.8,1.7
				v3.1h10c0.2-1,0.8-2,1.6-2.7c2.4-2,4.9-3.5,6.5-4.4C23.5,33.5,22.2,32.9,21.8,32.7z"/>
		</g>
	</g>
</g>
</svg>
