<?xml version="1.0" encoding="utf-8"?>
<!-- Generator: Adobe Illustrator 23.0.0, SVG Export Plug-In . SVG Version: 6.00 Build 0)  -->
<svg version="1.1" id="Layer_1" xmlns="http://www.w3.org/2000/svg" xmlns:xlink="http://www.w3.org/1999/xlink" x="0px" y="0px"
	 width="64px" height="64px" viewBox="0 0 64 64" style="enable-background:new 0 0 64 64;" xml:space="preserve">
<style type="text/css">
	.st0{fill:#07A866;}
</style>
<path class="st0" d="M63.1,14.2L54.9,6c-1.1-1.1-3-1.1-4.1,0L32,24.8L21.4,35.4l-8.2-8.2c-0.5-0.5-1.3-0.8-2.1-0.8
	c-0.8,0-1.5,0.3-2.1,0.8l-8.2,8.2c-1.1,1.1-1.1,3,0,4.1L19.4,58c0.5,0.5,1.3,0.8,2.1,0.8s1.5-0.3,2.1-0.8l8.5-8.5l31.1-31.1
	c0.5-0.5,0.8-1.3,0.8-2.1C64,15.5,63.7,14.8,63.1,14.2z"/>
</svg>
