<?xml version="1.0" encoding="utf-8"?>
<!-- Generator: Adobe Illustrator 23.0.0, SVG Export Plug-In . SVG Version: 6.00 Build 0)  -->
<svg version="1.1" id="Layer_1" xmlns="http://www.w3.org/2000/svg" xmlns:xlink="http://www.w3.org/1999/xlink" x="0px" y="0px"
	 width="64px" height="64px" viewBox="0 0 64 64" style="enable-background:new 0 0 64 64;" xml:space="preserve">
<style type="text/css">
	.st0{fill:#F7AD19;}
</style>
<path class="st0" d="M45.1,2.6c-4.8,0-9.5,1.8-13.1,4.9l0,0c-3.6-3.1-8.3-4.9-13.1-4.9C8.3,2.6,0,10.9,0,21.5
	C0,34.3,8.9,42.2,22.4,54c1.2,1,2.4,2.1,3.6,3.1c0,0,0,0,0,0l4.1,3.5l0,0l0,0c0,0,0,0,0,0c0.1,0.1,0.1,0.1,0.2,0.1c0,0,0,0,0.1,0.1
	c0.1,0,0.1,0.1,0.1,0.1c0,0,0.1,0,0.1,0c0.1,0,0.1,0.1,0.2,0.1c0,0,0,0,0.1,0c0,0,0,0,0,0c0,0,0,0,0.1,0c0.1,0,0.1,0.1,0.2,0.1
	c0,0,0.1,0,0.1,0c0.1,0,0.1,0,0.2,0.1c0,0,0.1,0,0.1,0c0.1,0,0.1,0,0.2,0c0,0,0.1,0,0.1,0c0.1,0,0.2,0,0.3,0l0,0l0,0l0,0l0,0l0,0
	c0.1,0,0.2,0,0.3,0c0,0,0.1,0,0.1,0c0.1,0,0.1,0,0.2,0c0,0,0.1,0,0.1,0c0.1,0,0.1,0,0.2-0.1c0,0,0.1,0,0.1,0c0.1,0,0.1-0.1,0.2-0.1
	c0,0,0,0,0.1,0c0,0,0,0,0,0c0,0,0.1,0,0.1,0c0.1,0,0.1-0.1,0.2-0.1c0,0,0.1,0,0.1-0.1c0.1,0,0.1-0.1,0.1-0.1c0,0,0,0,0.1-0.1
	c0.1,0,0.1-0.1,0.2-0.1c0,0,0,0,0,0l0,0l0,0l4.1-3.5c0,0,0,0,0,0c8.1-7.1,14.1-12.6,18.5-17.9C61.6,33,64,27.3,64,21.5
	C64,10.9,55.7,2.6,45.1,2.6z"/>
</svg>
