<?xml version="1.0" encoding="utf-8"?>
<!-- Generator: Adobe Illustrator 23.0.0, SVG Export Plug-In . SVG Version: 6.00 Build 0)  -->
<svg version="1.1" id="moon" xmlns="http://www.w3.org/2000/svg" xmlns:xlink="http://www.w3.org/1999/xlink" x="0px" y="0px"
	 width="64px" height="64px" viewBox="0 0 64 64" style="enable-background:new 0 0 64 64;" xml:space="preserve">
<style type="text/css">
	.st0{fill:#FFC82C;}
	.st1{fill:#FFC127;}
</style>
<path class="st0" d="M18.8,48.1C35,48.1,48.1,35,48.1,18.8c0-7.2-2.6-13.7-6.9-18.8C54.4,4.2,64,16.6,64,31.2
	C64,49.3,49.3,64,31.2,64C16.6,64,4.2,54.4,0,41.2C5.1,45.5,11.6,48.1,18.8,48.1z"/>
<path class="st1" d="M51.5,5.5c4.4,5.6,7,12.6,7,20.2c0,18.1-14.7,32.8-32.8,32.8c-7.6,0-14.6-2.6-20.2-7c6,7.6,15.3,12.5,25.7,12.5
	C49.3,64,64,49.3,64,31.2C64,20.8,59.1,11.5,51.5,5.5z"/>
<g>
	<polygon class="st0" points="16.4,12.8 19.8,19.6 27.3,20.7 21.9,26.1 23.2,33.6 16.4,30 9.7,33.6 10.9,26.1 5.5,20.7 13,19.6 	"/>
	<polygon class="st0" points="35.5,10.6 37.2,14.2 41.1,14.7 38.3,17.5 39,21.4 35.5,19.5 32,21.4 32.6,17.5 29.8,14.7 33.7,14.2 	
		"/>
</g>
</svg>
