<?xml version="1.0" encoding="utf-8"?>
<!-- Generator: Adobe Illustrator 23.0.0, SVG Export Plug-In . SVG Version: 6.00 Build 0)  -->
<svg version="1.1" id="Layer_1" xmlns="http://www.w3.org/2000/svg" xmlns:xlink="http://www.w3.org/1999/xlink" x="0px" y="0px"
	 width="64px" height="64px" viewBox="0 0 64 64" style="enable-background:new 0 0 64 64;" xml:space="preserve">
<style type="text/css">
	.st0{fill:#F7AD19;}
</style>
<path class="st0" d="M61.1,23.3H40.7V2.9c0-1.6-1.3-2.9-2.9-2.9H32h-5.8c-1.6,0-2.9,1.3-2.9,2.9v20.4H2.9c-1.6,0-2.9,1.3-2.9,2.9
	v11.6c0,1.6,1.3,2.9,2.9,2.9h20.4v20.4c0,1.6,1.3,2.9,2.9,2.9H32h5.8c1.6,0,2.9-1.3,2.9-2.9V40.7h20.4c1.6,0,2.9-1.3,2.9-2.9V26.2
	C64,24.6,62.7,23.3,61.1,23.3z"/>
</svg>
