<?xml version="1.0" encoding="utf-8"?>
<!-- Generator: Adobe Illustrator 23.0.0, SVG Export Plug-In . SVG Version: 6.00 Build 0)  -->
<svg version="1.1" id="Layer_1" xmlns="http://www.w3.org/2000/svg" xmlns:xlink="http://www.w3.org/1999/xlink" x="0px" y="0px"
	 width="64px" height="64px" viewBox="0 0 64 64" style="enable-background:new 0 0 64 64;" xml:space="preserve">
<style type="text/css">
	.st0{fill:#FFC82C;}
	.st1{fill:#FFC127;}
</style>
<circle class="st0" cx="32" cy="32" r="18.4"/>
<g>
	<path class="st1" d="M40.7,15.8c0.8,2.6,1.4,5.3,1.4,8.1c0.5,11.1-7,21-16.8,25.3c2.1,0.8,4.3,1.3,6.6,1.3
		c10.2,0,18.4-8.2,18.4-18.4C50.4,25,46.5,18.9,40.7,15.8z"/>
	<path class="st1" d="M32,0c-1.5,0-2.7,1.2-2.7,2.7v4.5c0,1.5,1.2,2.7,2.7,2.7s2.7-1.2,2.7-2.7V2.7C34.7,1.2,33.5,0,32,0z"/>
	<path class="st1" d="M32,54.1c-1.5,0-2.7,1.2-2.7,2.7v4.5c0,1.5,1.2,2.7,2.7,2.7s2.7-1.2,2.7-2.7v-4.5C34.7,55.3,33.5,54.1,32,54.1
		z"/>
	<path class="st1" d="M64,32c0-1.5-1.2-2.7-2.7-2.7h-4.5c-1.5,0-2.7,1.2-2.7,2.7c0,1.5,1.2,2.7,2.7,2.7h4.5C62.8,34.7,64,33.5,64,32
		z"/>
	<path class="st1" d="M9.9,32c0-1.5-1.2-2.7-2.7-2.7H2.7C1.2,29.3,0,30.5,0,32s1.2,2.7,2.7,2.7h4.5C8.7,34.7,9.9,33.5,9.9,32z"/>
	<path class="st1" d="M54.6,9.4c-1-1-2.8-1-3.8,0l-3.2,3.2c-1,1-1,2.8,0,3.8c1,1,2.8,1,3.8,0l3.2-3.2C55.7,12.2,55.7,10.4,54.6,9.4z
		"/>
	<path class="st1" d="M16.4,47.6c-1-1-2.8-1-3.8,0l-3.2,3.2c-1,1-1,2.8,0,3.8s2.8,1,3.8,0l3.2-3.2C17.4,50.4,17.4,48.7,16.4,47.6z"
		/>
	<path class="st1" d="M54.6,54.6c1-1,1-2.8,0-3.8l-3.2-3.2c-1-1-2.8-1-3.8,0c-1,1-1,2.8,0,3.8l3.2,3.2
		C51.8,55.7,53.6,55.7,54.6,54.6z"/>
	<path class="st1" d="M16.4,16.4c1-1,1-2.8,0-3.8l-3.2-3.2c-1-1-2.8-1-3.8,0s-1,2.8,0,3.8l3.2,3.2C13.6,17.4,15.3,17.4,16.4,16.4z"
		/>
</g>
</svg>
