<?xml version="1.0" encoding="utf-8"?>
<!-- Generator: Adobe Illustrator 23.0.0, SVG Export Plug-In . SVG Version: 6.00 Build 0)  -->
<svg version="1.1" id="Layer_1" xmlns="http://www.w3.org/2000/svg" xmlns:xlink="http://www.w3.org/1999/xlink" x="0px" y="0px"
	 width="64px" height="64px" viewBox="0 0 64 64" style="enable-background:new 0 0 64 64;" xml:space="preserve">
<style type="text/css">
	.st0{fill:#F21616;}
</style>
<path class="st0" d="M63,48.7L46.3,32L63,15.3c0.6-0.6,1-1.5,1-2.4s-0.4-1.8-1-2.4L53.5,1c-1.3-1.3-3.5-1.3-4.8,0L32,17.7L15.3,1
	c-1.3-1.3-3.5-1.3-4.8,0L1,10.5c-1.3,1.3-1.3,3.5,0,4.8L17.7,32L1,48.7c-1.3,1.3-1.3,3.5,0,4.8l9.5,9.5c0.6,0.6,1.5,1,2.4,1
	s1.8-0.4,2.4-1L32,46.3L48.7,63c0.6,0.6,1.5,1,2.4,1c0.9,0,1.8-0.4,2.4-1l9.5-9.5C64.3,52.1,64.3,50,63,48.7z"/>
</svg>
