<?xml version="1.0" encoding="utf-8"?>
<!-- Generator: Adobe Illustrator 23.0.0, SVG Export Plug-In . SVG Version: 6.00 Build 0)  -->
<svg version="1.1" id="Capa_1" xmlns="http://www.w3.org/2000/svg" xmlns:xlink="http://www.w3.org/1999/xlink" x="0px" y="0px"
	 width="64px" height="64px" viewBox="0 0 64 64" style="enable-background:new 0 0 64 64;" xml:space="preserve">
<style type="text/css">
	.st0{fill:#E7ECED;}
	.st1{fill:#45506B;}
</style>
<path class="st0" d="M22.5,50.2l-9.5,5.2c-0.6,0.4-1.1,0.7-1.6,1.1C16.9,61.2,24.2,64,32,64s15-2.8,20.5-7.4
	c-0.5-0.5-1.1-0.8-1.7-1.1l-10.3-5.1c-1.3-0.6-2.2-2.1-2.2-3.5v-4c0.2-0.4,0.6-0.7,1-1.2c1.4-1.9,2.4-4.1,3.1-6.4
	c1.3-0.4,2.3-1.6,2.3-3v-4.2c0-1-0.4-1.8-1.1-2.4v-6.4c0,0,1.3-9.7-11.8-9.7S20,19.3,20,19.3v6.2c-0.6,0.6-1.1,1.4-1.1,2.4v4.2
	c0,1.1,0.6,2.2,1.4,2.7c1.1,4.7,3.9,8,3.9,8v3.9C24.5,48.2,23.7,49.5,22.5,50.2z"/>
<g>
	<path class="st1" d="M32.6,0C14.9-0.2,0.4,13.8,0,31.4c-0.1,10,4.3,19.1,11.3,25c0.5-0.4,1-0.7,1.6-1.1l9.5-5.2
		c1.2-0.7,2.1-2.1,2.1-3.4v-3.9c0,0-2.8-3.4-3.9-8c-0.8-0.6-1.4-1.6-1.4-2.7V28c0-1,0.4-1.8,1.1-2.4v-6.3c0,0-1.3-9.7,11.8-9.7
		S44,19.3,44,19.3v6.2c0.6,0.6,1.1,1.4,1.1,2.4v4.2c0,1.4-1,2.7-2.3,3c-0.7,2.3-1.8,4.5-3.1,6.4c-0.4,0.5-0.7,1-1,1.2v4
		c0,1.4,0.8,2.8,2.2,3.5l10.3,5.1c0.6,0.4,1.2,0.7,1.7,1.1c6.6-5.6,11.1-14.1,11.2-23.8C64.2,14.9,50.2,0.4,32.6,0z"/>
</g>
</svg>
