<?xml version="1.0" encoding="utf-8"?>
<!-- Generator: Adobe Illustrator 23.0.0, SVG Export Plug-In . SVG Version: 6.00 Build 0)  -->
<svg version="1.1" id="Capa_1" xmlns="http://www.w3.org/2000/svg" xmlns:xlink="http://www.w3.org/1999/xlink" x="0px" y="0px"
	 width="64px" height="64px" viewBox="0 0 64 64" style="enable-background:new 0 0 64 64;" xml:space="preserve">
<style type="text/css">
	.st0{fill:#B6B8BF;}
</style>
<path class="st0" d="M20.8,49.2L9.6,55.4c-0.4,0.3-0.6,0.4-1,0.6C5.1,58.7,5,63.7,5,65.5c18,0,36.2,0,54.3,0c0-1.5-0.3-7-4.1-9.5
	c-0.3-0.3-0.6-0.4-1-0.5l-12-6c-1.5-0.8-2.6-2.4-2.6-4.1v-4.7c0.3-0.4,0.8-0.9,1.2-1.4c1.7-2.3,2.8-4.9,3.7-7.6
	c1.5-0.4,2.7-1.8,2.7-3.6v-4.9c0-1.2-0.4-2.2-1.3-2.8v-7.6c0,0,1.5-11.4-14-11.4s-14,11.4-14,11.4v7.3c-0.8,0.8-1.3,1.7-1.3,2.8v5
	c0,1.3,0.8,2.6,1.7,3.1c1.3,5.5,4.6,9.3,4.6,9.3V45C23.3,46.8,22.2,48.5,20.8,49.2z"/>
<path class="st0" d="M74.4,44.4"/>
</svg>
