<?xml version="1.0" encoding="utf-8"?>
<!-- Generator: Adobe Illustrator 23.0.0, SVG Export Plug-In . SVG Version: 6.00 Build 0)  -->
<svg version="1.1" id="Layer_1" xmlns="http://www.w3.org/2000/svg" xmlns:xlink="http://www.w3.org/1999/xlink" x="0px" y="0px"
	 width="64px" height="64px" viewBox="0 0 64 64" style="enable-background:new 0 0 64 64;" xml:space="preserve">
<style type="text/css">
	.st0{fill:#FF400D;}
	.st1{fill:url(#SVGID_1_);}
	.st2{fill:#FFFFFF;}
</style>
<path class="st0" d="M40,64H24C10.8,64,0,53.2,0,40V24C0,10.8,10.8,0,24,0h16c13.2,0,24,10.8,24,24v16C64,53.2,53.2,64,40,64z"/>
<linearGradient id="SVGID_1_" gradientUnits="userSpaceOnUse" x1="14.5452" y1="64.2327" x2="49.4548" y2="3.7673" gradientTransform="matrix(1 0 0 -1 0 66)">
	<stop  offset="0" style="stop-color:#FFFFFF;stop-opacity:0.5"/>
	<stop  offset="1" style="stop-color:#FFFFFF;stop-opacity:0"/>
</linearGradient>
<path class="st1" d="M40,64H24C10.8,64,0,53.2,0,40V24C0,10.8,10.8,0,24,0h16c13.2,0,24,10.8,24,24v16C64,53.2,53.2,64,40,64z"/>
<path class="st2" d="M33.4,21.8c1.4,0,2.5-1.4,2.5-3.1c0-1.7-1.1-3.1-2.5-3.1c-1.4,0-2.5,1.4-2.5,3.1C30.9,20.4,32,21.8,33.4,21.8z"
	/>
<path class="st2" d="M24.2,29.2L24.2,29.2c-0.1,1.6,0.8,3,2.2,3.7l0,0c1.1,0.5,2,1.4,2.6,2.5l0,0c0.8,1.4,2.3,2.3,3.9,2.2l0,0
	c0.1,0,0.2,0,0.3,0c1.1,0,2.2,0.3,3.2,0.9c1.4,0.9,3.2,0.9,4.5,0c1-0.7,2.3-1,3.5-0.9l0,0c1.6,0.1,3.1-0.7,3.9-2.2l0,0
	c0.6-1.1,1.5-2,2.6-2.5l0,0c1.4-0.7,2.3-2.2,2.2-3.7l0,0c-0.1-1.2,0.3-2.4,1-3.4c0.9-1.3,0.9-3,0-4.3c-0.7-1-1-2.2-1-3.4l0,0
	c0.1-1.5-0.8-3-2.2-3.7l0,0c-1.1-0.5-2-1.4-2.6-2.5l0,0c-0.7-1.4-2.3-2.2-3.9-2.1l0,0c-1.2,0.1-2.5-0.3-3.5-0.9
	c-1.4-0.9-3.2-0.9-4.5,0c-1,0.7-2.3,1-3.5,0.9l0,0c-1.6-0.1-3.2,0.8-3.9,2.2l0,0c-0.6,1.1-1.5,2-2.6,2.5l0,0
	C25,15,24.1,16.4,24.2,18l0,0c0.1,1.2-0.3,2.4-1,3.4c-0.9,1.3-0.9,3,0,4.3C23.9,26.7,24.3,27.9,24.2,29.2z M48.3,28.5
	c0,2.7-1.9,4.9-4.2,4.9c-2.3,0-4.2-2.2-4.2-4.9c0-2.7,1.9-4.9,4.2-4.9C46.4,23.7,48.3,25.9,48.3,28.5L48.3,28.5z M43.9,13.8
	c0.3-0.4,0.8-0.5,1.2-0.3c0.4,0.3,0.5,0.8,0.3,1.2L33.6,33.4c-0.3,0.4-0.8,0.5-1.2,0.3c-0.4-0.3-0.5-0.8-0.3-1.2L43.9,13.8z
	 M33.4,13.8c2.3,0,4.2,2.2,4.2,4.9c0,2.7-1.9,4.9-4.2,4.9s-4.2-2.2-4.2-4.9C29.2,16,31.1,13.8,33.4,13.8z"/>
<path class="st2" d="M41.6,28.5c0,1.7,1.1,3.1,2.5,3.1c1.4,0,2.5-1.4,2.5-3.1c0-1.7-1.1-3.1-2.5-3.1C42.7,25.4,41.6,26.8,41.6,28.5z
	"/>
<path class="st2" d="M53.8,40.7C53.8,40.7,53.8,40.7,53.8,40.7l-8.1,3.8c0.1,0.4,0.1,0.9,0.1,1.4c0,0.5-0.4,0.8-0.9,0.8h0l-11.8-0.3
	c-0.5,0-0.9-0.4-0.8-0.9c0-0.5,0.4-0.9,0.9-0.8l10.8,0.3c-0.4-2.1-2.1-3.6-4.3-3.7L32.7,41c-1.4,0-2.8-0.4-4.1-1l-0.7-0.4
	c-3.6-1.9-7.9-1.6-11.2,0.6l-0.3,10.4l1.2-0.7c1.2-0.7,2.7-0.8,4-0.4l12.1,3.4c2.3,0.5,4.8,0.2,6.9-0.8l16.8-10.9
	C56.5,40.3,55.1,40.1,53.8,40.7z"/>
<path class="st2" d="M8.5,52.4L8.9,37l6.1,0.2l-0.4,15.5L8.5,52.4z"/>
</svg>
