<?xml version="1.0" encoding="utf-8"?>
<!-- Generator: Adobe Illustrator 23.0.0, SVG Export Plug-In . SVG Version: 6.00 Build 0)  -->
<svg version="1.1" id="Layer_1" xmlns="http://www.w3.org/2000/svg" xmlns:xlink="http://www.w3.org/1999/xlink" x="0px" y="0px"
	 width="64px" height="64px" viewBox="0 0 64 64" style="enable-background:new 0 0 64 64;" xml:space="preserve">
<style type="text/css">
	.st0{fill:url(#SVGID_1_);}
	.st1{fill:url(#SVGID_2_);}
	.st2{fill:#FFFFFF;}
</style>
<linearGradient id="SVGID_1_" gradientUnits="userSpaceOnUse" x1="49.4548" y1="62.2327" x2="14.5452" y2="1.7673">
	<stop  offset="0" style="stop-color:#373DFF"/>
	<stop  offset="1" style="stop-color:#255DFF"/>
</linearGradient>
<path class="st0" d="M40,64H24C10.8,64,0,53.2,0,40V24C0,10.8,10.8,0,24,0h16c13.2,0,24,10.8,24,24v16C64,53.2,53.2,64,40,64z"/>
<linearGradient id="SVGID_2_" gradientUnits="userSpaceOnUse" x1="14.5452" y1="1015.7673" x2="49.4548" y2="1076.2327" gradientTransform="matrix(1 0 0 1 0 -1014)">
	<stop  offset="0" style="stop-color:#FFFFFF;stop-opacity:0.3"/>
	<stop  offset="1" style="stop-color:#FFFFFF;stop-opacity:0"/>
</linearGradient>
<path class="st1" d="M40,64H24C10.8,64,0,53.2,0,40V24C0,10.8,10.8,0,24,0h16c13.2,0,24,10.8,24,24v16C64,53.2,53.2,64,40,64z"/>
<g>
	<g>
		<polygon class="st2" points="41.6,20.3 41.7,20.7 41.2,20.7 41.2,21.4 41.7,21.4 42.4,21.3 42.8,20.9 42.4,20.7 42.2,20.5 
			41.8,19.9 41.7,19.1 41.1,19.3 40.9,19.6 40.9,19.8 41.2,20.1 		"/>
		<polygon class="st2" points="41.1,20.6 41.1,20.2 40.7,20 40.2,20.2 39.8,20.7 39.8,21.2 40.3,21.2 		"/>
		<path class="st2" d="M30.4,22.3l-0.1,0.3h-0.6v0.3h0.2c0,0,0,0.1,0,0.2h0.3l0.3-0.2l0.1-0.3h0.3l0.1-0.3l-0.3-0.1H30.4z"/>
		<polygon class="st2" points="29,22.8 29,23.2 29.4,23.1 29.4,22.8 29.1,22.7 		"/>
		<path class="st2" d="M53,31.7c0-0.6,0-1.3-0.1-1.8c-0.2-2-0.7-3.9-1.4-5.7c-0.1-0.2-0.1-0.3-0.2-0.4c-0.9-2.3-2.3-4.3-3.9-6
			c-0.1-0.1-0.3-0.3-0.3-0.3c-0.3-0.3-0.6-0.7-0.9-0.9C42.4,13.1,37.5,11,32,11s-10.5,2.1-14.2,5.5c-0.8,0.8-1.7,1.7-2.4,2.6
			C12.6,22.8,11,27.2,11,32c0,11.6,9.4,21,21,21c8.1,0,15.2-4.7,18.7-11.4c0.8-1.4,1.3-3,1.7-4.6c0.1-0.4,0.2-0.8,0.3-1.3
			c0.3-1.2,0.3-2.4,0.3-3.7C53,31.9,53,31.8,53,31.7z M49.1,23.3l0.1-0.2c0.2,0.3,0.3,0.6,0.4,0.9h-0.2l-0.3,0.1
			C49.1,24.2,49.1,23.3,49.1,23.3z M46,19.7v-0.9c0.3,0.3,0.7,0.7,0.9,1.1l-0.4,0.6h-1.3l-0.1-0.3L46,19.7z M20.7,17.4L20.7,17.4
			h0.4v-0.2h0.7v0.3l-0.2,0.3h-0.9L20.7,17.4L20.7,17.4z M21.3,18.3l0.4-0.1v0.4l-0.9,0.1l-0.2-0.2L21.3,18.3z M50.4,26.7h-1.5
			L48,26l-1,0.1v0.6h-0.3l-0.3-0.3L44.6,26v-1.1l-2.2,0.2l-0.7,0.3h-0.8l-0.4-0.1l-1,0.6V27l-2.1,1.5l0.2,0.7h0.3l-0.1,0.6l-0.3,0.1
			v1.6l1.8,2.1h0.8l0.1-0.2h1.4l0.4-0.4h0.8l0.4,0.4l1.2,0.2l-0.2,1.8l1.3,2.4L45,39.1l0.1,0.7l0.6,0.6v1.5l0.8,1v1.3h0.7
			c-3.5,4.4-8.9,7.1-15,7.1c-10.8,0-19.4-8.6-19.4-19.2c0-2.7,0.6-5.2,1.5-7.6v-0.6l0.7-0.8c0.3-0.4,0.5-0.9,0.8-1.3V22l-0.8,1
			c-0.3,0.5-0.5,0.9-0.7,1.4v1.1L15,26v1.5l0.8,1.3l0.6,0.1l0.1-0.4l-0.8-1.2l-0.2-1.1H16l0.2,1.2l1.1,1.5L17,29.4l0.7,1l1.7,0.4
			v-0.3l0.7,0.1l0.1,0.5l0.5,0.1l0.8,0.3l1.2,1.3l1.5,0.1l0.2,1.2l-1,0.7l-0.1,1.1L23,36.5l1.4,1.8l0.1,0.6c0,0,0.5,0.2,0.6,0.2
			s1.2,0.8,1.2,0.8v3.3l0.4,0.1l-0.3,1.5l0.7,0.9L27,47.3l0.9,1.6l1.2,1h1.2l0.1-0.3l-0.8-0.7l0.1-0.3l0.2-0.4v-0.4h-0.6l-0.3-0.3
			l0.5-0.4l0.1-0.3L29,46.4v-0.3l0.8-0.1l1.2-0.6l0.4-0.7l1.2-1.5l-0.3-1.2l0.3-0.7h1.1l0.8-0.6l0.3-2.4l0.8-1l0.2-0.7l-0.8-0.3
			l-0.5-0.8h-1.7L31.2,35l-0.1-0.9l-0.4-0.8h-1.2l-0.7-1.1l-0.6-0.3v0.3H27l-0.4-0.6l-1.2-0.3l-1,1.1l-1.5-0.3l-0.1-1.7l-1.2-0.3
			l0.4-0.8L21.9,29l-1.5,1l-0.9-0.1l-0.3-0.8l0.2-0.8l0.5-0.9l1.2-0.6h2.3v0.7l0.8,0.4L24,26.8l0.6-0.6l1.2-0.8l0.1-0.6l1.2-1.3
			l1.3-0.7l-0.1-0.1l0.8-0.8l0.3,0.1l0.2,0.2l0.3-0.3H30l-0.3-0.1l-0.3-0.1v-0.3l0.2-0.2h0.4l0.2,0.1l0.2,0.3h0.2l0,0h0.1l0.6-0.1
			l0.1-0.3l0.3,0.1v0.3L31.2,22l0,0l0.1,0.3l1.1,0.3l0,0h0.3v-0.5l-0.8-0.4l-0.1-0.3l0.7-0.3v-0.7l-0.8-0.4L31.5,19l-0.8,0.4h-0.3
			l0.1-0.8l-1.3-0.3l-0.6,0.4V20l-1.1,0.3L27,21.1l-0.4,0.1v-1.1l-0.9-0.2l-0.5-0.3l-0.2-0.7l1.7-1l0.8-0.3l0.1,0.6h0.5V18l0.5-0.1
			v-0.1l-0.2-0.1l-0.1-0.3l0.6-0.1l0.3-0.4l0,0l0,0l0.1-0.1l1.3-0.2l0.6,0.5l-1.4,0.8l1.8,0.4l0.3-0.6h0.8l0.3-0.5L32.3,17v-0.7
			l-1.8-0.8l-1.3,0.2L28.6,16l0.1,0.9L28,16.9l-0.1-0.5l0.7-0.7l-1.3-0.1L27,15.7l-0.2,0.4l0.5,0.1l-0.1,0.5l-0.8,0.1l-0.2,0.3H25
			c0,0,0-0.7-0.1-0.7c-0.1,0,0.9,0,0.9,0l0.7-0.7l-0.4-0.2l-0.5,0.5L24.8,16l-0.5-0.7h-1.1L22,16.2h1l0.1,0.3l-0.3,0.3H24l0.2,0.4
			l-1.3-0.1l-0.1-0.3L22,16.6l-0.4-0.3h-1c3.3-2.3,7.2-3.6,11.4-3.6c4.9,0,9.3,1.8,12.7,4.8L44.4,18l-0.9,0.3l-0.3,0.4l0.1,0.5
			l0.4,0.1l0.3,0.7l0.8-0.3l0.2,0.9h-0.3l-0.7-0.1l-0.8,0.1l-0.7,1l-1,0.2l-0.2,0.8l0.4,0.1l-0.1,0.6l-1-0.2l-0.9,0.2l-0.2,0.5
			l0.2,1.1l0.5,0.3h0.9l0.6-0.1l0.2-0.5l0.9-1.3l0.6,0.2l0.6-0.6l0.1,0.4l1.5,1l-0.2,0.3h-0.7l0.3,0.3l0.4,0.1l0.5-0.2v-0.6l0.3-0.1
			l0.1-0.3l-1-0.6L45,22.5h0.8l0.3,0.3l0.8,0.6v0.8l0.8,0.8l0.3-1.1l0.5-0.3l0.1,0.9L49,25h1c0.2,0.5,0.3,1,0.5,1.5L50.4,26.7z
			 M22.4,20.6l0.5-0.3l0.4,0.1L23.2,21l-0.4,0.2L22.4,20.6z M25.1,22v0.4h-1.2l-0.4-0.1l0.1-0.3l0.6-0.3h0.8v0.3L25.1,22L25.1,22z
			 M25.7,22.5v0.4l-0.3,0.2l-0.3,0.1c0,0,0-0.6,0-0.7C25.1,22.5,25.7,22.5,25.7,22.5z M25.4,22.3v-0.4l0.4,0.3L25.4,22.3z
			 M25.5,23.3v0.3l-0.3,0.3h-0.6l0.1-0.4H25l0.1-0.2L25.5,23.3z M24,22.5h0.7l-0.8,1.2l-0.3-0.2l0.1-0.5L24,22.5z M26.6,23.2v0.3H26
			l-0.2-0.3v-0.3H26L26.6,23.2z M26,22.7l0.2-0.2l0.3,0.2l-0.3,0.2L26,22.7z M50.7,27.6L50.7,27.6c0.1,0,0.1,0.2,0.2,0.3L50.7,27.6z
			"/>
		<path class="st2" d="M14.3,23.9v0.6c0.2-0.5,0.4-1,0.7-1.4L14.3,23.9z"/>
	</g>
</g>
</svg>
