<?xml version="1.0" encoding="utf-8"?>
<!-- Generator: Adobe Illustrator 23.0.0, SVG Export Plug-In . SVG Version: 6.00 Build 0)  -->
<svg version="1.1" id="Layer_1" xmlns="http://www.w3.org/2000/svg" xmlns:xlink="http://www.w3.org/1999/xlink" x="0px" y="0px"
	 width="64px" height="64px" viewBox="0 0 64 64" style="enable-background:new 0 0 64 64;" xml:space="preserve">
<style type="text/css">
	.st0{fill:#FF400D;}
	.st1{fill:url(#SVGID_1_);}
	.st2{fill:#FFFFFF;}
</style>
<path class="st0" d="M40,64H24C10.8,64,0,53.2,0,40V24C0,10.8,10.8,0,24,0h16c13.2,0,24,10.8,24,24v16C64,53.2,53.2,64,40,64z"/>
<linearGradient id="SVGID_1_" gradientUnits="userSpaceOnUse" x1="14.5452" y1="64.2327" x2="49.4548" y2="3.7673" gradientTransform="matrix(1 0 0 -1 0 66)">
	<stop  offset="0" style="stop-color:#FFFFFF;stop-opacity:0.5"/>
	<stop  offset="1" style="stop-color:#FFFFFF;stop-opacity:0"/>
</linearGradient>
<path class="st1" d="M40,64H24C10.8,64,0,53.2,0,40V24C0,10.8,10.8,0,24,0h16c13.2,0,24,10.8,24,24v16C64,53.2,53.2,64,40,64z"/>
<g id="surface1">
	<path class="st2" d="M32,22.5c-5.3,0-9.5,4.3-9.5,9.5c0,5.3,4.3,9.5,9.5,9.5c5.3,0,9.5-4.3,9.5-9.5C41.5,26.7,37.3,22.5,32,22.5z
		 M37.7,30.2L30.8,37c-0.3,0.3-0.7,0.4-1,0.4c-0.4,0-0.8-0.1-1-0.4l-2.6-2.6c-0.6-0.6-0.6-1.5,0-2.1c0.6-0.6,1.5-0.6,2.1,0l1.6,1.6
		l5.8-5.8c0.6-0.6,1.5-0.6,2.1,0C38.2,28.7,38.2,29.6,37.7,30.2z"/>
	<path class="st2" d="M53.2,20.6L53.2,20.6c0-0.5,0-1,0-1.6c0-2.8-2.2-5-5-5.2c-5.7-0.3-10.2-2.2-14-5.9l0,0c-1.2-1.1-3.1-1.1-4.3,0
		l0,0c-3.8,3.7-8.2,5.6-14,5.9c-2.8,0.2-4.9,2.4-5,5.2c0,0.6,0,1.1,0,1.6l0,0.1c-0.1,5.9-0.3,13.2,2.2,19.8c1.3,3.6,3.4,6.8,6,9.4
		c3,3,7,5.3,11.8,7c0.2,0.1,0.3,0.1,0.5,0.1c0.2,0,0.5,0.1,0.7,0.1c0.2,0,0.5,0,0.7-0.1c0.2,0,0.3-0.1,0.5-0.1c4.8-1.7,8.8-4,11.8-7
		c2.7-2.6,4.7-5.8,6-9.4C53.5,33.7,53.3,26.4,53.2,20.6z M32,44.5c-6.9,0-12.5-5.6-12.5-12.5S25.1,19.5,32,19.5
		c6.9,0,12.5,5.6,12.5,12.5S38.9,44.5,32,44.5z"/>
</g>
</svg>
