<svg id="Layer_1" data-name="Layer 1" xmlns="http://www.w3.org/2000/svg" xmlns:xlink="http://www.w3.org/1999/xlink" viewBox="0 0 1600.36 1600.36"><defs><linearGradient id="linear-gradient" x1="107.06" y1="1200.07" x2="1492.94" y2="399.93" gradientTransform="translate(298.19 -213.99) rotate(18.67)" gradientUnits="userSpaceOnUse"><stop offset="0.01" stop-color="#6d6e70"/><stop offset="0.14" stop-color="#969799"/><stop offset="0.27" stop-color="#b6b7b9"/><stop offset="0.38" stop-color="#c9cbcc"/><stop offset="0.46" stop-color="#d0d2d3"/><stop offset="0.58" stop-color="#cccecf"/><stop offset="0.7" stop-color="#c1c3c4"/><stop offset="0.82" stop-color="#aeafb1"/><stop offset="0.93" stop-color="#939597"/><stop offset="1" stop-color="#808184"/></linearGradient><radialGradient id="radial-gradient" cx="800" cy="800" r="779.28" gradientTransform="translate(800 -331.37) rotate(45)" gradientUnits="userSpaceOnUse"><stop offset="0" stop-color="#fff"/><stop offset="1" stop-color="#8b8b91"/></radialGradient><radialGradient id="New_Gradient_Swatch_7" cx="800" cy="800" r="779.61" gradientTransform="translate(298.19 -213.99) rotate(18.67)" gradientUnits="userSpaceOnUse"><stop offset="0" stop-color="#fff"/><stop offset="1" stop-color="#c7cdd1"/></radialGradient><radialGradient id="New_Gradient_Swatch_5" cx="800" cy="493.29" r="644.27" gradientTransform="translate(-271.84 437.83) rotate(-26.33)" xlink:href="#New_Gradient_Swatch_7"/><radialGradient id="New_Gradient_Swatch_2" cx="800" cy="800" r="671.64" gradientTransform="translate(298.19 -213.99) rotate(18.67)" gradientUnits="userSpaceOnUse"><stop offset="0" stop-color="#fff"/><stop offset="1" stop-color="#b8b5c1"/></radialGradient><radialGradient id="New_Gradient_Swatch_4" cx="800" cy="800" r="659.7" gradientTransform="translate(298.19 -213.99) rotate(18.67)" gradientUnits="userSpaceOnUse"><stop offset="0" stop-color="#b8b5c1"/><stop offset="1" stop-color="#dbdbdb"/></radialGradient><radialGradient id="New_Gradient_Swatch_2-2" cx="800" cy="800" r="635.82" gradientTransform="translate(-271.66 438.01) rotate(-26.33)" xlink:href="#New_Gradient_Swatch_2"/><radialGradient id="radial-gradient-2" cx="800" cy="800.01" r="624.66" gradientUnits="userSpaceOnUse"><stop offset="0" stop-color="#fff"/><stop offset="1" stop-color="#bbbbbc"/></radialGradient><linearGradient id="linear-gradient-2" x1="1035.01" y1="1370.48" x2="1035.01" y2="725.53" gradientTransform="translate(-271.84 437.83) rotate(-26.33)" gradientUnits="userSpaceOnUse"><stop offset="0" stop-color="#fff" stop-opacity="0"/><stop offset="0" stop-color="#fff" stop-opacity="0.01"/><stop offset="0.03" stop-color="#fff" stop-opacity="0.2"/><stop offset="0.05" stop-color="#fff" stop-opacity="0.37"/><stop offset="0.08" stop-color="#fff" stop-opacity="0.52"/><stop offset="0.11" stop-color="#fff" stop-opacity="0.65"/><stop offset="0.14" stop-color="#fff" stop-opacity="0.76"/><stop offset="0.18" stop-color="#fff" stop-opacity="0.85"/><stop offset="0.22" stop-color="#fff" stop-opacity="0.92"/><stop offset="0.27" stop-color="#fff" stop-opacity="0.96"/><stop offset="0.34" stop-color="#fff" stop-opacity="0.99"/><stop offset="0.52" stop-color="#fff"/><stop offset="0.7" stop-color="#fff" stop-opacity="0.99"/><stop offset="0.76" stop-color="#fff" stop-opacity="0.97"/><stop offset="0.81" stop-color="#fff" stop-opacity="0.92"/><stop offset="0.85" stop-color="#fff" stop-opacity="0.85"/><stop offset="0.88" stop-color="#fff" stop-opacity="0.77"/><stop offset="0.91" stop-color="#fff" stop-opacity="0.66"/><stop offset="0.93" stop-color="#fff" stop-opacity="0.53"/><stop offset="0.96" stop-color="#fff" stop-opacity="0.39"/><stop offset="0.98" stop-color="#fff" stop-opacity="0.22"/><stop offset="1" stop-color="#fff" stop-opacity="0.04"/><stop offset="1" stop-color="#fff" stop-opacity="0"/></linearGradient><linearGradient id="linear-gradient-3" x1="1272.29" y1="687.75" x2="1365.28" y2="526.69" xlink:href="#linear-gradient-2"/><linearGradient id="linear-gradient-4" x1="578.96" y1="945.77" x2="578.96" y2="300.79" gradientTransform="translate(1267.35 946.49) rotate(150)" xlink:href="#linear-gradient-2"/><radialGradient id="radial-gradient-3" cx="800.55" cy="748.46" r="441.24" gradientUnits="userSpaceOnUse"><stop offset="0" stop-color="#fff"/><stop offset="1" stop-color="#81818c"/></radialGradient><radialGradient id="radial-gradient-4" cx="800.55" cy="747.88" r="445.04" gradientUnits="userSpaceOnUse"><stop offset="0" stop-color="#b8b5c1"/><stop offset="0.46" stop-color="#b6b5bc"/><stop offset="1" stop-color="#dadae0"/></radialGradient><radialGradient id="New_Gradient_Swatch_6" cx="807.61" cy="816.84" r="60.7" gradientUnits="userSpaceOnUse"><stop offset="0" stop-color="#fff"/><stop offset="1" stop-color="#acaab5"/></radialGradient><radialGradient id="radial-gradient-5" cx="807.61" cy="816.84" r="61.2" gradientTransform="matrix(1, 0, 0, 1, 0, 0)" xlink:href="#New_Gradient_Swatch_2"/></defs><title>DSR Silver Coin1</title><circle cx="800" cy="800" r="800" transform="translate(-331.19 800.18) rotate(-45)" fill="url(#linear-gradient)"/><circle cx="800" cy="800" r="779.1" transform="translate(-331.19 800.18) rotate(-45)" stroke-miterlimit="10" fill="url(#radial-gradient)" stroke="url(#New_Gradient_Swatch_7)"/><path d="M601.4,398.69c334.68-165.63,730.86-68.53,954.48,212.09a782.1,782.1,0,0,0-57.61-156.34C1307.42,68.79,840.08-89.13,454.43,101.72S-89.13,759.92,101.72,1145.57a782,782,0,0,0,89.37,140.63C103.61,938.2,266.71,564.32,601.4,398.69Z" transform="translate(0.18 0.18)" opacity="0.4" fill="url(#New_Gradient_Swatch_5)"/><circle cx="800" cy="800" r="671.64" transform="translate(-331.19 800.18) rotate(-45)" fill="url(#New_Gradient_Swatch_2)"/><ellipse cx="800" cy="800" rx="659.7" ry="659.71" transform="translate(-331.19 800.18) rotate(-45)" fill="url(#New_Gradient_Swatch_4)"/><circle cx="800.18" cy="800.18" r="635.82" fill="url(#New_Gradient_Swatch_2-2)"/><path d="M1359.73,523c153,309.14,26.4,683.76-282.73,836.74S393.26,1386.14,240.27,1077,213.87,393.26,523,240.27,1206.74,213.87,1359.73,523Z" transform="translate(0.18 0.18)" fill="url(#radial-gradient-2)"/><path d="M937.13,1355.75c-6.31,2,572.43-236.5,337.93-814.84,0,0,18.86-26.57,24-71C1299,470,1637.8,1134.58,937.13,1355.75Z" transform="translate(0.18 0.18)" opacity="0.07" fill="url(#linear-gradient-2)"/><path d="M1253.32,495l16.16-60.23s-58.16-113.29-176.14-136.38C1093.34,298.42,1237,402.85,1253.32,495Z" transform="translate(0.18 0.18)" opacity="0.07" fill="url(#linear-gradient-3)"/><path d="M609.45,247.65c6.18-2.39-556.11,272.65-285.07,834.79,0,0-17.12,27.73-19.39,72.36C305,1154.8-75.61,513.21,609.45,247.65Z" transform="translate(0.18 0.18)" opacity="0.1" fill="url(#linear-gradient-4)"/><path d="M1186.67,697.36c-12.4-39-28-66.68-44.53-95.57a769.48,769.48,0,0,0-54.09-82.1c-7.44-9.87-13.93-18-18.71-23.83q-40.23-47.1-80.54-94.15-55-64.18-110.06-128.25L709.14,391C758.48,457.3,799,508.53,827.58,543.89c27.25,33.71,51.58,69.69,78.27,103.84,11.65,14.91,30.37,38.59,46.49,73.62a279.5,279.5,0,0,1,16.85,46.59s8.31,28.61,8.31,53.76c0,124-127.56,218.28-258.66,158.71A156.2,156.2,0,0,1,641,901.56c-44.2-99.56,0-196.74,78.31-237.22a.08.08,0,0,0,0-.1l-66.07-94.37q-32.36-46.17-64.69-92.37A411.5,411.5,0,0,0,457.85,607.86c-26.28,42-61.48,115.48-62,210.93-.71,137.93,71.54,231.89,91,255.64,119.33,146,294.87,149,313.71,149,156.38.08,257.52-91.33,277.33-110,11.88-11.19,126.54-122.59,127.34-294.7A398.33,398.33,0,0,0,1186.67,697.36Z" transform="translate(0.18 0.18)" stroke-miterlimit="10" stroke-width="7" fill="url(#radial-gradient-3)" stroke="url(#radial-gradient-4)"/><circle id="d" cx="807.61" cy="816.84" r="60.7" stroke-miterlimit="10" fill="url(#New_Gradient_Swatch_6)" stroke="url(#radial-gradient-5)"/></svg>