<svg id="bg-splash" xmlns="http://www.w3.org/2000/svg" xmlns:xlink="http://www.w3.org/1999/xlink" viewBox="0 0 1017.44 725.84"><defs><style>.cls-1,.cls-2,.cls-8,.cls-9{fill:none;}.cls-1{stroke:#fff;stroke-width:0.3px;}.cls-1,.cls-10{stroke-miterlimit:10;}.cls-10,.cls-3{fill:#101919;}.cls-4{clip-path:url(#clip-path);}.cls-5{opacity:0.75;}.cls-6{mask:url(#mask);}.cls-7{fill:url(#radial-gradient);}.cls-8,.cls-9{stroke-miterlimit:10;stroke-width:0.5px;}.cls-8{stroke:url(#New_Gradient_Swatch_2);}.cls-9{stroke:url(#New_Gradient_Swatch_2-2);}.cls-10{stroke:url(#New_Gradient_Swatch_2-3);}</style><clipPath id="clip-path" transform="translate(267.01 102.91)"><rect class="cls-2" width="750" height="520"/></clipPath><mask id="mask" x="267.44" y="102.71" width="792.13" height="567.39" maskUnits="userSpaceOnUse"><g transform="translate(267.01 102.91)"><line class="cls-1" x1="676.97" y1="567.03" x2="697.96" y2="567.03"/><line class="cls-1" x1="614.04" y1="567.03" x2="635.03" y2="567.03"/><line class="cls-1" x1="551.11" y1="567.03" x2="572.1" y2="567.03"/><line class="cls-1" x1="488.18" y1="567.03" x2="509.17" y2="567.03"/><line class="cls-1" x1="425.25" y1="567.03" x2="446.24" y2="567.03"/><line class="cls-1" x1="362.32" y1="567.03" x2="383.31" y2="567.03"/><line class="cls-1" x1="299.39" y1="567.03" x2="320.37" y2="567.03"/><line class="cls-1" x1="236.46" y1="567.03" x2="257.44" y2="567.03"/><polygon class="cls-1" points="718.93 18.85 697.94 18.85 687.45 37.75 697.94 56.65 718.93 56.65 729.42 37.75 718.93 18.85"/><polygon class="cls-1" points="708.4 -0.06 687.41 -0.06 676.92 18.85 687.41 37.75 708.4 37.75 718.89 18.85 708.4 -0.06"/><polygon class="cls-1" points="697.94 18.85 676.95 18.85 666.46 37.75 676.95 56.65 697.94 56.65 708.43 37.75 697.94 18.85"/><polygon class="cls-1" points="781.89 18.85 760.9 18.85 750.41 37.75 760.9 56.65 781.89 56.65 792.38 37.75 781.89 18.85"/><polygon class="cls-1" points="771.36 -0.06 750.38 -0.06 739.88 18.85 750.38 37.75 771.36 37.75 781.86 18.85 771.36 -0.06"/><polygon class="cls-1" points="760.9 18.85 739.91 18.85 729.42 37.75 739.91 56.65 760.9 56.65 771.4 37.75 760.9 18.85"/><line class="cls-1" x1="708.4" y1="-0.06" x2="750.38" y2="-0.06"/><line class="cls-1" x1="718.93" y1="56.65" x2="739.92" y2="56.65"/><line class="cls-1" x1="718.89" y1="18.85" x2="739.92" y2="18.85"/><polygon class="cls-1" points="656 18.85 635.01 18.85 624.52 37.75 635.01 56.65 656 56.65 666.49 37.75 656 18.85"/><polygon class="cls-1" points="645.47 -0.06 624.48 -0.06 613.99 18.85 624.48 37.75 645.47 37.75 655.96 18.85 645.47 -0.06"/><polygon class="cls-1" points="635.01 18.85 614.02 18.85 603.53 37.75 614.02 56.65 635.01 56.65 645.5 37.75 635.01 18.85"/><line class="cls-1" x1="645.47" y1="-0.06" x2="687.45" y2="-0.06"/><line class="cls-1" x1="656" y1="56.65" x2="676.98" y2="56.65"/><line class="cls-1" x1="655.96" y1="18.85" x2="676.98" y2="18.85"/><polygon class="cls-1" points="593.07 18.85 572.08 18.85 561.59 37.75 572.08 56.65 593.07 56.65 603.56 37.75 593.07 18.85"/><polygon class="cls-1" points="582.54 -0.06 561.55 -0.06 551.06 18.85 561.55 37.75 582.54 37.75 593.03 18.85 582.54 -0.06"/><polygon class="cls-1" points="572.08 18.85 551.09 18.85 540.6 37.75 551.09 56.65 572.08 56.65 582.57 37.75 572.08 18.85"/><line class="cls-1" x1="582.54" y1="-0.06" x2="624.52" y2="-0.06"/><line class="cls-1" x1="593.07" y1="56.65" x2="614.05" y2="56.65"/><line class="cls-1" x1="593.03" y1="18.85" x2="614.05" y2="18.85"/><polygon class="cls-1" points="530.14 18.85 509.15 18.85 498.65 37.75 509.15 56.65 530.14 56.65 540.63 37.75 530.14 18.85"/><polygon class="cls-1" points="519.61 -0.06 498.62 -0.06 488.13 18.85 498.62 37.75 519.61 37.75 530.1 18.85 519.61 -0.06"/><polygon class="cls-1" points="509.15 18.85 488.16 18.85 477.67 37.75 488.16 56.65 509.15 56.65 519.64 37.75 509.15 18.85"/><line class="cls-1" x1="519.61" y1="-0.06" x2="561.59" y2="-0.06"/><line class="cls-1" x1="530.14" y1="56.65" x2="551.12" y2="56.65"/><line class="cls-1" x1="530.1" y1="18.85" x2="551.12" y2="18.85"/><polygon class="cls-1" points="467.21 18.85 446.22 18.85 435.73 37.75 446.22 56.65 467.21 56.65 477.7 37.75 467.21 18.85"/><polygon class="cls-1" points="456.68 -0.06 435.69 -0.06 425.2 18.85 435.69 37.75 456.68 37.75 467.17 18.85 456.68 -0.06"/><polygon class="cls-1" points="446.22 18.85 425.23 18.85 414.74 37.75 425.23 56.65 446.22 56.65 456.71 37.75 446.22 18.85"/><line class="cls-1" x1="456.68" y1="-0.06" x2="498.66" y2="-0.06"/><line class="cls-1" x1="467.21" y1="56.65" x2="488.19" y2="56.65"/><line class="cls-1" x1="467.17" y1="18.85" x2="488.19" y2="18.85"/><polygon class="cls-1" points="404.28 18.85 383.29 18.85 372.8 37.75 383.29 56.65 404.28 56.65 414.77 37.75 404.28 18.85"/><polygon class="cls-1" points="393.75 -0.06 372.76 -0.06 362.27 18.85 372.76 37.75 393.75 37.75 404.24 18.85 393.75 -0.06"/><polygon class="cls-1" points="383.29 18.85 362.3 18.85 351.81 37.75 362.3 56.65 383.29 56.65 393.78 37.75 383.29 18.85"/><line class="cls-1" x1="393.75" y1="-0.06" x2="435.73" y2="-0.06"/><line class="cls-1" x1="404.28" y1="56.65" x2="425.26" y2="56.65"/><line class="cls-1" x1="404.24" y1="18.85" x2="425.26" y2="18.85"/><polygon class="cls-1" points="341.35 18.85 320.36 18.85 309.87 37.75 320.36 56.65 341.35 56.65 351.84 37.75 341.35 18.85"/><polygon class="cls-1" points="330.82 -0.06 309.83 -0.06 299.34 18.85 309.83 37.75 330.82 37.75 341.31 18.85 330.82 -0.06"/><polygon class="cls-1" points="320.36 18.85 299.37 18.85 288.88 37.75 299.37 56.65 320.36 56.65 330.85 37.75 320.36 18.85"/><line class="cls-1" x1="330.82" y1="-0.06" x2="372.79" y2="-0.06"/><line class="cls-1" x1="341.35" y1="56.65" x2="362.33" y2="56.65"/><line class="cls-1" x1="341.31" y1="18.85" x2="362.33" y2="18.85"/><polygon class="cls-1" points="278.42 18.85 257.43 18.85 246.93 37.75 257.43 56.65 278.42 56.65 288.91 37.75 278.42 18.85"/><polygon class="cls-1" points="267.89 -0.06 246.9 -0.06 236.41 18.85 246.9 37.75 267.89 37.75 278.38 18.85 267.89 -0.06"/><polygon class="cls-1" points="257.43 18.85 236.44 18.85 225.95 37.75 236.44 56.65 257.43 56.65 267.92 37.75 257.43 18.85"/><line class="cls-1" x1="267.89" y1="-0.06" x2="309.86" y2="-0.06"/><line class="cls-1" x1="278.42" y1="56.65" x2="299.4" y2="56.65"/><line class="cls-1" x1="278.38" y1="18.85" x2="299.4" y2="18.85"/><polygon class="cls-1" points="718.93 75.56 697.94 75.56 687.45 94.46 697.94 113.36 718.93 113.36 729.42 94.46 718.93 75.56"/><polygon class="cls-1" points="708.4 56.65 687.41 56.65 676.92 75.56 687.41 94.46 708.4 94.46 718.89 75.56 708.4 56.65"/><polygon class="cls-1" points="697.94 75.56 676.95 75.56 666.46 94.46 676.95 113.36 697.94 113.36 708.43 94.46 697.94 75.56"/><polygon class="cls-1" points="781.89 75.56 760.9 75.56 750.41 94.46 760.9 113.36 781.89 113.36 792.38 94.46 781.89 75.56"/><polygon class="cls-1" points="771.36 56.65 750.38 56.65 739.88 75.56 750.38 94.46 771.36 94.46 781.86 75.56 771.36 56.65"/><polygon class="cls-1" points="760.9 75.56 739.91 75.56 729.42 94.46 739.91 113.36 760.9 113.36 771.4 94.46 760.9 75.56"/><line class="cls-1" x1="708.4" y1="56.65" x2="750.38" y2="56.65"/><line class="cls-1" x1="718.93" y1="113.36" x2="739.92" y2="113.36"/><line class="cls-1" x1="718.89" y1="75.56" x2="739.92" y2="75.56"/><polygon class="cls-1" points="656 75.56 635.01 75.56 624.52 94.46 635.01 113.36 656 113.36 666.49 94.46 656 75.56"/><polygon class="cls-1" points="645.47 56.65 624.48 56.65 613.99 75.56 624.48 94.46 645.47 94.46 655.96 75.56 645.47 56.65"/><polygon class="cls-1" points="635.01 75.56 614.02 75.56 603.53 94.46 614.02 113.36 635.01 113.36 645.5 94.46 635.01 75.56"/><line class="cls-1" x1="645.47" y1="56.65" x2="687.45" y2="56.65"/><line class="cls-1" x1="656" y1="113.36" x2="676.98" y2="113.36"/><line class="cls-1" x1="655.96" y1="75.56" x2="676.98" y2="75.56"/><polygon class="cls-1" points="593.07 75.56 572.08 75.56 561.59 94.46 572.08 113.36 593.07 113.36 603.56 94.46 593.07 75.56"/><polygon class="cls-1" points="582.54 56.65 561.55 56.65 551.06 75.56 561.55 94.46 582.54 94.46 593.03 75.56 582.54 56.65"/><polygon class="cls-1" points="572.08 75.56 551.09 75.56 540.6 94.46 551.09 113.36 572.08 113.36 582.57 94.46 572.08 75.56"/><line class="cls-1" x1="582.54" y1="56.65" x2="624.52" y2="56.65"/><line class="cls-1" x1="593.07" y1="113.36" x2="614.05" y2="113.36"/><line class="cls-1" x1="593.03" y1="75.56" x2="614.05" y2="75.56"/><polygon class="cls-1" points="530.14 75.56 509.15 75.56 498.65 94.46 509.15 113.36 530.14 113.36 540.63 94.46 530.14 75.56"/><polygon class="cls-1" points="519.61 56.65 498.62 56.65 488.13 75.56 498.62 94.46 519.61 94.46 530.1 75.56 519.61 56.65"/><polygon class="cls-1" points="509.15 75.56 488.16 75.56 477.67 94.46 488.16 113.36 509.15 113.36 519.64 94.46 509.15 75.56"/><line class="cls-1" x1="519.61" y1="56.65" x2="561.59" y2="56.65"/><line class="cls-1" x1="530.14" y1="113.36" x2="551.12" y2="113.36"/><line class="cls-1" x1="530.1" y1="75.56" x2="551.12" y2="75.56"/><polygon class="cls-1" points="467.21 75.56 446.22 75.56 435.73 94.46 446.22 113.36 467.21 113.36 477.7 94.46 467.21 75.56"/><polygon class="cls-1" points="456.68 56.65 435.69 56.65 425.2 75.56 435.69 94.46 456.68 94.46 467.17 75.56 456.68 56.65"/><polygon class="cls-1" points="446.22 75.56 425.23 75.56 414.74 94.46 425.23 113.36 446.22 113.36 456.71 94.46 446.22 75.56"/><line class="cls-1" x1="456.68" y1="56.65" x2="498.66" y2="56.65"/><line class="cls-1" x1="467.21" y1="113.36" x2="488.19" y2="113.36"/><line class="cls-1" x1="467.17" y1="75.56" x2="488.19" y2="75.56"/><polygon class="cls-1" points="404.28 75.56 383.29 75.56 372.8 94.46 383.29 113.36 404.28 113.36 414.77 94.46 404.28 75.56"/><polygon class="cls-1" points="393.75 56.65 372.76 56.65 362.27 75.56 372.76 94.46 393.75 94.46 404.24 75.56 393.75 56.65"/><polygon class="cls-1" points="383.29 75.56 362.3 75.56 351.81 94.46 362.3 113.36 383.29 113.36 393.78 94.46 383.29 75.56"/><line class="cls-1" x1="393.75" y1="56.65" x2="435.73" y2="56.65"/><line class="cls-1" x1="404.28" y1="113.36" x2="425.26" y2="113.36"/><line class="cls-1" x1="404.24" y1="75.56" x2="425.26" y2="75.56"/><polygon class="cls-1" points="341.35 75.56 320.36 75.56 309.87 94.46 320.36 113.36 341.35 113.36 351.84 94.46 341.35 75.56"/><polygon class="cls-1" points="330.82 56.65 309.83 56.65 299.34 75.56 309.83 94.46 330.82 94.46 341.31 75.56 330.82 56.65"/><polygon class="cls-1" points="320.36 75.56 299.37 75.56 288.88 94.46 299.37 113.36 320.36 113.36 330.85 94.46 320.36 75.56"/><line class="cls-1" x1="330.82" y1="56.65" x2="372.79" y2="56.65"/><line class="cls-1" x1="341.35" y1="113.36" x2="362.33" y2="113.36"/><line class="cls-1" x1="341.31" y1="75.56" x2="362.33" y2="75.56"/><polygon class="cls-1" points="278.42 75.56 257.43 75.56 246.93 94.46 257.43 113.36 278.42 113.36 288.91 94.46 278.42 75.56"/><polygon class="cls-1" points="267.89 56.65 246.9 56.65 236.41 75.56 246.9 94.46 267.89 94.46 278.38 75.56 267.89 56.65"/><polygon class="cls-1" points="257.43 75.56 236.44 75.56 225.95 94.46 236.44 113.36 257.43 113.36 267.92 94.46 257.43 75.56"/><line class="cls-1" x1="267.89" y1="56.65" x2="309.86" y2="56.65"/><line class="cls-1" x1="278.42" y1="113.36" x2="299.4" y2="113.36"/><line class="cls-1" x1="278.38" y1="75.56" x2="299.4" y2="75.56"/><polygon class="cls-1" points="718.93 132.26 697.94 132.26 687.45 151.17 697.94 170.07 718.93 170.07 729.42 151.17 718.93 132.26"/><polygon class="cls-1" points="708.4 113.36 687.41 113.36 676.92 132.26 687.41 151.17 708.4 151.17 718.89 132.26 708.4 113.36"/><polygon class="cls-1" points="697.94 132.26 676.95 132.26 666.46 151.17 676.95 170.07 697.94 170.07 708.43 151.17 697.94 132.26"/><polygon class="cls-1" points="781.89 132.26 760.9 132.26 750.41 151.17 760.9 170.07 781.89 170.07 792.38 151.17 781.89 132.26"/><polygon class="cls-1" points="771.36 113.36 750.38 113.36 739.88 132.26 750.38 151.17 771.36 151.17 781.86 132.26 771.36 113.36"/><polygon class="cls-1" points="760.9 132.26 739.91 132.26 729.42 151.17 739.91 170.07 760.9 170.07 771.4 151.17 760.9 132.26"/><line class="cls-1" x1="708.4" y1="113.36" x2="750.38" y2="113.36"/><line class="cls-1" x1="718.93" y1="170.07" x2="739.92" y2="170.07"/><line class="cls-1" x1="718.89" y1="132.27" x2="739.92" y2="132.27"/><polygon class="cls-1" points="656 132.26 635.01 132.26 624.52 151.17 635.01 170.07 656 170.07 666.49 151.17 656 132.26"/><polygon class="cls-1" points="645.47 113.36 624.48 113.36 613.99 132.26 624.48 151.17 645.47 151.17 655.96 132.26 645.47 113.36"/><polygon class="cls-1" points="635.01 132.26 614.02 132.26 603.53 151.17 614.02 170.07 635.01 170.07 645.5 151.17 635.01 132.26"/><line class="cls-1" x1="645.47" y1="113.36" x2="687.45" y2="113.36"/><line class="cls-1" x1="656" y1="170.07" x2="676.98" y2="170.07"/><line class="cls-1" x1="655.96" y1="132.27" x2="676.98" y2="132.27"/><polygon class="cls-1" points="593.07 132.26 572.08 132.26 561.59 151.17 572.08 170.07 593.07 170.07 603.56 151.17 593.07 132.26"/><polygon class="cls-1" points="582.54 113.36 561.55 113.36 551.06 132.26 561.55 151.17 582.54 151.17 593.03 132.26 582.54 113.36"/><polygon class="cls-1" points="572.08 132.26 551.09 132.26 540.6 151.17 551.09 170.07 572.08 170.07 582.57 151.17 572.08 132.26"/><line class="cls-1" x1="582.54" y1="113.36" x2="624.52" y2="113.36"/><line class="cls-1" x1="593.07" y1="170.07" x2="614.05" y2="170.07"/><line class="cls-1" x1="593.03" y1="132.27" x2="614.05" y2="132.27"/><polygon class="cls-1" points="530.14 132.26 509.15 132.26 498.65 151.17 509.15 170.07 530.14 170.07 540.63 151.17 530.14 132.26"/><polygon class="cls-1" points="519.61 113.36 498.62 113.36 488.13 132.26 498.62 151.17 519.61 151.17 530.1 132.26 519.61 113.36"/><polygon class="cls-1" points="509.15 132.26 488.16 132.26 477.67 151.17 488.16 170.07 509.15 170.07 519.64 151.17 509.15 132.26"/><line class="cls-1" x1="519.61" y1="113.36" x2="561.59" y2="113.36"/><line class="cls-1" x1="530.14" y1="170.07" x2="551.12" y2="170.07"/><line class="cls-1" x1="530.1" y1="132.27" x2="551.12" y2="132.27"/><polygon class="cls-1" points="467.21 132.26 446.22 132.26 435.73 151.17 446.22 170.07 467.21 170.07 477.7 151.17 467.21 132.26"/><polygon class="cls-1" points="456.68 113.36 435.69 113.36 425.2 132.26 435.69 151.17 456.68 151.17 467.17 132.26 456.68 113.36"/><polygon class="cls-1" points="446.22 132.26 425.23 132.26 414.74 151.17 425.23 170.07 446.22 170.07 456.71 151.17 446.22 132.26"/><line class="cls-1" x1="456.68" y1="113.36" x2="498.66" y2="113.36"/><line class="cls-1" x1="467.21" y1="170.07" x2="488.19" y2="170.07"/><line class="cls-1" x1="467.17" y1="132.27" x2="488.19" y2="132.27"/><polygon class="cls-1" points="404.28 132.26 383.29 132.26 372.8 151.17 383.29 170.07 404.28 170.07 414.77 151.17 404.28 132.26"/><polygon class="cls-1" points="393.75 113.36 372.76 113.36 362.27 132.26 372.76 151.17 393.75 151.17 404.24 132.26 393.75 113.36"/><polygon class="cls-1" points="383.29 132.26 362.3 132.26 351.81 151.17 362.3 170.07 383.29 170.07 393.78 151.17 383.29 132.26"/><line class="cls-1" x1="393.75" y1="113.36" x2="435.73" y2="113.36"/><line class="cls-1" x1="404.28" y1="170.07" x2="425.26" y2="170.07"/><line class="cls-1" x1="404.24" y1="132.27" x2="425.26" y2="132.27"/><polygon class="cls-1" points="341.35 132.26 320.36 132.26 309.87 151.17 320.36 170.07 341.35 170.07 351.84 151.17 341.35 132.26"/><polygon class="cls-1" points="330.82 113.36 309.83 113.36 299.34 132.26 309.83 151.17 330.82 151.17 341.31 132.26 330.82 113.36"/><polygon class="cls-1" points="320.36 132.26 299.37 132.26 288.88 151.17 299.37 170.07 320.36 170.07 330.85 151.17 320.36 132.26"/><line class="cls-1" x1="330.82" y1="113.36" x2="372.79" y2="113.36"/><line class="cls-1" x1="341.35" y1="170.07" x2="362.33" y2="170.07"/><line class="cls-1" x1="341.31" y1="132.27" x2="362.33" y2="132.27"/><polygon class="cls-1" points="278.42 132.26 257.43 132.26 246.93 151.17 257.43 170.07 278.42 170.07 288.91 151.17 278.42 132.26"/><polygon class="cls-1" points="267.89 113.36 246.9 113.36 236.41 132.26 246.9 151.17 267.89 151.17 278.38 132.26 267.89 113.36"/><polygon class="cls-1" points="257.43 132.26 236.44 132.26 225.95 151.17 236.44 170.07 257.43 170.07 267.92 151.17 257.43 132.26"/><line class="cls-1" x1="267.89" y1="113.36" x2="309.86" y2="113.36"/><line class="cls-1" x1="278.42" y1="170.07" x2="299.4" y2="170.07"/><line class="cls-1" x1="278.38" y1="132.27" x2="299.4" y2="132.27"/><polygon class="cls-1" points="718.93 188.97 697.94 188.97 687.45 207.88 697.94 226.78 718.93 226.78 729.42 207.88 718.93 188.97"/><polygon class="cls-1" points="708.4 170.07 687.41 170.07 676.92 188.97 687.41 207.88 708.4 207.88 718.89 188.97 708.4 170.07"/><polygon class="cls-1" points="697.94 188.97 676.95 188.97 666.46 207.88 676.95 226.78 697.94 226.78 708.43 207.88 697.94 188.97"/><polygon class="cls-1" points="781.89 188.97 760.9 188.97 750.41 207.88 760.9 226.78 781.89 226.78 792.38 207.88 781.89 188.97"/><polygon class="cls-1" points="771.36 170.07 750.38 170.07 739.88 188.97 750.38 207.88 771.36 207.88 781.86 188.97 771.36 170.07"/><polygon class="cls-1" points="760.9 188.97 739.91 188.97 729.42 207.88 739.91 226.78 760.9 226.78 771.4 207.88 760.9 188.97"/><line class="cls-1" x1="708.4" y1="170.07" x2="750.38" y2="170.07"/><line class="cls-1" x1="718.93" y1="226.78" x2="739.92" y2="226.78"/><line class="cls-1" x1="718.89" y1="188.97" x2="739.92" y2="188.97"/><polygon class="cls-1" points="656 188.97 635.01 188.97 624.52 207.88 635.01 226.78 656 226.78 666.49 207.88 656 188.97"/><polygon class="cls-1" points="645.47 170.07 624.48 170.07 613.99 188.97 624.48 207.88 645.47 207.88 655.96 188.97 645.47 170.07"/><polygon class="cls-1" points="635.01 188.97 614.02 188.97 603.53 207.88 614.02 226.78 635.01 226.78 645.5 207.88 635.01 188.97"/><line class="cls-1" x1="645.47" y1="170.07" x2="687.45" y2="170.07"/><line class="cls-1" x1="656" y1="226.78" x2="676.98" y2="226.78"/><line class="cls-1" x1="655.96" y1="188.97" x2="676.98" y2="188.97"/><polygon class="cls-1" points="593.07 188.97 572.08 188.97 561.59 207.88 572.08 226.78 593.07 226.78 603.56 207.88 593.07 188.97"/><polygon class="cls-1" points="582.54 170.07 561.55 170.07 551.06 188.97 561.55 207.88 582.54 207.88 593.03 188.97 582.54 170.07"/><polygon class="cls-1" points="572.08 188.97 551.09 188.97 540.6 207.88 551.09 226.78 572.08 226.78 582.57 207.88 572.08 188.97"/><line class="cls-1" x1="582.54" y1="170.07" x2="624.52" y2="170.07"/><line class="cls-1" x1="593.07" y1="226.78" x2="614.05" y2="226.78"/><line class="cls-1" x1="593.03" y1="188.97" x2="614.05" y2="188.97"/><polygon class="cls-1" points="530.14 188.97 509.15 188.97 498.65 207.88 509.15 226.78 530.14 226.78 540.63 207.88 530.14 188.97"/><polygon class="cls-1" points="519.61 170.07 498.62 170.07 488.13 188.97 498.62 207.88 519.61 207.88 530.1 188.97 519.61 170.07"/><polygon class="cls-1" points="509.15 188.97 488.16 188.97 477.67 207.88 488.16 226.78 509.15 226.78 519.64 207.88 509.15 188.97"/><line class="cls-1" x1="519.61" y1="170.07" x2="561.59" y2="170.07"/><line class="cls-1" x1="530.14" y1="226.78" x2="551.12" y2="226.78"/><line class="cls-1" x1="530.1" y1="188.97" x2="551.12" y2="188.97"/><polygon class="cls-1" points="467.21 188.97 446.22 188.97 435.73 207.88 446.22 226.78 467.21 226.78 477.7 207.88 467.21 188.97"/><polygon class="cls-1" points="456.68 170.07 435.69 170.07 425.2 188.97 435.69 207.88 456.68 207.88 467.17 188.97 456.68 170.07"/><polygon class="cls-1" points="446.22 188.97 425.23 188.97 414.74 207.88 425.23 226.78 446.22 226.78 456.71 207.88 446.22 188.97"/><line class="cls-1" x1="456.68" y1="170.07" x2="498.66" y2="170.07"/><line class="cls-1" x1="467.21" y1="226.78" x2="488.19" y2="226.78"/><line class="cls-1" x1="467.17" y1="188.97" x2="488.19" y2="188.97"/><polygon class="cls-1" points="404.28 188.97 383.29 188.97 372.8 207.88 383.29 226.78 404.28 226.78 414.77 207.88 404.28 188.97"/><polygon class="cls-1" points="393.75 170.07 372.76 170.07 362.27 188.97 372.76 207.88 393.75 207.88 404.24 188.97 393.75 170.07"/><polygon class="cls-1" points="383.29 188.97 362.3 188.97 351.81 207.88 362.3 226.78 383.29 226.78 393.78 207.88 383.29 188.97"/><line class="cls-1" x1="393.75" y1="170.07" x2="435.73" y2="170.07"/><line class="cls-1" x1="404.28" y1="226.78" x2="425.26" y2="226.78"/><line class="cls-1" x1="404.24" y1="188.97" x2="425.26" y2="188.97"/><polygon class="cls-1" points="341.35 188.97 320.36 188.97 309.87 207.88 320.36 226.78 341.35 226.78 351.84 207.88 341.35 188.97"/><polygon class="cls-1" points="330.82 170.07 309.83 170.07 299.34 188.97 309.83 207.88 330.82 207.88 341.31 188.97 330.82 170.07"/><polygon class="cls-1" points="320.36 188.97 299.37 188.97 288.88 207.88 299.37 226.78 320.36 226.78 330.85 207.88 320.36 188.97"/><line class="cls-1" x1="330.82" y1="170.07" x2="372.79" y2="170.07"/><line class="cls-1" x1="341.35" y1="226.78" x2="362.33" y2="226.78"/><line class="cls-1" x1="341.31" y1="188.97" x2="362.33" y2="188.97"/><polygon class="cls-1" points="278.42 188.97 257.43 188.97 246.93 207.88 257.43 226.78 278.42 226.78 288.91 207.88 278.42 188.97"/><polygon class="cls-1" points="267.89 170.07 246.9 170.07 236.41 188.97 246.9 207.88 267.89 207.88 278.38 188.97 267.89 170.07"/><polygon class="cls-1" points="257.43 188.97 236.44 188.97 225.95 207.88 236.44 226.78 257.43 226.78 267.92 207.88 257.43 188.97"/><line class="cls-1" x1="267.89" y1="170.07" x2="309.86" y2="170.07"/><line class="cls-1" x1="278.42" y1="226.78" x2="299.4" y2="226.78"/><line class="cls-1" x1="278.38" y1="188.97" x2="299.4" y2="188.97"/><polygon class="cls-1" points="718.93 245.68 697.94 245.68 687.45 264.59 697.94 283.49 718.93 283.49 729.42 264.59 718.93 245.68"/><polygon class="cls-1" points="708.4 226.78 687.41 226.78 676.92 245.68 687.41 264.59 708.4 264.59 718.89 245.68 708.4 226.78"/><polygon class="cls-1" points="697.94 245.68 676.95 245.68 666.46 264.59 676.95 283.49 697.94 283.49 708.43 264.59 697.94 245.68"/><polygon class="cls-1" points="781.89 245.68 760.9 245.68 750.41 264.59 760.9 283.49 781.89 283.49 792.38 264.59 781.89 245.68"/><polygon class="cls-1" points="771.36 226.78 750.38 226.78 739.88 245.68 750.38 264.59 771.36 264.59 781.86 245.68 771.36 226.78"/><polygon class="cls-1" points="760.9 245.68 739.91 245.68 729.42 264.59 739.91 283.49 760.9 283.49 771.4 264.59 760.9 245.68"/><line class="cls-1" x1="708.4" y1="226.78" x2="750.38" y2="226.78"/><line class="cls-1" x1="718.93" y1="283.49" x2="739.92" y2="283.49"/><line class="cls-1" x1="718.89" y1="245.68" x2="739.92" y2="245.68"/><polygon class="cls-1" points="656 245.68 635.01 245.68 624.52 264.59 635.01 283.49 656 283.49 666.49 264.59 656 245.68"/><polygon class="cls-1" points="645.47 226.78 624.48 226.78 613.99 245.68 624.48 264.59 645.47 264.59 655.96 245.68 645.47 226.78"/><polygon class="cls-1" points="635.01 245.68 614.02 245.68 603.53 264.59 614.02 283.49 635.01 283.49 645.5 264.59 635.01 245.68"/><line class="cls-1" x1="645.47" y1="226.78" x2="687.45" y2="226.78"/><line class="cls-1" x1="656" y1="283.49" x2="676.98" y2="283.49"/><line class="cls-1" x1="655.96" y1="245.68" x2="676.98" y2="245.68"/><polygon class="cls-1" points="593.07 245.68 572.08 245.68 561.59 264.59 572.08 283.49 593.07 283.49 603.56 264.59 593.07 245.68"/><polygon class="cls-1" points="582.54 226.78 561.55 226.78 551.06 245.68 561.55 264.59 582.54 264.59 593.03 245.68 582.54 226.78"/><polygon class="cls-1" points="572.08 245.68 551.09 245.68 540.6 264.59 551.09 283.49 572.08 283.49 582.57 264.59 572.08 245.68"/><line class="cls-1" x1="582.54" y1="226.78" x2="624.52" y2="226.78"/><line class="cls-1" x1="593.07" y1="283.49" x2="614.05" y2="283.49"/><line class="cls-1" x1="593.03" y1="245.68" x2="614.05" y2="245.68"/><polygon class="cls-1" points="530.14 245.68 509.15 245.68 498.65 264.59 509.15 283.49 530.14 283.49 540.63 264.59 530.14 245.68"/><polygon class="cls-1" points="519.61 226.78 498.62 226.78 488.13 245.68 498.62 264.59 519.61 264.59 530.1 245.68 519.61 226.78"/><polygon class="cls-1" points="509.15 245.68 488.16 245.68 477.67 264.59 488.16 283.49 509.15 283.49 519.64 264.59 509.15 245.68"/><line class="cls-1" x1="519.61" y1="226.78" x2="561.59" y2="226.78"/><line class="cls-1" x1="530.14" y1="283.49" x2="551.12" y2="283.49"/><line class="cls-1" x1="530.1" y1="245.68" x2="551.12" y2="245.68"/><polygon class="cls-1" points="467.21 245.68 446.22 245.68 435.73 264.59 446.22 283.49 467.21 283.49 477.7 264.59 467.21 245.68"/><polygon class="cls-1" points="456.68 226.78 435.69 226.78 425.2 245.68 435.69 264.59 456.68 264.59 467.17 245.68 456.68 226.78"/><polygon class="cls-1" points="446.22 245.68 425.23 245.68 414.74 264.59 425.23 283.49 446.22 283.49 456.71 264.59 446.22 245.68"/><line class="cls-1" x1="456.68" y1="226.78" x2="498.66" y2="226.78"/><line class="cls-1" x1="467.21" y1="283.49" x2="488.19" y2="283.49"/><line class="cls-1" x1="467.17" y1="245.68" x2="488.19" y2="245.68"/><polygon class="cls-1" points="404.28 245.68 383.29 245.68 372.8 264.59 383.29 283.49 404.28 283.49 414.77 264.59 404.28 245.68"/><polygon class="cls-1" points="393.75 226.78 372.76 226.78 362.27 245.68 372.76 264.59 393.75 264.59 404.24 245.68 393.75 226.78"/><polygon class="cls-1" points="383.29 245.68 362.3 245.68 351.81 264.59 362.3 283.49 383.29 283.49 393.78 264.59 383.29 245.68"/><line class="cls-1" x1="393.75" y1="226.78" x2="435.73" y2="226.78"/><line class="cls-1" x1="404.28" y1="283.49" x2="425.26" y2="283.49"/><line class="cls-1" x1="404.24" y1="245.68" x2="425.26" y2="245.68"/><polygon class="cls-1" points="341.35 245.68 320.36 245.68 309.87 264.59 320.36 283.49 341.35 283.49 351.84 264.59 341.35 245.68"/><polygon class="cls-1" points="330.82 226.78 309.83 226.78 299.34 245.68 309.83 264.59 330.82 264.59 341.31 245.68 330.82 226.78"/><polygon class="cls-1" points="320.36 245.68 299.37 245.68 288.88 264.59 299.37 283.49 320.36 283.49 330.85 264.59 320.36 245.68"/><line class="cls-1" x1="330.82" y1="226.78" x2="372.79" y2="226.78"/><line class="cls-1" x1="341.35" y1="283.49" x2="362.33" y2="283.49"/><line class="cls-1" x1="341.31" y1="245.68" x2="362.33" y2="245.68"/><polygon class="cls-1" points="278.42 245.68 257.43 245.68 246.93 264.59 257.43 283.49 278.42 283.49 288.91 264.59 278.42 245.68"/><polygon class="cls-1" points="267.89 226.78 246.9 226.78 236.41 245.68 246.9 264.59 267.89 264.59 278.38 245.68 267.89 226.78"/><polygon class="cls-1" points="257.43 245.68 236.44 245.68 225.95 264.59 236.44 283.49 257.43 283.49 267.92 264.59 257.43 245.68"/><line class="cls-1" x1="267.89" y1="226.78" x2="309.86" y2="226.78"/><line class="cls-1" x1="278.42" y1="283.49" x2="299.4" y2="283.49"/><line class="cls-1" x1="278.38" y1="245.68" x2="299.4" y2="245.68"/><polygon class="cls-1" points="718.93 302.39 697.94 302.39 687.45 321.3 697.94 340.2 718.93 340.2 729.42 321.3 718.93 302.39"/><polygon class="cls-1" points="708.4 283.49 687.41 283.49 676.92 302.39 687.41 321.3 708.4 321.3 718.89 302.39 708.4 283.49"/><polygon class="cls-1" points="697.94 302.39 676.95 302.39 666.46 321.3 676.95 340.2 697.94 340.2 708.43 321.3 697.94 302.39"/><polygon class="cls-1" points="781.89 302.39 760.9 302.39 750.41 321.3 760.9 340.2 781.89 340.2 792.38 321.3 781.89 302.39"/><polygon class="cls-1" points="771.36 283.49 750.38 283.49 739.88 302.39 750.38 321.3 771.36 321.3 781.86 302.39 771.36 283.49"/><polygon class="cls-1" points="760.9 302.39 739.91 302.39 729.42 321.3 739.91 340.2 760.9 340.2 771.4 321.3 760.9 302.39"/><line class="cls-1" x1="708.4" y1="283.49" x2="750.38" y2="283.49"/><line class="cls-1" x1="718.93" y1="340.2" x2="739.92" y2="340.2"/><line class="cls-1" x1="718.89" y1="302.39" x2="739.92" y2="302.39"/><polygon class="cls-1" points="656 302.39 635.01 302.39 624.52 321.3 635.01 340.2 656 340.2 666.49 321.3 656 302.39"/><polygon class="cls-1" points="645.47 283.49 624.48 283.49 613.99 302.39 624.48 321.3 645.47 321.3 655.96 302.39 645.47 283.49"/><polygon class="cls-1" points="635.01 302.39 614.02 302.39 603.53 321.3 614.02 340.2 635.01 340.2 645.5 321.3 635.01 302.39"/><line class="cls-1" x1="645.47" y1="283.49" x2="687.45" y2="283.49"/><line class="cls-1" x1="656" y1="340.2" x2="676.98" y2="340.2"/><line class="cls-1" x1="655.96" y1="302.39" x2="676.98" y2="302.39"/><polygon class="cls-1" points="593.07 302.39 572.08 302.39 561.59 321.3 572.08 340.2 593.07 340.2 603.56 321.3 593.07 302.39"/><polygon class="cls-1" points="582.54 283.49 561.55 283.49 551.06 302.39 561.55 321.3 582.54 321.3 593.03 302.39 582.54 283.49"/><polygon class="cls-1" points="572.08 302.39 551.09 302.39 540.6 321.3 551.09 340.2 572.08 340.2 582.57 321.3 572.08 302.39"/><line class="cls-1" x1="582.54" y1="283.49" x2="624.52" y2="283.49"/><line class="cls-1" x1="593.07" y1="340.2" x2="614.05" y2="340.2"/><line class="cls-1" x1="593.03" y1="302.39" x2="614.05" y2="302.39"/><polygon class="cls-1" points="530.14 302.39 509.15 302.39 498.65 321.3 509.15 340.2 530.14 340.2 540.63 321.3 530.14 302.39"/><polygon class="cls-1" points="519.61 283.49 498.62 283.49 488.13 302.39 498.62 321.3 519.61 321.3 530.1 302.39 519.61 283.49"/><polygon class="cls-1" points="509.15 302.39 488.16 302.39 477.67 321.3 488.16 340.2 509.15 340.2 519.64 321.3 509.15 302.39"/><line class="cls-1" x1="519.61" y1="283.49" x2="561.59" y2="283.49"/><line class="cls-1" x1="530.14" y1="340.2" x2="551.12" y2="340.2"/><line class="cls-1" x1="530.1" y1="302.39" x2="551.12" y2="302.39"/><polygon class="cls-1" points="467.21 302.39 446.22 302.39 435.73 321.3 446.22 340.2 467.21 340.2 477.7 321.3 467.21 302.39"/><polygon class="cls-1" points="456.68 283.49 435.69 283.49 425.2 302.39 435.69 321.3 456.68 321.3 467.17 302.39 456.68 283.49"/><polygon class="cls-1" points="446.22 302.39 425.23 302.39 414.74 321.3 425.23 340.2 446.22 340.2 456.71 321.3 446.22 302.39"/><line class="cls-1" x1="456.68" y1="283.49" x2="498.66" y2="283.49"/><line class="cls-1" x1="467.21" y1="340.2" x2="488.19" y2="340.2"/><line class="cls-1" x1="467.17" y1="302.39" x2="488.19" y2="302.39"/><polygon class="cls-1" points="404.28 302.39 383.29 302.39 372.8 321.3 383.29 340.2 404.28 340.2 414.77 321.3 404.28 302.39"/><polygon class="cls-1" points="393.75 283.49 372.76 283.49 362.27 302.39 372.76 321.3 393.75 321.3 404.24 302.39 393.75 283.49"/><polygon class="cls-1" points="383.29 302.39 362.3 302.39 351.81 321.3 362.3 340.2 383.29 340.2 393.78 321.3 383.29 302.39"/><line class="cls-1" x1="393.75" y1="283.49" x2="435.73" y2="283.49"/><line class="cls-1" x1="404.28" y1="340.2" x2="425.26" y2="340.2"/><line class="cls-1" x1="404.24" y1="302.39" x2="425.26" y2="302.39"/><polygon class="cls-1" points="341.35 302.39 320.36 302.39 309.87 321.3 320.36 340.2 341.35 340.2 351.84 321.3 341.35 302.39"/><polygon class="cls-1" points="330.82 283.49 309.83 283.49 299.34 302.39 309.83 321.3 330.82 321.3 341.31 302.39 330.82 283.49"/><polygon class="cls-1" points="320.36 302.39 299.37 302.39 288.88 321.3 299.37 340.2 320.36 340.2 330.85 321.3 320.36 302.39"/><line class="cls-1" x1="330.82" y1="283.49" x2="372.79" y2="283.49"/><line class="cls-1" x1="341.35" y1="340.2" x2="362.33" y2="340.2"/><line class="cls-1" x1="341.31" y1="302.39" x2="362.33" y2="302.39"/><polygon class="cls-1" points="278.42 302.39 257.43 302.39 246.93 321.3 257.43 340.2 278.42 340.2 288.91 321.3 278.42 302.39"/><polygon class="cls-1" points="267.89 283.49 246.9 283.49 236.41 302.39 246.9 321.3 267.89 321.3 278.38 302.39 267.89 283.49"/><polygon class="cls-1" points="257.43 302.39 236.44 302.39 225.95 321.3 236.44 340.2 257.43 340.2 267.92 321.3 257.43 302.39"/><line class="cls-1" x1="267.89" y1="283.49" x2="309.86" y2="283.49"/><line class="cls-1" x1="278.42" y1="340.2" x2="299.4" y2="340.2"/><line class="cls-1" x1="278.38" y1="302.39" x2="299.4" y2="302.39"/><polygon class="cls-1" points="718.93 359.1 697.94 359.1 687.45 378 697.94 396.91 718.93 396.91 729.42 378 718.93 359.1"/><polygon class="cls-1" points="708.4 340.2 687.41 340.2 676.92 359.1 687.41 378 708.4 378 718.89 359.1 708.4 340.2"/><polygon class="cls-1" points="697.94 359.1 676.95 359.1 666.46 378 676.95 396.91 697.94 396.91 708.43 378 697.94 359.1"/><polygon class="cls-1" points="781.89 359.1 760.9 359.1 750.41 378 760.9 396.91 781.89 396.91 792.38 378 781.89 359.1"/><polygon class="cls-1" points="771.36 340.2 750.38 340.2 739.88 359.1 750.38 378 771.36 378 781.86 359.1 771.36 340.2"/><polygon class="cls-1" points="760.9 359.1 739.91 359.1 729.42 378 739.91 396.91 760.9 396.91 771.4 378 760.9 359.1"/><line class="cls-1" x1="708.4" y1="340.2" x2="750.38" y2="340.2"/><line class="cls-1" x1="718.93" y1="396.91" x2="739.92" y2="396.91"/><line class="cls-1" x1="718.89" y1="359.1" x2="739.92" y2="359.1"/><polygon class="cls-1" points="656 359.1 635.01 359.1 624.52 378 635.01 396.91 656 396.91 666.49 378 656 359.1"/><polygon class="cls-1" points="645.47 340.2 624.48 340.2 613.99 359.1 624.48 378 645.47 378 655.96 359.1 645.47 340.2"/><polygon class="cls-1" points="635.01 359.1 614.02 359.1 603.53 378 614.02 396.91 635.01 396.91 645.5 378 635.01 359.1"/><line class="cls-1" x1="645.47" y1="340.2" x2="687.45" y2="340.2"/><line class="cls-1" x1="656" y1="396.91" x2="676.98" y2="396.91"/><line class="cls-1" x1="655.96" y1="359.1" x2="676.98" y2="359.1"/><polygon class="cls-1" points="593.07 359.1 572.08 359.1 561.59 378 572.08 396.91 593.07 396.91 603.56 378 593.07 359.1"/><polygon class="cls-1" points="582.54 340.2 561.55 340.2 551.06 359.1 561.55 378 582.54 378 593.03 359.1 582.54 340.2"/><polygon class="cls-1" points="572.08 359.1 551.09 359.1 540.6 378 551.09 396.91 572.08 396.91 582.57 378 572.08 359.1"/><line class="cls-1" x1="582.54" y1="340.2" x2="624.52" y2="340.2"/><line class="cls-1" x1="593.07" y1="396.91" x2="614.05" y2="396.91"/><line class="cls-1" x1="593.03" y1="359.1" x2="614.05" y2="359.1"/><polygon class="cls-1" points="530.14 359.1 509.15 359.1 498.65 378 509.15 396.91 530.14 396.91 540.63 378 530.14 359.1"/><polygon class="cls-1" points="519.61 340.2 498.62 340.2 488.13 359.1 498.62 378 519.61 378 530.1 359.1 519.61 340.2"/><polygon class="cls-1" points="509.15 359.1 488.16 359.1 477.67 378 488.16 396.91 509.15 396.91 519.64 378 509.15 359.1"/><line class="cls-1" x1="519.61" y1="340.2" x2="561.59" y2="340.2"/><line class="cls-1" x1="530.14" y1="396.91" x2="551.12" y2="396.91"/><line class="cls-1" x1="530.1" y1="359.1" x2="551.12" y2="359.1"/><polygon class="cls-1" points="467.21 359.1 446.22 359.1 435.73 378 446.22 396.91 467.21 396.91 477.7 378 467.21 359.1"/><polygon class="cls-1" points="456.68 340.2 435.69 340.2 425.2 359.1 435.69 378 456.68 378 467.17 359.1 456.68 340.2"/><polygon class="cls-1" points="446.22 359.1 425.23 359.1 414.74 378 425.23 396.91 446.22 396.91 456.71 378 446.22 359.1"/><line class="cls-1" x1="456.68" y1="340.2" x2="498.66" y2="340.2"/><line class="cls-1" x1="467.21" y1="396.91" x2="488.19" y2="396.91"/><line class="cls-1" x1="467.17" y1="359.1" x2="488.19" y2="359.1"/><polygon class="cls-1" points="404.28 359.1 383.29 359.1 372.8 378 383.29 396.91 404.28 396.91 414.77 378 404.28 359.1"/><polygon class="cls-1" points="393.75 340.2 372.76 340.2 362.27 359.1 372.76 378 393.75 378 404.24 359.1 393.75 340.2"/><polygon class="cls-1" points="383.29 359.1 362.3 359.1 351.81 378 362.3 396.91 383.29 396.91 393.78 378 383.29 359.1"/><line class="cls-1" x1="393.75" y1="340.2" x2="435.73" y2="340.2"/><line class="cls-1" x1="404.28" y1="396.91" x2="425.26" y2="396.91"/><line class="cls-1" x1="404.24" y1="359.1" x2="425.26" y2="359.1"/><polygon class="cls-1" points="341.35 359.1 320.36 359.1 309.87 378 320.36 396.91 341.35 396.91 351.84 378 341.35 359.1"/><polygon class="cls-1" points="330.82 340.2 309.83 340.2 299.34 359.1 309.83 378 330.82 378 341.31 359.1 330.82 340.2"/><polygon class="cls-1" points="320.36 359.1 299.37 359.1 288.88 378 299.37 396.91 320.36 396.91 330.85 378 320.36 359.1"/><line class="cls-1" x1="330.82" y1="340.2" x2="372.79" y2="340.2"/><line class="cls-1" x1="341.35" y1="396.91" x2="362.33" y2="396.91"/><line class="cls-1" x1="341.31" y1="359.1" x2="362.33" y2="359.1"/><polygon class="cls-1" points="278.42 359.1 257.43 359.1 246.93 378 257.43 396.91 278.42 396.91 288.91 378 278.42 359.1"/><polygon class="cls-1" points="267.89 340.2 246.9 340.2 236.41 359.1 246.9 378 267.89 378 278.38 359.1 267.89 340.2"/><polygon class="cls-1" points="257.43 359.1 236.44 359.1 225.95 378 236.44 396.91 257.43 396.91 267.92 378 257.43 359.1"/><line class="cls-1" x1="267.89" y1="340.2" x2="309.86" y2="340.2"/><line class="cls-1" x1="278.42" y1="396.91" x2="299.4" y2="396.91"/><line class="cls-1" x1="278.38" y1="359.1" x2="299.4" y2="359.1"/><polygon class="cls-1" points="718.93 415.81 697.94 415.81 687.45 434.71 697.94 453.62 718.93 453.62 729.42 434.71 718.93 415.81"/><polygon class="cls-1" points="708.4 396.91 687.41 396.91 676.92 415.81 687.41 434.71 708.4 434.71 718.89 415.81 708.4 396.91"/><polygon class="cls-1" points="697.94 415.81 676.95 415.81 666.46 434.71 676.95 453.62 697.94 453.62 708.43 434.71 697.94 415.81"/><polygon class="cls-1" points="781.89 415.81 760.9 415.81 750.41 434.71 760.9 453.62 781.89 453.62 792.38 434.71 781.89 415.81"/><polygon class="cls-1" points="771.36 396.91 750.38 396.91 739.88 415.81 750.38 434.71 771.36 434.71 781.86 415.81 771.36 396.91"/><polygon class="cls-1" points="760.9 415.81 739.91 415.81 729.42 434.71 739.91 453.62 760.9 453.62 771.4 434.71 760.9 415.81"/><line class="cls-1" x1="708.4" y1="396.91" x2="750.38" y2="396.91"/><line class="cls-1" x1="718.93" y1="453.62" x2="739.92" y2="453.62"/><line class="cls-1" x1="718.89" y1="415.81" x2="739.92" y2="415.81"/><polygon class="cls-1" points="656 415.81 635.01 415.81 624.52 434.71 635.01 453.62 656 453.62 666.49 434.71 656 415.81"/><polygon class="cls-1" points="645.47 396.91 624.48 396.91 613.99 415.81 624.48 434.71 645.47 434.71 655.96 415.81 645.47 396.91"/><polygon class="cls-1" points="635.01 415.81 614.02 415.81 603.53 434.71 614.02 453.62 635.01 453.62 645.5 434.71 635.01 415.81"/><line class="cls-1" x1="645.47" y1="396.91" x2="687.45" y2="396.91"/><line class="cls-1" x1="656" y1="453.62" x2="676.98" y2="453.62"/><line class="cls-1" x1="655.96" y1="415.81" x2="676.98" y2="415.81"/><polygon class="cls-1" points="593.07 415.81 572.08 415.81 561.59 434.71 572.08 453.62 593.07 453.62 603.56 434.71 593.07 415.81"/><polygon class="cls-1" points="582.54 396.91 561.55 396.91 551.06 415.81 561.55 434.71 582.54 434.71 593.03 415.81 582.54 396.91"/><polygon class="cls-1" points="572.08 415.81 551.09 415.81 540.6 434.71 551.09 453.62 572.08 453.62 582.57 434.71 572.08 415.81"/><line class="cls-1" x1="582.54" y1="396.91" x2="624.52" y2="396.91"/><line class="cls-1" x1="593.07" y1="453.62" x2="614.05" y2="453.62"/><line class="cls-1" x1="593.03" y1="415.81" x2="614.05" y2="415.81"/><polygon class="cls-1" points="530.14 415.81 509.15 415.81 498.65 434.71 509.15 453.62 530.14 453.62 540.63 434.71 530.14 415.81"/><polygon class="cls-1" points="519.61 396.91 498.62 396.91 488.13 415.81 498.62 434.71 519.61 434.71 530.1 415.81 519.61 396.91"/><polygon class="cls-1" points="509.15 415.81 488.16 415.81 477.67 434.71 488.16 453.62 509.15 453.62 519.64 434.71 509.15 415.81"/><line class="cls-1" x1="519.61" y1="396.91" x2="561.59" y2="396.91"/><line class="cls-1" x1="530.14" y1="453.62" x2="551.12" y2="453.62"/><line class="cls-1" x1="530.1" y1="415.81" x2="551.12" y2="415.81"/><polygon class="cls-1" points="467.21 415.81 446.22 415.81 435.73 434.71 446.22 453.62 467.21 453.62 477.7 434.71 467.21 415.81"/><polygon class="cls-1" points="456.68 396.91 435.69 396.91 425.2 415.81 435.69 434.71 456.68 434.71 467.17 415.81 456.68 396.91"/><polygon class="cls-1" points="446.22 415.81 425.23 415.81 414.74 434.71 425.23 453.62 446.22 453.62 456.71 434.71 446.22 415.81"/><line class="cls-1" x1="456.68" y1="396.91" x2="498.66" y2="396.91"/><line class="cls-1" x1="467.21" y1="453.62" x2="488.19" y2="453.62"/><line class="cls-1" x1="467.17" y1="415.81" x2="488.19" y2="415.81"/><polygon class="cls-1" points="404.28 415.81 383.29 415.81 372.8 434.71 383.29 453.62 404.28 453.62 414.77 434.71 404.28 415.81"/><polygon class="cls-1" points="393.75 396.91 372.76 396.91 362.27 415.81 372.76 434.71 393.75 434.71 404.24 415.81 393.75 396.91"/><polygon class="cls-1" points="383.29 415.81 362.3 415.81 351.81 434.71 362.3 453.62 383.29 453.62 393.78 434.71 383.29 415.81"/><line class="cls-1" x1="393.75" y1="396.91" x2="435.73" y2="396.91"/><line class="cls-1" x1="404.28" y1="453.62" x2="425.26" y2="453.62"/><line class="cls-1" x1="404.24" y1="415.81" x2="425.26" y2="415.81"/><polygon class="cls-1" points="341.35 415.81 320.36 415.81 309.87 434.71 320.36 453.62 341.35 453.62 351.84 434.71 341.35 415.81"/><polygon class="cls-1" points="330.82 396.91 309.83 396.91 299.34 415.81 309.83 434.71 330.82 434.71 341.31 415.81 330.82 396.91"/><polygon class="cls-1" points="320.36 415.81 299.37 415.81 288.88 434.71 299.37 453.62 320.36 453.62 330.85 434.71 320.36 415.81"/><line class="cls-1" x1="330.82" y1="396.91" x2="372.79" y2="396.91"/><line class="cls-1" x1="341.35" y1="453.62" x2="362.33" y2="453.62"/><line class="cls-1" x1="341.31" y1="415.81" x2="362.33" y2="415.81"/><polygon class="cls-1" points="278.42 415.81 257.43 415.81 246.93 434.71 257.43 453.62 278.42 453.62 288.91 434.71 278.42 415.81"/><polygon class="cls-1" points="267.89 396.91 246.9 396.91 236.41 415.81 246.9 434.71 267.89 434.71 278.38 415.81 267.89 396.91"/><polygon class="cls-1" points="257.43 415.81 236.44 415.81 225.95 434.71 236.44 453.62 257.43 453.62 267.92 434.71 257.43 415.81"/><line class="cls-1" x1="267.89" y1="396.91" x2="309.86" y2="396.91"/><line class="cls-1" x1="278.42" y1="453.62" x2="299.4" y2="453.62"/><line class="cls-1" x1="278.38" y1="415.81" x2="299.4" y2="415.81"/><polygon class="cls-1" points="718.93 472.52 697.94 472.52 687.45 491.42 697.94 510.32 718.93 510.32 729.42 491.42 718.93 472.52"/><polygon class="cls-1" points="708.4 453.62 687.41 453.62 676.92 472.52 687.41 491.42 708.4 491.42 718.89 472.52 708.4 453.62"/><polygon class="cls-1" points="697.94 472.52 676.95 472.52 666.46 491.42 676.95 510.32 697.94 510.32 708.43 491.42 697.94 472.52"/><polygon class="cls-1" points="781.89 472.52 760.9 472.52 750.41 491.42 760.9 510.32 781.89 510.32 792.38 491.42 781.89 472.52"/><polygon class="cls-1" points="771.36 453.62 750.38 453.62 739.88 472.52 750.38 491.42 771.36 491.42 781.86 472.52 771.36 453.62"/><polygon class="cls-1" points="760.9 472.52 739.91 472.52 729.42 491.42 739.91 510.32 760.9 510.32 771.4 491.42 760.9 472.52"/><line class="cls-1" x1="708.4" y1="453.62" x2="750.38" y2="453.62"/><line class="cls-1" x1="718.93" y1="510.32" x2="739.92" y2="510.32"/><line class="cls-1" x1="718.89" y1="472.52" x2="739.92" y2="472.52"/><polygon class="cls-1" points="656 472.52 635.01 472.52 624.52 491.42 635.01 510.32 656 510.32 666.49 491.42 656 472.52"/><polygon class="cls-1" points="645.47 453.62 624.48 453.62 613.99 472.52 624.48 491.42 645.47 491.42 655.96 472.52 645.47 453.62"/><polygon class="cls-1" points="635.01 472.52 614.02 472.52 603.53 491.42 614.02 510.32 635.01 510.32 645.5 491.42 635.01 472.52"/><line class="cls-1" x1="645.47" y1="453.62" x2="687.45" y2="453.62"/><line class="cls-1" x1="656" y1="510.32" x2="676.98" y2="510.32"/><line class="cls-1" x1="655.96" y1="472.52" x2="676.98" y2="472.52"/><polygon class="cls-1" points="593.07 472.52 572.08 472.52 561.59 491.42 572.08 510.32 593.07 510.32 603.56 491.42 593.07 472.52"/><polygon class="cls-1" points="582.54 453.62 561.55 453.62 551.06 472.52 561.55 491.42 582.54 491.42 593.03 472.52 582.54 453.62"/><polygon class="cls-1" points="572.08 472.52 551.09 472.52 540.6 491.42 551.09 510.32 572.08 510.32 582.57 491.42 572.08 472.52"/><line class="cls-1" x1="582.54" y1="453.62" x2="624.52" y2="453.62"/><line class="cls-1" x1="593.07" y1="510.32" x2="614.05" y2="510.32"/><line class="cls-1" x1="593.03" y1="472.52" x2="614.05" y2="472.52"/><polygon class="cls-1" points="530.14 472.52 509.15 472.52 498.65 491.42 509.15 510.32 530.14 510.32 540.63 491.42 530.14 472.52"/><polygon class="cls-1" points="519.61 453.62 498.62 453.62 488.13 472.52 498.62 491.42 519.61 491.42 530.1 472.52 519.61 453.62"/><polygon class="cls-1" points="509.15 472.52 488.16 472.52 477.67 491.42 488.16 510.32 509.15 510.32 519.64 491.42 509.15 472.52"/><line class="cls-1" x1="519.61" y1="453.62" x2="561.59" y2="453.62"/><line class="cls-1" x1="530.14" y1="510.32" x2="551.12" y2="510.32"/><line class="cls-1" x1="530.1" y1="472.52" x2="551.12" y2="472.52"/><polygon class="cls-1" points="467.21 472.52 446.22 472.52 435.73 491.42 446.22 510.32 467.21 510.32 477.7 491.42 467.21 472.52"/><polygon class="cls-1" points="456.68 453.62 435.69 453.62 425.2 472.52 435.69 491.42 456.68 491.42 467.17 472.52 456.68 453.62"/><polygon class="cls-1" points="446.22 472.52 425.23 472.52 414.74 491.42 425.23 510.32 446.22 510.32 456.71 491.42 446.22 472.52"/><line class="cls-1" x1="456.68" y1="453.62" x2="498.66" y2="453.62"/><line class="cls-1" x1="467.21" y1="510.32" x2="488.19" y2="510.32"/><line class="cls-1" x1="467.17" y1="472.52" x2="488.19" y2="472.52"/><polygon class="cls-1" points="404.28 472.52 383.29 472.52 372.8 491.42 383.29 510.32 404.28 510.32 414.77 491.42 404.28 472.52"/><polygon class="cls-1" points="393.75 453.62 372.76 453.62 362.27 472.52 372.76 491.42 393.75 491.42 404.24 472.52 393.75 453.62"/><polygon class="cls-1" points="383.29 472.52 362.3 472.52 351.81 491.42 362.3 510.32 383.29 510.32 393.78 491.42 383.29 472.52"/><line class="cls-1" x1="393.75" y1="453.62" x2="435.73" y2="453.62"/><line class="cls-1" x1="404.28" y1="510.32" x2="425.26" y2="510.32"/><line class="cls-1" x1="404.24" y1="472.52" x2="425.26" y2="472.52"/><polygon class="cls-1" points="341.35 472.52 320.36 472.52 309.87 491.42 320.36 510.32 341.35 510.32 351.84 491.42 341.35 472.52"/><polygon class="cls-1" points="330.82 453.62 309.83 453.62 299.34 472.52 309.83 491.42 330.82 491.42 341.31 472.52 330.82 453.62"/><polygon class="cls-1" points="320.36 472.52 299.37 472.52 288.88 491.42 299.37 510.32 320.36 510.32 330.85 491.42 320.36 472.52"/><line class="cls-1" x1="330.82" y1="453.62" x2="372.79" y2="453.62"/><line class="cls-1" x1="341.35" y1="510.32" x2="362.33" y2="510.32"/><line class="cls-1" x1="341.31" y1="472.52" x2="362.33" y2="472.52"/><polygon class="cls-1" points="278.42 472.52 257.43 472.52 246.93 491.42 257.43 510.32 278.42 510.32 288.91 491.42 278.42 472.52"/><polygon class="cls-1" points="267.89 453.62 246.9 453.62 236.41 472.52 246.9 491.42 267.89 491.42 278.38 472.52 267.89 453.62"/><polygon class="cls-1" points="257.43 472.52 236.44 472.52 225.95 491.42 236.44 510.32 257.43 510.32 267.92 491.42 257.43 472.52"/><line class="cls-1" x1="267.89" y1="453.62" x2="309.86" y2="453.62"/><line class="cls-1" x1="278.42" y1="510.32" x2="299.4" y2="510.32"/><line class="cls-1" x1="278.38" y1="472.52" x2="299.4" y2="472.52"/><polygon class="cls-1" points="718.93 529.23 697.94 529.23 687.45 548.13 697.94 567.03 718.93 567.03 729.42 548.13 718.93 529.23"/><polygon class="cls-1" points="708.4 510.32 687.41 510.32 676.92 529.23 687.41 548.13 708.4 548.13 718.89 529.23 708.4 510.32"/><polygon class="cls-1" points="697.94 529.23 676.95 529.23 666.46 548.13 676.95 567.03 697.94 567.03 708.43 548.13 697.94 529.23"/><polygon class="cls-1" points="781.89 529.23 760.9 529.23 750.41 548.13 760.9 567.03 781.89 567.03 792.38 548.13 781.89 529.23"/><polygon class="cls-1" points="771.36 510.32 750.38 510.32 739.88 529.23 750.38 548.13 771.36 548.13 781.86 529.23 771.36 510.32"/><polygon class="cls-1" points="760.9 529.23 739.91 529.23 729.42 548.13 739.91 567.03 760.9 567.03 771.4 548.13 760.9 529.23"/><line class="cls-1" x1="708.4" y1="510.32" x2="750.38" y2="510.32"/><line class="cls-1" x1="718.89" y1="529.23" x2="739.92" y2="529.23"/><polygon class="cls-1" points="656 529.23 635.01 529.23 624.52 548.13 635.01 567.03 656 567.03 666.49 548.13 656 529.23"/><polygon class="cls-1" points="645.47 510.32 624.48 510.32 613.99 529.23 624.48 548.13 645.47 548.13 655.96 529.23 645.47 510.32"/><polygon class="cls-1" points="635.01 529.23 614.02 529.23 603.53 548.13 614.02 567.03 635.01 567.03 645.5 548.13 635.01 529.23"/><line class="cls-1" x1="645.47" y1="510.32" x2="687.45" y2="510.32"/><line class="cls-1" x1="655.96" y1="529.23" x2="676.98" y2="529.23"/><polygon class="cls-1" points="593.07 529.23 572.08 529.23 561.59 548.13 572.08 567.03 593.07 567.03 603.56 548.13 593.07 529.23"/><polygon class="cls-1" points="582.54 510.32 561.55 510.32 551.06 529.23 561.55 548.13 582.54 548.13 593.03 529.23 582.54 510.32"/><polygon class="cls-1" points="572.08 529.23 551.09 529.23 540.6 548.13 551.09 567.03 572.08 567.03 582.57 548.13 572.08 529.23"/><line class="cls-1" x1="582.54" y1="510.32" x2="624.52" y2="510.32"/><line class="cls-1" x1="593.03" y1="529.23" x2="614.05" y2="529.23"/><polygon class="cls-1" points="530.14 529.23 509.15 529.23 498.65 548.13 509.15 567.03 530.14 567.03 540.63 548.13 530.14 529.23"/><polygon class="cls-1" points="519.61 510.32 498.62 510.32 488.13 529.23 498.62 548.13 519.61 548.13 530.1 529.23 519.61 510.32"/><polygon class="cls-1" points="509.15 529.23 488.16 529.23 477.67 548.13 488.16 567.03 509.15 567.03 519.64 548.13 509.15 529.23"/><line class="cls-1" x1="519.61" y1="510.32" x2="561.59" y2="510.32"/><line class="cls-1" x1="530.1" y1="529.23" x2="551.12" y2="529.23"/><polygon class="cls-1" points="467.21 529.23 446.22 529.23 435.73 548.13 446.22 567.03 467.21 567.03 477.7 548.13 467.21 529.23"/><polygon class="cls-1" points="456.68 510.32 435.69 510.32 425.2 529.23 435.69 548.13 456.68 548.13 467.17 529.23 456.68 510.32"/><polygon class="cls-1" points="446.22 529.23 425.23 529.23 414.74 548.13 425.23 567.03 446.22 567.03 456.71 548.13 446.22 529.23"/><line class="cls-1" x1="456.68" y1="510.32" x2="498.66" y2="510.32"/><line class="cls-1" x1="467.17" y1="529.23" x2="488.19" y2="529.23"/><polygon class="cls-1" points="404.28 529.23 383.29 529.23 372.8 548.13 383.29 567.03 404.28 567.03 414.77 548.13 404.28 529.23"/><polygon class="cls-1" points="393.75 510.32 372.76 510.32 362.27 529.23 372.76 548.13 393.75 548.13 404.24 529.23 393.75 510.32"/><polygon class="cls-1" points="383.29 529.23 362.3 529.23 351.81 548.13 362.3 567.03 383.29 567.03 393.78 548.13 383.29 529.23"/><line class="cls-1" x1="393.75" y1="510.32" x2="435.73" y2="510.32"/><line class="cls-1" x1="404.24" y1="529.23" x2="425.26" y2="529.23"/><polygon class="cls-1" points="341.35 529.23 320.36 529.23 309.87 548.13 320.36 567.03 341.35 567.03 351.84 548.13 341.35 529.23"/><polygon class="cls-1" points="330.82 510.32 309.83 510.32 299.34 529.23 309.83 548.13 330.82 548.13 341.31 529.23 330.82 510.32"/><polygon class="cls-1" points="320.36 529.23 299.37 529.23 288.88 548.13 299.37 567.03 320.36 567.03 330.85 548.13 320.36 529.23"/><line class="cls-1" x1="330.82" y1="510.32" x2="372.79" y2="510.32"/><line class="cls-1" x1="341.31" y1="529.23" x2="362.33" y2="529.23"/><polygon class="cls-1" points="278.42 529.23 257.43 529.23 246.93 548.13 257.43 567.03 278.42 567.03 288.91 548.13 278.42 529.23"/><polygon class="cls-1" points="267.89 510.32 246.9 510.32 236.41 529.23 246.9 548.13 267.89 548.13 278.38 529.23 267.89 510.32"/><polygon class="cls-1" points="257.43 529.23 236.44 529.23 225.95 548.13 236.44 567.03 257.43 567.03 267.92 548.13 257.43 529.23"/><line class="cls-1" x1="267.89" y1="510.32" x2="309.86" y2="510.32"/><line class="cls-1" x1="278.38" y1="529.23" x2="299.4" y2="529.23"/><line class="cls-1" x1="729.39" y1="567.03" x2="729.39" y2="510.32"/></g></mask><radialGradient id="radial-gradient" cx="454.23" cy="246.92" r="207.15" gradientTransform="translate(64.71 -53.64) scale(1.54 1.6)" gradientUnits="userSpaceOnUse"><stop offset="0" stop-color="#4fede5"/><stop offset="0.04" stop-color="#49e0d9"/><stop offset="0.2" stop-color="#36b3ae"/><stop offset="0.37" stop-color="#268e8b"/><stop offset="0.53" stop-color="#19716f"/><stop offset="0.69" stop-color="#105d5c"/><stop offset="0.85" stop-color="#0b5050"/><stop offset="1" stop-color="#094c4c"/></radialGradient><linearGradient id="New_Gradient_Swatch_2" x1="218.33" y1="-91.97" x2="218.33" y2="633.87" gradientTransform="matrix(0.71, -0.71, -0.71, -0.71, 398.73, 708.9)" gradientUnits="userSpaceOnUse"><stop offset="0" stop-color="#094c4c"/><stop offset="0.27" stop-color="#4fede5"/><stop offset="0.44" stop-color="#094c4c"/><stop offset="0.59" stop-color="#4fe3e5"/><stop offset="0.73" stop-color="#094c4c"/><stop offset="0.85" stop-color="#4fede5"/><stop offset="1" stop-color="#094c4c"/></linearGradient><linearGradient id="New_Gradient_Swatch_2-2" x1="203.55" y1="-97.32" x2="203.55" y2="628.53" gradientTransform="matrix(0.71, -0.71, -0.71, -0.71, 392.82, 694.65)" xlink:href="#New_Gradient_Swatch_2"/><linearGradient id="New_Gradient_Swatch_2-3" x1="-88.7" y1="262" x2="294.11" y2="262" gradientTransform="matrix(1, 0, 0, -1, 267.01, 624.91)" xlink:href="#New_Gradient_Swatch_2"/></defs><title>bg-splash</title><rect class="cls-3" x="267.01" y="102.91" width="750" height="520"/><g class="cls-4"><g class="cls-5"><g class="cls-6"><rect class="cls-7" x="267.44" y="102.86" width="750" height="520"/></g><polygon class="cls-3" points="12.92 362.93 361.52 0.39 710.12 362.93 361.52 725.47 12.92 362.93"/><polygon class="cls-8" points="12.92 362.93 361.52 0.39 710.12 362.93 361.52 725.47 12.92 362.93"/><polygon class="cls-3" points="0.35 362.9 348.95 0.36 697.55 362.9 348.95 725.45 0.35 362.9"/><polygon class="cls-9" points="0.35 362.9 348.95 0.36 697.55 362.9 348.95 725.45 0.35 362.9"/><polygon class="cls-10" points="507 352.12 507 374.55 560.62 374.55 560.62 410.3 507 410.3 507 518.91 415.75 518.91 296.75 309.29 296.75 518.91 232.44 518.91 232.44 410.3 178.81 410.3 178.81 374.55 232.44 374.55 232.44 352.12 178.81 352.12 178.81 316.37 232.44 316.37 232.44 206.91 313.69 206.91 442.69 434.09 442.69 206.91 507 206.91 507 316.37 560.62 316.37 560.62 352.12 507 352.12"/></g></g></svg>