<svg id="bg_welcome" data-name="bg welcome" xmlns="http://www.w3.org/2000/svg" xmlns:xlink="http://www.w3.org/1999/xlink" viewBox="0 0 1627.7 1116.27"><defs><style>.cls-1,.cls-2,.cls-8,.cls-9{fill:none;}.cls-1{stroke:#fff;stroke-width:0.3px;}.cls-1,.cls-10{stroke-miterlimit:10;}.cls-10,.cls-3{fill:#101919;}.cls-4{clip-path:url(#clip-path);}.cls-5{opacity:0.75;}.cls-6{mask:url(#mask);}.cls-7{fill:url(#radial-gradient);}.cls-8,.cls-9{stroke-miterlimit:10;stroke-width:0.5px;}.cls-8{stroke:url(#New_Gradient_Swatch_2);}.cls-9{stroke:url(#New_Gradient_Swatch_2-2);}.cls-10{stroke:url(#New_Gradient_Swatch_2-3);}</style><clipPath id="clip-path" transform="translate(427.02 158.12)"><rect class="cls-2" width="1200" height="800"/></clipPath><mask id="mask" x="427.7" y="157.89" width="1267.31" height="872.74" maskUnits="userSpaceOnUse"><g transform="translate(427.02 158.12)"><line class="cls-1" x1="1083.15" y1="872.36" x2="1116.73" y2="872.36"/><line class="cls-1" x1="982.46" y1="872.36" x2="1016.04" y2="872.36"/><line class="cls-1" x1="881.77" y1="872.36" x2="915.35" y2="872.36"/><line class="cls-1" x1="781.08" y1="872.36" x2="814.66" y2="872.36"/><line class="cls-1" x1="680.4" y1="872.36" x2="713.98" y2="872.36"/><line class="cls-1" x1="579.71" y1="872.36" x2="613.29" y2="872.36"/><line class="cls-1" x1="479.02" y1="872.36" x2="512.6" y2="872.36"/><line class="cls-1" x1="378.33" y1="872.36" x2="411.91" y2="872.36"/><polygon class="cls-1" points="1150.28 29 1116.7 29 1099.91 58.08 1116.7 87.16 1150.28 87.16 1167.07 58.08 1150.28 29"/><polygon class="cls-1" points="1133.44 -0.09 1099.86 -0.09 1083.07 29 1099.86 58.08 1133.44 58.08 1150.23 29 1133.44 -0.09"/><polygon class="cls-1" points="1116.7 29 1083.12 29 1066.33 58.08 1083.12 87.16 1116.7 87.16 1133.49 58.08 1116.7 29"/><polygon class="cls-1" points="1251.03 29 1217.44 29 1200.65 58.08 1217.44 87.16 1251.03 87.16 1267.82 58.08 1251.03 29"/><polygon class="cls-1" points="1234.18 -0.09 1200.6 -0.09 1183.81 29 1200.6 58.08 1234.18 58.08 1250.97 29 1234.18 -0.09"/><polygon class="cls-1" points="1217.44 29 1183.86 29 1167.07 58.08 1183.86 87.16 1217.44 87.16 1234.23 58.08 1217.44 29"/><line class="cls-1" x1="1133.44" y1="-0.09" x2="1200.6" y2="-0.09"/><line class="cls-1" x1="1150.28" y1="87.16" x2="1183.86" y2="87.16"/><line class="cls-1" x1="1150.23" y1="29" x2="1183.86" y2="29"/><polygon class="cls-1" points="1049.6 29 1016.01 29 999.23 58.08 1016.01 87.16 1049.6 87.16 1066.39 58.08 1049.6 29"/><polygon class="cls-1" points="1032.75 -0.09 999.17 -0.09 982.38 29 999.17 58.08 1032.75 58.08 1049.54 29 1032.75 -0.09"/><polygon class="cls-1" points="1016.01 29 982.43 29 965.64 58.08 982.43 87.16 1016.01 87.16 1032.81 58.08 1016.01 29"/><line class="cls-1" x1="1032.75" y1="-0.09" x2="1099.91" y2="-0.09"/><line class="cls-1" x1="1049.6" y1="87.16" x2="1083.18" y2="87.16"/><line class="cls-1" x1="1049.54" y1="29" x2="1083.18" y2="29"/><polygon class="cls-1" points="948.91 29 915.33 29 898.54 58.08 915.33 87.16 948.91 87.16 965.7 58.08 948.91 29"/><polygon class="cls-1" points="932.06 -0.09 898.48 -0.09 881.69 29 898.48 58.08 932.06 58.08 948.85 29 932.06 -0.09"/><polygon class="cls-1" points="915.33 29 881.75 29 864.96 58.08 881.75 87.16 915.33 87.16 932.12 58.08 915.33 29"/><line class="cls-1" x1="932.06" y1="-0.09" x2="999.23" y2="-0.09"/><line class="cls-1" x1="948.91" y1="87.16" x2="982.49" y2="87.16"/><line class="cls-1" x1="948.85" y1="29" x2="982.49" y2="29"/><polygon class="cls-1" points="848.22 29 814.64 29 797.85 58.08 814.64 87.16 848.22 87.16 865.01 58.08 848.22 29"/><polygon class="cls-1" points="831.38 -0.09 797.8 -0.09 781 29 797.8 58.08 831.38 58.08 848.17 29 831.38 -0.09"/><polygon class="cls-1" points="814.64 29 781.06 29 764.27 58.08 781.06 87.16 814.64 87.16 831.43 58.08 814.64 29"/><line class="cls-1" x1="831.38" y1="-0.09" x2="898.54" y2="-0.09"/><line class="cls-1" x1="848.22" y1="87.16" x2="881.8" y2="87.16"/><line class="cls-1" x1="848.17" y1="29" x2="881.8" y2="29"/><polygon class="cls-1" points="747.53 29 713.95 29 697.16 58.08 713.95 87.16 747.53 87.16 764.32 58.08 747.53 29"/><polygon class="cls-1" points="730.69 -0.09 697.11 -0.09 680.32 29 697.11 58.08 730.69 58.08 747.48 29 730.69 -0.09"/><polygon class="cls-1" points="713.95 29 680.37 29 663.58 58.08 680.37 87.16 713.95 87.16 730.74 58.08 713.95 29"/><line class="cls-1" x1="730.69" y1="-0.09" x2="797.85" y2="-0.09"/><line class="cls-1" x1="747.53" y1="87.16" x2="781.11" y2="87.16"/><line class="cls-1" x1="747.48" y1="29" x2="781.11" y2="29"/><polygon class="cls-1" points="646.84 29 613.26 29 596.47 58.08 613.26 87.16 646.84 87.16 663.63 58.08 646.84 29"/><polygon class="cls-1" points="630 -0.09 596.42 -0.09 579.63 29 596.42 58.08 630 58.08 646.79 29 630 -0.09"/><polygon class="cls-1" points="613.26 29 579.68 29 562.89 58.08 579.68 87.16 613.26 87.16 630.05 58.08 613.26 29"/><line class="cls-1" x1="630" y1="-0.09" x2="697.16" y2="-0.09"/><line class="cls-1" x1="646.84" y1="87.16" x2="680.42" y2="87.16"/><line class="cls-1" x1="646.79" y1="29" x2="680.42" y2="29"/><polygon class="cls-1" points="546.15 29 512.57 29 495.78 58.08 512.57 87.16 546.15 87.16 562.94 58.08 546.15 29"/><polygon class="cls-1" points="529.31 -0.09 495.73 -0.09 478.94 29 495.73 58.08 529.31 58.08 546.1 29 529.31 -0.09"/><polygon class="cls-1" points="512.57 29 478.99 29 462.2 58.08 478.99 87.16 512.57 87.16 529.36 58.08 512.57 29"/><line class="cls-1" x1="529.31" y1="-0.09" x2="596.47" y2="-0.09"/><line class="cls-1" x1="546.15" y1="87.16" x2="579.73" y2="87.16"/><line class="cls-1" x1="546.1" y1="29" x2="579.73" y2="29"/><polygon class="cls-1" points="445.46 29 411.88 29 395.1 58.08 411.88 87.16 445.46 87.16 462.26 58.08 445.46 29"/><polygon class="cls-1" points="428.62 -0.09 395.04 -0.09 378.25 29 395.04 58.08 428.62 58.08 445.41 29 428.62 -0.09"/><polygon class="cls-1" points="411.88 29 378.31 29 361.51 58.08 378.31 87.16 411.88 87.16 428.68 58.08 411.88 29"/><line class="cls-1" x1="428.62" y1="-0.09" x2="495.78" y2="-0.09"/><line class="cls-1" x1="445.47" y1="87.16" x2="479.05" y2="87.16"/><line class="cls-1" x1="445.41" y1="29" x2="479.05" y2="29"/><polygon class="cls-1" points="1150.28 116.24 1116.7 116.24 1099.91 145.32 1116.7 174.4 1150.28 174.4 1167.07 145.32 1150.28 116.24"/><polygon class="cls-1" points="1133.44 87.16 1099.86 87.16 1083.07 116.24 1099.86 145.32 1133.44 145.32 1150.23 116.24 1133.44 87.16"/><polygon class="cls-1" points="1116.7 116.24 1083.12 116.24 1066.33 145.32 1083.12 174.4 1116.7 174.4 1133.49 145.32 1116.7 116.24"/><polygon class="cls-1" points="1251.03 116.24 1217.44 116.24 1200.65 145.32 1217.44 174.4 1251.03 174.4 1267.82 145.32 1251.03 116.24"/><polygon class="cls-1" points="1234.18 87.16 1200.6 87.16 1183.81 116.24 1200.6 145.32 1234.18 145.32 1250.97 116.24 1234.18 87.16"/><polygon class="cls-1" points="1217.44 116.24 1183.86 116.24 1167.07 145.32 1183.86 174.4 1217.44 174.4 1234.23 145.32 1217.44 116.24"/><line class="cls-1" x1="1133.44" y1="87.16" x2="1200.6" y2="87.16"/><line class="cls-1" x1="1150.28" y1="174.4" x2="1183.86" y2="174.4"/><line class="cls-1" x1="1150.23" y1="116.24" x2="1183.86" y2="116.24"/><polygon class="cls-1" points="1049.6 116.24 1016.01 116.24 999.23 145.32 1016.01 174.4 1049.6 174.4 1066.39 145.32 1049.6 116.24"/><polygon class="cls-1" points="1032.75 87.16 999.17 87.16 982.38 116.24 999.17 145.32 1032.75 145.32 1049.54 116.24 1032.75 87.16"/><polygon class="cls-1" points="1016.01 116.24 982.43 116.24 965.64 145.32 982.43 174.4 1016.01 174.4 1032.81 145.32 1016.01 116.24"/><line class="cls-1" x1="1032.75" y1="87.16" x2="1099.91" y2="87.16"/><line class="cls-1" x1="1049.6" y1="174.4" x2="1083.18" y2="174.4"/><line class="cls-1" x1="1049.54" y1="116.24" x2="1083.18" y2="116.24"/><polygon class="cls-1" points="948.91 116.24 915.33 116.24 898.54 145.32 915.33 174.4 948.91 174.4 965.7 145.32 948.91 116.24"/><polygon class="cls-1" points="932.06 87.16 898.48 87.16 881.69 116.24 898.48 145.32 932.06 145.32 948.85 116.24 932.06 87.16"/><polygon class="cls-1" points="915.33 116.24 881.75 116.24 864.96 145.32 881.75 174.4 915.33 174.4 932.12 145.32 915.33 116.24"/><line class="cls-1" x1="932.06" y1="87.16" x2="999.23" y2="87.16"/><line class="cls-1" x1="948.91" y1="174.4" x2="982.49" y2="174.4"/><line class="cls-1" x1="948.85" y1="116.24" x2="982.49" y2="116.24"/><polygon class="cls-1" points="848.22 116.24 814.64 116.24 797.85 145.32 814.64 174.4 848.22 174.4 865.01 145.32 848.22 116.24"/><polygon class="cls-1" points="831.38 87.16 797.8 87.16 781 116.24 797.8 145.32 831.38 145.32 848.17 116.24 831.38 87.16"/><polygon class="cls-1" points="814.64 116.24 781.06 116.24 764.27 145.32 781.06 174.4 814.64 174.4 831.43 145.32 814.64 116.24"/><line class="cls-1" x1="831.38" y1="87.16" x2="898.54" y2="87.16"/><line class="cls-1" x1="848.22" y1="174.4" x2="881.8" y2="174.4"/><line class="cls-1" x1="848.17" y1="116.24" x2="881.8" y2="116.24"/><polygon class="cls-1" points="747.53 116.24 713.95 116.24 697.16 145.32 713.95 174.4 747.53 174.4 764.32 145.32 747.53 116.24"/><polygon class="cls-1" points="730.69 87.16 697.11 87.16 680.32 116.24 697.11 145.32 730.69 145.32 747.48 116.24 730.69 87.16"/><polygon class="cls-1" points="713.95 116.24 680.37 116.24 663.58 145.32 680.37 174.4 713.95 174.4 730.74 145.32 713.95 116.24"/><line class="cls-1" x1="730.69" y1="87.16" x2="797.85" y2="87.16"/><line class="cls-1" x1="747.53" y1="174.4" x2="781.11" y2="174.4"/><line class="cls-1" x1="747.48" y1="116.24" x2="781.11" y2="116.24"/><polygon class="cls-1" points="646.84 116.24 613.26 116.24 596.47 145.32 613.26 174.4 646.84 174.4 663.63 145.32 646.84 116.24"/><polygon class="cls-1" points="630 87.16 596.42 87.16 579.63 116.24 596.42 145.32 630 145.32 646.79 116.24 630 87.16"/><polygon class="cls-1" points="613.26 116.24 579.68 116.24 562.89 145.32 579.68 174.4 613.26 174.4 630.05 145.32 613.26 116.24"/><line class="cls-1" x1="630" y1="87.16" x2="697.16" y2="87.16"/><line class="cls-1" x1="646.84" y1="174.4" x2="680.42" y2="174.4"/><line class="cls-1" x1="646.79" y1="116.24" x2="680.42" y2="116.24"/><polygon class="cls-1" points="546.15 116.24 512.57 116.24 495.78 145.32 512.57 174.4 546.15 174.4 562.94 145.32 546.15 116.24"/><polygon class="cls-1" points="529.31 87.16 495.73 87.16 478.94 116.24 495.73 145.32 529.31 145.32 546.1 116.24 529.31 87.16"/><polygon class="cls-1" points="512.57 116.24 478.99 116.24 462.2 145.32 478.99 174.4 512.57 174.4 529.36 145.32 512.57 116.24"/><line class="cls-1" x1="529.31" y1="87.16" x2="596.47" y2="87.16"/><line class="cls-1" x1="546.15" y1="174.4" x2="579.73" y2="174.4"/><line class="cls-1" x1="546.1" y1="116.24" x2="579.73" y2="116.24"/><polygon class="cls-1" points="445.46 116.24 411.88 116.24 395.1 145.32 411.88 174.4 445.46 174.4 462.26 145.32 445.46 116.24"/><polygon class="cls-1" points="428.62 87.16 395.04 87.16 378.25 116.24 395.04 145.32 428.62 145.32 445.41 116.24 428.62 87.16"/><polygon class="cls-1" points="411.88 116.24 378.31 116.24 361.51 145.32 378.31 174.4 411.88 174.4 428.68 145.32 411.88 116.24"/><line class="cls-1" x1="428.62" y1="87.16" x2="495.78" y2="87.16"/><line class="cls-1" x1="445.47" y1="174.4" x2="479.05" y2="174.4"/><line class="cls-1" x1="445.41" y1="116.24" x2="479.05" y2="116.24"/><polygon class="cls-1" points="1150.28 203.49 1116.7 203.49 1099.91 232.57 1116.7 261.65 1150.28 261.65 1167.07 232.57 1150.28 203.49"/><polygon class="cls-1" points="1133.44 174.4 1099.86 174.4 1083.07 203.49 1099.86 232.57 1133.44 232.57 1150.23 203.49 1133.44 174.4"/><polygon class="cls-1" points="1116.7 203.49 1083.12 203.49 1066.33 232.57 1083.12 261.65 1116.7 261.65 1133.49 232.57 1116.7 203.49"/><polygon class="cls-1" points="1251.03 203.49 1217.44 203.49 1200.65 232.57 1217.44 261.65 1251.03 261.65 1267.82 232.57 1251.03 203.49"/><polygon class="cls-1" points="1234.18 174.4 1200.6 174.4 1183.81 203.49 1200.6 232.57 1234.18 232.57 1250.97 203.49 1234.18 174.4"/><polygon class="cls-1" points="1217.44 203.49 1183.86 203.49 1167.07 232.57 1183.86 261.65 1217.44 261.65 1234.23 232.57 1217.44 203.49"/><line class="cls-1" x1="1133.44" y1="174.4" x2="1200.6" y2="174.4"/><line class="cls-1" x1="1150.28" y1="261.65" x2="1183.86" y2="261.65"/><line class="cls-1" x1="1150.23" y1="203.48" x2="1183.86" y2="203.48"/><polygon class="cls-1" points="1049.6 203.49 1016.01 203.49 999.23 232.57 1016.01 261.65 1049.6 261.65 1066.39 232.57 1049.6 203.49"/><polygon class="cls-1" points="1032.75 174.4 999.17 174.4 982.38 203.49 999.17 232.57 1032.75 232.57 1049.54 203.49 1032.75 174.4"/><polygon class="cls-1" points="1016.01 203.49 982.43 203.49 965.64 232.57 982.43 261.65 1016.01 261.65 1032.81 232.57 1016.01 203.49"/><line class="cls-1" x1="1032.75" y1="174.4" x2="1099.91" y2="174.4"/><line class="cls-1" x1="1049.6" y1="261.65" x2="1083.18" y2="261.65"/><line class="cls-1" x1="1049.54" y1="203.48" x2="1083.18" y2="203.48"/><polygon class="cls-1" points="948.91 203.49 915.33 203.49 898.54 232.57 915.33 261.65 948.91 261.65 965.7 232.57 948.91 203.49"/><polygon class="cls-1" points="932.06 174.4 898.48 174.4 881.69 203.49 898.48 232.57 932.06 232.57 948.85 203.49 932.06 174.4"/><polygon class="cls-1" points="915.33 203.49 881.75 203.49 864.96 232.57 881.75 261.65 915.33 261.65 932.12 232.57 915.33 203.49"/><line class="cls-1" x1="932.06" y1="174.4" x2="999.23" y2="174.4"/><line class="cls-1" x1="948.91" y1="261.65" x2="982.49" y2="261.65"/><line class="cls-1" x1="948.85" y1="203.48" x2="982.49" y2="203.48"/><polygon class="cls-1" points="848.22 203.49 814.64 203.49 797.85 232.57 814.64 261.65 848.22 261.65 865.01 232.57 848.22 203.49"/><polygon class="cls-1" points="831.38 174.4 797.8 174.4 781 203.49 797.8 232.57 831.38 232.57 848.17 203.49 831.38 174.4"/><polygon class="cls-1" points="814.64 203.49 781.06 203.49 764.27 232.57 781.06 261.65 814.64 261.65 831.43 232.57 814.64 203.49"/><line class="cls-1" x1="831.38" y1="174.4" x2="898.54" y2="174.4"/><line class="cls-1" x1="848.22" y1="261.65" x2="881.8" y2="261.65"/><line class="cls-1" x1="848.17" y1="203.48" x2="881.8" y2="203.48"/><polygon class="cls-1" points="747.53 203.49 713.95 203.49 697.16 232.57 713.95 261.65 747.53 261.65 764.32 232.57 747.53 203.49"/><polygon class="cls-1" points="730.69 174.4 697.11 174.4 680.32 203.49 697.11 232.57 730.69 232.57 747.48 203.49 730.69 174.4"/><polygon class="cls-1" points="713.95 203.49 680.37 203.49 663.58 232.57 680.37 261.65 713.95 261.65 730.74 232.57 713.95 203.49"/><line class="cls-1" x1="730.69" y1="174.4" x2="797.85" y2="174.4"/><line class="cls-1" x1="747.53" y1="261.65" x2="781.11" y2="261.65"/><line class="cls-1" x1="747.48" y1="203.48" x2="781.11" y2="203.48"/><polygon class="cls-1" points="646.84 203.49 613.26 203.49 596.47 232.57 613.26 261.65 646.84 261.65 663.63 232.57 646.84 203.49"/><polygon class="cls-1" points="630 174.4 596.42 174.4 579.63 203.49 596.42 232.57 630 232.57 646.79 203.49 630 174.4"/><polygon class="cls-1" points="613.26 203.49 579.68 203.49 562.89 232.57 579.68 261.65 613.26 261.65 630.05 232.57 613.26 203.49"/><line class="cls-1" x1="630" y1="174.4" x2="697.16" y2="174.4"/><line class="cls-1" x1="646.84" y1="261.65" x2="680.42" y2="261.65"/><line class="cls-1" x1="646.79" y1="203.48" x2="680.42" y2="203.48"/><polygon class="cls-1" points="546.15 203.49 512.57 203.49 495.78 232.57 512.57 261.65 546.15 261.65 562.94 232.57 546.15 203.49"/><polygon class="cls-1" points="529.31 174.4 495.73 174.4 478.94 203.49 495.73 232.57 529.31 232.57 546.1 203.49 529.31 174.4"/><polygon class="cls-1" points="512.57 203.49 478.99 203.49 462.2 232.57 478.99 261.65 512.57 261.65 529.36 232.57 512.57 203.49"/><line class="cls-1" x1="529.31" y1="174.4" x2="596.47" y2="174.4"/><line class="cls-1" x1="546.15" y1="261.65" x2="579.73" y2="261.65"/><line class="cls-1" x1="546.1" y1="203.48" x2="579.73" y2="203.48"/><polygon class="cls-1" points="445.46 203.49 411.88 203.49 395.1 232.57 411.88 261.65 445.46 261.65 462.26 232.57 445.46 203.49"/><polygon class="cls-1" points="428.62 174.4 395.04 174.4 378.25 203.49 395.04 232.57 428.62 232.57 445.41 203.49 428.62 174.4"/><polygon class="cls-1" points="411.88 203.49 378.31 203.49 361.51 232.57 378.31 261.65 411.88 261.65 428.68 232.57 411.88 203.49"/><line class="cls-1" x1="428.62" y1="174.4" x2="495.78" y2="174.4"/><line class="cls-1" x1="445.47" y1="261.65" x2="479.05" y2="261.65"/><line class="cls-1" x1="445.41" y1="203.48" x2="479.05" y2="203.48"/><polygon class="cls-1" points="1150.28 290.73 1116.7 290.73 1099.91 319.81 1116.7 348.89 1150.28 348.89 1167.07 319.81 1150.28 290.73"/><polygon class="cls-1" points="1133.44 261.65 1099.86 261.65 1083.07 290.73 1099.86 319.81 1133.44 319.81 1150.23 290.73 1133.44 261.65"/><polygon class="cls-1" points="1116.7 290.73 1083.12 290.73 1066.33 319.81 1083.12 348.89 1116.7 348.89 1133.49 319.81 1116.7 290.73"/><polygon class="cls-1" points="1251.03 290.73 1217.44 290.73 1200.65 319.81 1217.44 348.89 1251.03 348.89 1267.82 319.81 1251.03 290.73"/><polygon class="cls-1" points="1234.18 261.65 1200.6 261.65 1183.81 290.73 1200.6 319.81 1234.18 319.81 1250.97 290.73 1234.18 261.65"/><polygon class="cls-1" points="1217.44 290.73 1183.86 290.73 1167.07 319.81 1183.86 348.89 1217.44 348.89 1234.23 319.81 1217.44 290.73"/><line class="cls-1" x1="1133.44" y1="261.65" x2="1200.6" y2="261.65"/><line class="cls-1" x1="1150.28" y1="348.89" x2="1183.86" y2="348.89"/><line class="cls-1" x1="1150.23" y1="290.73" x2="1183.86" y2="290.73"/><polygon class="cls-1" points="1049.6 290.73 1016.01 290.73 999.23 319.81 1016.01 348.89 1049.6 348.89 1066.39 319.81 1049.6 290.73"/><polygon class="cls-1" points="1032.75 261.65 999.17 261.65 982.38 290.73 999.17 319.81 1032.75 319.81 1049.54 290.73 1032.75 261.65"/><polygon class="cls-1" points="1016.01 290.73 982.43 290.73 965.64 319.81 982.43 348.89 1016.01 348.89 1032.81 319.81 1016.01 290.73"/><line class="cls-1" x1="1032.75" y1="261.65" x2="1099.91" y2="261.65"/><line class="cls-1" x1="1049.6" y1="348.89" x2="1083.18" y2="348.89"/><line class="cls-1" x1="1049.54" y1="290.73" x2="1083.18" y2="290.73"/><polygon class="cls-1" points="948.91 290.73 915.33 290.73 898.54 319.81 915.33 348.89 948.91 348.89 965.7 319.81 948.91 290.73"/><polygon class="cls-1" points="932.06 261.65 898.48 261.65 881.69 290.73 898.48 319.81 932.06 319.81 948.85 290.73 932.06 261.65"/><polygon class="cls-1" points="915.33 290.73 881.75 290.73 864.96 319.81 881.75 348.89 915.33 348.89 932.12 319.81 915.33 290.73"/><line class="cls-1" x1="932.06" y1="261.65" x2="999.23" y2="261.65"/><line class="cls-1" x1="948.91" y1="348.89" x2="982.49" y2="348.89"/><line class="cls-1" x1="948.85" y1="290.73" x2="982.49" y2="290.73"/><polygon class="cls-1" points="848.22 290.73 814.64 290.73 797.85 319.81 814.64 348.89 848.22 348.89 865.01 319.81 848.22 290.73"/><polygon class="cls-1" points="831.38 261.65 797.8 261.65 781 290.73 797.8 319.81 831.38 319.81 848.17 290.73 831.38 261.65"/><polygon class="cls-1" points="814.64 290.73 781.06 290.73 764.27 319.81 781.06 348.89 814.64 348.89 831.43 319.81 814.64 290.73"/><line class="cls-1" x1="831.38" y1="261.65" x2="898.54" y2="261.65"/><line class="cls-1" x1="848.22" y1="348.89" x2="881.8" y2="348.89"/><line class="cls-1" x1="848.17" y1="290.73" x2="881.8" y2="290.73"/><polygon class="cls-1" points="747.53 290.73 713.95 290.73 697.16 319.81 713.95 348.89 747.53 348.89 764.32 319.81 747.53 290.73"/><polygon class="cls-1" points="730.69 261.65 697.11 261.65 680.32 290.73 697.11 319.81 730.69 319.81 747.48 290.73 730.69 261.65"/><polygon class="cls-1" points="713.95 290.73 680.37 290.73 663.58 319.81 680.37 348.89 713.95 348.89 730.74 319.81 713.95 290.73"/><line class="cls-1" x1="730.69" y1="261.65" x2="797.85" y2="261.65"/><line class="cls-1" x1="747.53" y1="348.89" x2="781.11" y2="348.89"/><line class="cls-1" x1="747.48" y1="290.73" x2="781.11" y2="290.73"/><polygon class="cls-1" points="646.84 290.73 613.26 290.73 596.47 319.81 613.26 348.89 646.84 348.89 663.63 319.81 646.84 290.73"/><polygon class="cls-1" points="630 261.65 596.42 261.65 579.63 290.73 596.42 319.81 630 319.81 646.79 290.73 630 261.65"/><polygon class="cls-1" points="613.26 290.73 579.68 290.73 562.89 319.81 579.68 348.89 613.26 348.89 630.05 319.81 613.26 290.73"/><line class="cls-1" x1="630" y1="261.65" x2="697.16" y2="261.65"/><line class="cls-1" x1="646.84" y1="348.89" x2="680.42" y2="348.89"/><line class="cls-1" x1="646.79" y1="290.73" x2="680.42" y2="290.73"/><polygon class="cls-1" points="546.15 290.73 512.57 290.73 495.78 319.81 512.57 348.89 546.15 348.89 562.94 319.81 546.15 290.73"/><polygon class="cls-1" points="529.31 261.65 495.73 261.65 478.94 290.73 495.73 319.81 529.31 319.81 546.1 290.73 529.31 261.65"/><polygon class="cls-1" points="512.57 290.73 478.99 290.73 462.2 319.81 478.99 348.89 512.57 348.89 529.36 319.81 512.57 290.73"/><line class="cls-1" x1="529.31" y1="261.65" x2="596.47" y2="261.65"/><line class="cls-1" x1="546.15" y1="348.89" x2="579.73" y2="348.89"/><line class="cls-1" x1="546.1" y1="290.73" x2="579.73" y2="290.73"/><polygon class="cls-1" points="445.46 290.73 411.88 290.73 395.1 319.81 411.88 348.89 445.46 348.89 462.26 319.81 445.46 290.73"/><polygon class="cls-1" points="428.62 261.65 395.04 261.65 378.25 290.73 395.04 319.81 428.62 319.81 445.41 290.73 428.62 261.65"/><polygon class="cls-1" points="411.88 290.73 378.31 290.73 361.51 319.81 378.31 348.89 411.88 348.89 428.68 319.81 411.88 290.73"/><line class="cls-1" x1="428.62" y1="261.65" x2="495.78" y2="261.65"/><line class="cls-1" x1="445.47" y1="348.89" x2="479.05" y2="348.89"/><line class="cls-1" x1="445.41" y1="290.73" x2="479.05" y2="290.73"/><polygon class="cls-1" points="1150.28 377.97 1116.7 377.97 1099.91 407.06 1116.7 436.14 1150.28 436.14 1167.07 407.06 1150.28 377.97"/><polygon class="cls-1" points="1133.44 348.89 1099.86 348.89 1083.07 377.97 1099.86 407.06 1133.44 407.06 1150.23 377.97 1133.44 348.89"/><polygon class="cls-1" points="1116.7 377.97 1083.12 377.97 1066.33 407.06 1083.12 436.14 1116.7 436.14 1133.49 407.06 1116.7 377.97"/><polygon class="cls-1" points="1251.03 377.97 1217.44 377.97 1200.65 407.06 1217.44 436.14 1251.03 436.14 1267.82 407.06 1251.03 377.97"/><polygon class="cls-1" points="1234.18 348.89 1200.6 348.89 1183.81 377.97 1200.6 407.06 1234.18 407.06 1250.97 377.97 1234.18 348.89"/><polygon class="cls-1" points="1217.44 377.97 1183.86 377.97 1167.07 407.06 1183.86 436.14 1217.44 436.14 1234.23 407.06 1217.44 377.97"/><line class="cls-1" x1="1133.44" y1="348.89" x2="1200.6" y2="348.89"/><line class="cls-1" x1="1150.28" y1="436.14" x2="1183.86" y2="436.14"/><line class="cls-1" x1="1150.23" y1="377.97" x2="1183.86" y2="377.97"/><polygon class="cls-1" points="1049.6 377.97 1016.01 377.97 999.23 407.06 1016.01 436.14 1049.6 436.14 1066.39 407.06 1049.6 377.97"/><polygon class="cls-1" points="1032.75 348.89 999.17 348.89 982.38 377.97 999.17 407.06 1032.75 407.06 1049.54 377.97 1032.75 348.89"/><polygon class="cls-1" points="1016.01 377.97 982.43 377.97 965.64 407.06 982.43 436.14 1016.01 436.14 1032.81 407.06 1016.01 377.97"/><line class="cls-1" x1="1032.75" y1="348.89" x2="1099.91" y2="348.89"/><line class="cls-1" x1="1049.6" y1="436.14" x2="1083.18" y2="436.14"/><line class="cls-1" x1="1049.54" y1="377.97" x2="1083.18" y2="377.97"/><polygon class="cls-1" points="948.91 377.97 915.33 377.97 898.54 407.06 915.33 436.14 948.91 436.14 965.7 407.06 948.91 377.97"/><polygon class="cls-1" points="932.06 348.89 898.48 348.89 881.69 377.97 898.48 407.06 932.06 407.06 948.85 377.97 932.06 348.89"/><polygon class="cls-1" points="915.33 377.97 881.75 377.97 864.96 407.06 881.75 436.14 915.33 436.14 932.12 407.06 915.33 377.97"/><line class="cls-1" x1="932.06" y1="348.89" x2="999.23" y2="348.89"/><line class="cls-1" x1="948.91" y1="436.14" x2="982.49" y2="436.14"/><line class="cls-1" x1="948.85" y1="377.97" x2="982.49" y2="377.97"/><polygon class="cls-1" points="848.22 377.97 814.64 377.97 797.85 407.06 814.64 436.14 848.22 436.14 865.01 407.06 848.22 377.97"/><polygon class="cls-1" points="831.38 348.89 797.8 348.89 781 377.97 797.8 407.06 831.38 407.06 848.17 377.97 831.38 348.89"/><polygon class="cls-1" points="814.64 377.97 781.06 377.97 764.27 407.06 781.06 436.14 814.64 436.14 831.43 407.06 814.64 377.97"/><line class="cls-1" x1="831.38" y1="348.89" x2="898.54" y2="348.89"/><line class="cls-1" x1="848.22" y1="436.14" x2="881.8" y2="436.14"/><line class="cls-1" x1="848.17" y1="377.97" x2="881.8" y2="377.97"/><polygon class="cls-1" points="747.53 377.97 713.95 377.97 697.16 407.06 713.95 436.14 747.53 436.14 764.32 407.06 747.53 377.97"/><polygon class="cls-1" points="730.69 348.89 697.11 348.89 680.32 377.97 697.11 407.06 730.69 407.06 747.48 377.97 730.69 348.89"/><polygon class="cls-1" points="713.95 377.97 680.37 377.97 663.58 407.06 680.37 436.14 713.95 436.14 730.74 407.06 713.95 377.97"/><line class="cls-1" x1="730.69" y1="348.89" x2="797.85" y2="348.89"/><line class="cls-1" x1="747.53" y1="436.14" x2="781.11" y2="436.14"/><line class="cls-1" x1="747.48" y1="377.97" x2="781.11" y2="377.97"/><polygon class="cls-1" points="646.84 377.97 613.26 377.97 596.47 407.06 613.26 436.14 646.84 436.14 663.63 407.06 646.84 377.97"/><polygon class="cls-1" points="630 348.89 596.42 348.89 579.63 377.97 596.42 407.06 630 407.06 646.79 377.97 630 348.89"/><polygon class="cls-1" points="613.26 377.97 579.68 377.97 562.89 407.06 579.68 436.14 613.26 436.14 630.05 407.06 613.26 377.97"/><line class="cls-1" x1="630" y1="348.89" x2="697.16" y2="348.89"/><line class="cls-1" x1="646.84" y1="436.14" x2="680.42" y2="436.14"/><line class="cls-1" x1="646.79" y1="377.97" x2="680.42" y2="377.97"/><polygon class="cls-1" points="546.15 377.97 512.57 377.97 495.78 407.06 512.57 436.14 546.15 436.14 562.94 407.06 546.15 377.97"/><polygon class="cls-1" points="529.31 348.89 495.73 348.89 478.94 377.97 495.73 407.06 529.31 407.06 546.1 377.97 529.31 348.89"/><polygon class="cls-1" points="512.57 377.97 478.99 377.97 462.2 407.06 478.99 436.14 512.57 436.14 529.36 407.06 512.57 377.97"/><line class="cls-1" x1="529.31" y1="348.89" x2="596.47" y2="348.89"/><line class="cls-1" x1="546.15" y1="436.14" x2="579.73" y2="436.14"/><line class="cls-1" x1="546.1" y1="377.97" x2="579.73" y2="377.97"/><polygon class="cls-1" points="445.46 377.97 411.88 377.97 395.1 407.06 411.88 436.14 445.46 436.14 462.26 407.06 445.46 377.97"/><polygon class="cls-1" points="428.62 348.89 395.04 348.89 378.25 377.97 395.04 407.06 428.62 407.06 445.41 377.97 428.62 348.89"/><polygon class="cls-1" points="411.88 377.97 378.31 377.97 361.51 407.06 378.31 436.14 411.88 436.14 428.68 407.06 411.88 377.97"/><line class="cls-1" x1="428.62" y1="348.89" x2="495.78" y2="348.89"/><line class="cls-1" x1="445.47" y1="436.14" x2="479.05" y2="436.14"/><line class="cls-1" x1="445.41" y1="377.97" x2="479.05" y2="377.97"/><polygon class="cls-1" points="1150.28 465.22 1116.7 465.22 1099.91 494.3 1116.7 523.38 1150.28 523.38 1167.07 494.3 1150.28 465.22"/><polygon class="cls-1" points="1133.44 436.14 1099.86 436.14 1083.07 465.22 1099.86 494.3 1133.44 494.3 1150.23 465.22 1133.44 436.14"/><polygon class="cls-1" points="1116.7 465.22 1083.12 465.22 1066.33 494.3 1083.12 523.38 1116.7 523.38 1133.49 494.3 1116.7 465.22"/><polygon class="cls-1" points="1251.03 465.22 1217.44 465.22 1200.65 494.3 1217.44 523.38 1251.03 523.38 1267.82 494.3 1251.03 465.22"/><polygon class="cls-1" points="1234.18 436.14 1200.6 436.14 1183.81 465.22 1200.6 494.3 1234.18 494.3 1250.97 465.22 1234.18 436.14"/><polygon class="cls-1" points="1217.44 465.22 1183.86 465.22 1167.07 494.3 1183.86 523.38 1217.44 523.38 1234.23 494.3 1217.44 465.22"/><line class="cls-1" x1="1133.44" y1="436.14" x2="1200.6" y2="436.14"/><line class="cls-1" x1="1150.28" y1="523.38" x2="1183.86" y2="523.38"/><line class="cls-1" x1="1150.23" y1="465.22" x2="1183.86" y2="465.22"/><polygon class="cls-1" points="1049.6 465.22 1016.01 465.22 999.23 494.3 1016.01 523.38 1049.6 523.38 1066.39 494.3 1049.6 465.22"/><polygon class="cls-1" points="1032.75 436.14 999.17 436.14 982.38 465.22 999.17 494.3 1032.75 494.3 1049.54 465.22 1032.75 436.14"/><polygon class="cls-1" points="1016.01 465.22 982.43 465.22 965.64 494.3 982.43 523.38 1016.01 523.38 1032.81 494.3 1016.01 465.22"/><line class="cls-1" x1="1032.75" y1="436.14" x2="1099.91" y2="436.14"/><line class="cls-1" x1="1049.6" y1="523.38" x2="1083.18" y2="523.38"/><line class="cls-1" x1="1049.54" y1="465.22" x2="1083.18" y2="465.22"/><polygon class="cls-1" points="948.91 465.22 915.33 465.22 898.54 494.3 915.33 523.38 948.91 523.38 965.7 494.3 948.91 465.22"/><polygon class="cls-1" points="932.06 436.14 898.48 436.14 881.69 465.22 898.48 494.3 932.06 494.3 948.85 465.22 932.06 436.14"/><polygon class="cls-1" points="915.33 465.22 881.75 465.22 864.96 494.3 881.75 523.38 915.33 523.38 932.12 494.3 915.33 465.22"/><line class="cls-1" x1="932.06" y1="436.14" x2="999.23" y2="436.14"/><line class="cls-1" x1="948.91" y1="523.38" x2="982.49" y2="523.38"/><line class="cls-1" x1="948.85" y1="465.22" x2="982.49" y2="465.22"/><polygon class="cls-1" points="848.22 465.22 814.64 465.22 797.85 494.3 814.64 523.38 848.22 523.38 865.01 494.3 848.22 465.22"/><polygon class="cls-1" points="831.38 436.14 797.8 436.14 781 465.22 797.8 494.3 831.38 494.3 848.17 465.22 831.38 436.14"/><polygon class="cls-1" points="814.64 465.22 781.06 465.22 764.27 494.3 781.06 523.38 814.64 523.38 831.43 494.3 814.64 465.22"/><line class="cls-1" x1="831.38" y1="436.14" x2="898.54" y2="436.14"/><line class="cls-1" x1="848.22" y1="523.38" x2="881.8" y2="523.38"/><line class="cls-1" x1="848.17" y1="465.22" x2="881.8" y2="465.22"/><polygon class="cls-1" points="747.53 465.22 713.95 465.22 697.16 494.3 713.95 523.38 747.53 523.38 764.32 494.3 747.53 465.22"/><polygon class="cls-1" points="730.69 436.14 697.11 436.14 680.32 465.22 697.11 494.3 730.69 494.3 747.48 465.22 730.69 436.14"/><polygon class="cls-1" points="713.95 465.22 680.37 465.22 663.58 494.3 680.37 523.38 713.95 523.38 730.74 494.3 713.95 465.22"/><line class="cls-1" x1="730.69" y1="436.14" x2="797.85" y2="436.14"/><line class="cls-1" x1="747.53" y1="523.38" x2="781.11" y2="523.38"/><line class="cls-1" x1="747.48" y1="465.22" x2="781.11" y2="465.22"/><polygon class="cls-1" points="646.84 465.22 613.26 465.22 596.47 494.3 613.26 523.38 646.84 523.38 663.63 494.3 646.84 465.22"/><polygon class="cls-1" points="630 436.14 596.42 436.14 579.63 465.22 596.42 494.3 630 494.3 646.79 465.22 630 436.14"/><polygon class="cls-1" points="613.26 465.22 579.68 465.22 562.89 494.3 579.68 523.38 613.26 523.38 630.05 494.3 613.26 465.22"/><line class="cls-1" x1="630" y1="436.14" x2="697.16" y2="436.14"/><line class="cls-1" x1="646.84" y1="523.38" x2="680.42" y2="523.38"/><line class="cls-1" x1="646.79" y1="465.22" x2="680.42" y2="465.22"/><polygon class="cls-1" points="546.15 465.22 512.57 465.22 495.78 494.3 512.57 523.38 546.15 523.38 562.94 494.3 546.15 465.22"/><polygon class="cls-1" points="529.31 436.14 495.73 436.14 478.94 465.22 495.73 494.3 529.31 494.3 546.1 465.22 529.31 436.14"/><polygon class="cls-1" points="512.57 465.22 478.99 465.22 462.2 494.3 478.99 523.38 512.57 523.38 529.36 494.3 512.57 465.22"/><line class="cls-1" x1="529.31" y1="436.14" x2="596.47" y2="436.14"/><line class="cls-1" x1="546.15" y1="523.38" x2="579.73" y2="523.38"/><line class="cls-1" x1="546.1" y1="465.22" x2="579.73" y2="465.22"/><polygon class="cls-1" points="445.46 465.22 411.88 465.22 395.1 494.3 411.88 523.38 445.46 523.38 462.26 494.3 445.46 465.22"/><polygon class="cls-1" points="428.62 436.14 395.04 436.14 378.25 465.22 395.04 494.3 428.62 494.3 445.41 465.22 428.62 436.14"/><polygon class="cls-1" points="411.88 465.22 378.31 465.22 361.51 494.3 378.31 523.38 411.88 523.38 428.68 494.3 411.88 465.22"/><line class="cls-1" x1="428.62" y1="436.14" x2="495.78" y2="436.14"/><line class="cls-1" x1="445.47" y1="523.38" x2="479.05" y2="523.38"/><line class="cls-1" x1="445.41" y1="465.22" x2="479.05" y2="465.22"/><polygon class="cls-1" points="1150.28 552.46 1116.7 552.46 1099.91 581.54 1116.7 610.63 1150.28 610.63 1167.07 581.54 1150.28 552.46"/><polygon class="cls-1" points="1133.44 523.38 1099.86 523.38 1083.07 552.46 1099.86 581.54 1133.44 581.54 1150.23 552.46 1133.44 523.38"/><polygon class="cls-1" points="1116.7 552.46 1083.12 552.46 1066.33 581.54 1083.12 610.63 1116.7 610.63 1133.49 581.54 1116.7 552.46"/><polygon class="cls-1" points="1251.03 552.46 1217.44 552.46 1200.65 581.54 1217.44 610.63 1251.03 610.63 1267.82 581.54 1251.03 552.46"/><polygon class="cls-1" points="1234.18 523.38 1200.6 523.38 1183.81 552.46 1200.6 581.54 1234.18 581.54 1250.97 552.46 1234.18 523.38"/><polygon class="cls-1" points="1217.44 552.46 1183.86 552.46 1167.07 581.54 1183.86 610.63 1217.44 610.63 1234.23 581.54 1217.44 552.46"/><line class="cls-1" x1="1133.44" y1="523.38" x2="1200.6" y2="523.38"/><line class="cls-1" x1="1150.28" y1="610.63" x2="1183.86" y2="610.63"/><line class="cls-1" x1="1150.23" y1="552.46" x2="1183.86" y2="552.46"/><polygon class="cls-1" points="1049.6 552.46 1016.01 552.46 999.23 581.54 1016.01 610.63 1049.6 610.63 1066.39 581.54 1049.6 552.46"/><polygon class="cls-1" points="1032.75 523.38 999.17 523.38 982.38 552.46 999.17 581.54 1032.75 581.54 1049.54 552.46 1032.75 523.38"/><polygon class="cls-1" points="1016.01 552.46 982.43 552.46 965.64 581.54 982.43 610.63 1016.01 610.63 1032.81 581.54 1016.01 552.46"/><line class="cls-1" x1="1032.75" y1="523.38" x2="1099.91" y2="523.38"/><line class="cls-1" x1="1049.6" y1="610.63" x2="1083.18" y2="610.63"/><line class="cls-1" x1="1049.54" y1="552.46" x2="1083.18" y2="552.46"/><polygon class="cls-1" points="948.91 552.46 915.33 552.46 898.54 581.54 915.33 610.63 948.91 610.63 965.7 581.54 948.91 552.46"/><polygon class="cls-1" points="932.06 523.38 898.48 523.38 881.69 552.46 898.48 581.54 932.06 581.54 948.85 552.46 932.06 523.38"/><polygon class="cls-1" points="915.33 552.46 881.75 552.46 864.96 581.54 881.75 610.63 915.33 610.63 932.12 581.54 915.33 552.46"/><line class="cls-1" x1="932.06" y1="523.38" x2="999.23" y2="523.38"/><line class="cls-1" x1="948.91" y1="610.63" x2="982.49" y2="610.63"/><line class="cls-1" x1="948.85" y1="552.46" x2="982.49" y2="552.46"/><polygon class="cls-1" points="848.22 552.46 814.64 552.46 797.85 581.54 814.64 610.63 848.22 610.63 865.01 581.54 848.22 552.46"/><polygon class="cls-1" points="831.38 523.38 797.8 523.38 781 552.46 797.8 581.54 831.38 581.54 848.17 552.46 831.38 523.38"/><polygon class="cls-1" points="814.64 552.46 781.06 552.46 764.27 581.54 781.06 610.63 814.64 610.63 831.43 581.54 814.64 552.46"/><line class="cls-1" x1="831.38" y1="523.38" x2="898.54" y2="523.38"/><line class="cls-1" x1="848.22" y1="610.63" x2="881.8" y2="610.63"/><line class="cls-1" x1="848.17" y1="552.46" x2="881.8" y2="552.46"/><polygon class="cls-1" points="747.53 552.46 713.95 552.46 697.16 581.54 713.95 610.63 747.53 610.63 764.32 581.54 747.53 552.46"/><polygon class="cls-1" points="730.69 523.38 697.11 523.38 680.32 552.46 697.11 581.54 730.69 581.54 747.48 552.46 730.69 523.38"/><polygon class="cls-1" points="713.95 552.46 680.37 552.46 663.58 581.54 680.37 610.63 713.95 610.63 730.74 581.54 713.95 552.46"/><line class="cls-1" x1="730.69" y1="523.38" x2="797.85" y2="523.38"/><line class="cls-1" x1="747.53" y1="610.63" x2="781.11" y2="610.63"/><line class="cls-1" x1="747.48" y1="552.46" x2="781.11" y2="552.46"/><polygon class="cls-1" points="646.84 552.46 613.26 552.46 596.47 581.54 613.26 610.63 646.84 610.63 663.63 581.54 646.84 552.46"/><polygon class="cls-1" points="630 523.38 596.42 523.38 579.63 552.46 596.42 581.54 630 581.54 646.79 552.46 630 523.38"/><polygon class="cls-1" points="613.26 552.46 579.68 552.46 562.89 581.54 579.68 610.63 613.26 610.63 630.05 581.54 613.26 552.46"/><line class="cls-1" x1="630" y1="523.38" x2="697.16" y2="523.38"/><line class="cls-1" x1="646.84" y1="610.63" x2="680.42" y2="610.63"/><line class="cls-1" x1="646.79" y1="552.46" x2="680.42" y2="552.46"/><polygon class="cls-1" points="546.15 552.46 512.57 552.46 495.78 581.54 512.57 610.63 546.15 610.63 562.94 581.54 546.15 552.46"/><polygon class="cls-1" points="529.31 523.38 495.73 523.38 478.94 552.46 495.73 581.54 529.31 581.54 546.1 552.46 529.31 523.38"/><polygon class="cls-1" points="512.57 552.46 478.99 552.46 462.2 581.54 478.99 610.63 512.57 610.63 529.36 581.54 512.57 552.46"/><line class="cls-1" x1="529.31" y1="523.38" x2="596.47" y2="523.38"/><line class="cls-1" x1="546.15" y1="610.63" x2="579.73" y2="610.63"/><line class="cls-1" x1="546.1" y1="552.46" x2="579.73" y2="552.46"/><polygon class="cls-1" points="445.46 552.46 411.88 552.46 395.1 581.54 411.88 610.63 445.46 610.63 462.26 581.54 445.46 552.46"/><polygon class="cls-1" points="428.62 523.38 395.04 523.38 378.25 552.46 395.04 581.54 428.62 581.54 445.41 552.46 428.62 523.38"/><polygon class="cls-1" points="411.88 552.46 378.31 552.46 361.51 581.54 378.31 610.63 411.88 610.63 428.68 581.54 411.88 552.46"/><line class="cls-1" x1="428.62" y1="523.38" x2="495.78" y2="523.38"/><line class="cls-1" x1="445.47" y1="610.63" x2="479.05" y2="610.63"/><line class="cls-1" x1="445.41" y1="552.46" x2="479.05" y2="552.46"/><polygon class="cls-1" points="1150.28 639.71 1116.7 639.71 1099.91 668.79 1116.7 697.87 1150.28 697.87 1167.07 668.79 1150.28 639.71"/><polygon class="cls-1" points="1133.44 610.63 1099.86 610.63 1083.07 639.71 1099.86 668.79 1133.44 668.79 1150.23 639.71 1133.44 610.63"/><polygon class="cls-1" points="1116.7 639.71 1083.12 639.71 1066.33 668.79 1083.12 697.87 1116.7 697.87 1133.49 668.79 1116.7 639.71"/><polygon class="cls-1" points="1251.03 639.71 1217.44 639.71 1200.65 668.79 1217.44 697.87 1251.03 697.87 1267.82 668.79 1251.03 639.71"/><polygon class="cls-1" points="1234.18 610.63 1200.6 610.63 1183.81 639.71 1200.6 668.79 1234.18 668.79 1250.97 639.71 1234.18 610.63"/><polygon class="cls-1" points="1217.44 639.71 1183.86 639.71 1167.07 668.79 1183.86 697.87 1217.44 697.87 1234.23 668.79 1217.44 639.71"/><line class="cls-1" x1="1133.44" y1="610.63" x2="1200.6" y2="610.63"/><line class="cls-1" x1="1150.28" y1="697.87" x2="1183.86" y2="697.87"/><line class="cls-1" x1="1150.23" y1="639.71" x2="1183.86" y2="639.71"/><polygon class="cls-1" points="1049.6 639.71 1016.01 639.71 999.23 668.79 1016.01 697.87 1049.6 697.87 1066.39 668.79 1049.6 639.71"/><polygon class="cls-1" points="1032.75 610.63 999.17 610.63 982.38 639.71 999.17 668.79 1032.75 668.79 1049.54 639.71 1032.75 610.63"/><polygon class="cls-1" points="1016.01 639.71 982.43 639.71 965.64 668.79 982.43 697.87 1016.01 697.87 1032.81 668.79 1016.01 639.71"/><line class="cls-1" x1="1032.75" y1="610.63" x2="1099.91" y2="610.63"/><line class="cls-1" x1="1049.6" y1="697.87" x2="1083.18" y2="697.87"/><line class="cls-1" x1="1049.54" y1="639.71" x2="1083.18" y2="639.71"/><polygon class="cls-1" points="948.91 639.71 915.33 639.71 898.54 668.79 915.33 697.87 948.91 697.87 965.7 668.79 948.91 639.71"/><polygon class="cls-1" points="932.06 610.63 898.48 610.63 881.69 639.71 898.48 668.79 932.06 668.79 948.85 639.71 932.06 610.63"/><polygon class="cls-1" points="915.33 639.71 881.75 639.71 864.96 668.79 881.75 697.87 915.33 697.87 932.12 668.79 915.33 639.71"/><line class="cls-1" x1="932.06" y1="610.63" x2="999.23" y2="610.63"/><line class="cls-1" x1="948.91" y1="697.87" x2="982.49" y2="697.87"/><line class="cls-1" x1="948.85" y1="639.71" x2="982.49" y2="639.71"/><polygon class="cls-1" points="848.22 639.71 814.64 639.71 797.85 668.79 814.64 697.87 848.22 697.87 865.01 668.79 848.22 639.71"/><polygon class="cls-1" points="831.38 610.63 797.8 610.63 781 639.71 797.8 668.79 831.38 668.79 848.17 639.71 831.38 610.63"/><polygon class="cls-1" points="814.64 639.71 781.06 639.71 764.27 668.79 781.06 697.87 814.64 697.87 831.43 668.79 814.64 639.71"/><line class="cls-1" x1="831.38" y1="610.63" x2="898.54" y2="610.63"/><line class="cls-1" x1="848.22" y1="697.87" x2="881.8" y2="697.87"/><line class="cls-1" x1="848.17" y1="639.71" x2="881.8" y2="639.71"/><polygon class="cls-1" points="747.53 639.71 713.95 639.71 697.16 668.79 713.95 697.87 747.53 697.87 764.32 668.79 747.53 639.71"/><polygon class="cls-1" points="730.69 610.63 697.11 610.63 680.32 639.71 697.11 668.79 730.69 668.79 747.48 639.71 730.69 610.63"/><polygon class="cls-1" points="713.95 639.71 680.37 639.71 663.58 668.79 680.37 697.87 713.95 697.87 730.74 668.79 713.95 639.71"/><line class="cls-1" x1="730.69" y1="610.63" x2="797.85" y2="610.63"/><line class="cls-1" x1="747.53" y1="697.87" x2="781.11" y2="697.87"/><line class="cls-1" x1="747.48" y1="639.71" x2="781.11" y2="639.71"/><polygon class="cls-1" points="646.84 639.71 613.26 639.71 596.47 668.79 613.26 697.87 646.84 697.87 663.63 668.79 646.84 639.71"/><polygon class="cls-1" points="630 610.63 596.42 610.63 579.63 639.71 596.42 668.79 630 668.79 646.79 639.71 630 610.63"/><polygon class="cls-1" points="613.26 639.71 579.68 639.71 562.89 668.79 579.68 697.87 613.26 697.87 630.05 668.79 613.26 639.71"/><line class="cls-1" x1="630" y1="610.63" x2="697.16" y2="610.63"/><line class="cls-1" x1="646.84" y1="697.87" x2="680.42" y2="697.87"/><line class="cls-1" x1="646.79" y1="639.71" x2="680.42" y2="639.71"/><polygon class="cls-1" points="546.15 639.71 512.57 639.71 495.78 668.79 512.57 697.87 546.15 697.87 562.94 668.79 546.15 639.71"/><polygon class="cls-1" points="529.31 610.63 495.73 610.63 478.94 639.71 495.73 668.79 529.31 668.79 546.1 639.71 529.31 610.63"/><polygon class="cls-1" points="512.57 639.71 478.99 639.71 462.2 668.79 478.99 697.87 512.57 697.87 529.36 668.79 512.57 639.71"/><line class="cls-1" x1="529.31" y1="610.63" x2="596.47" y2="610.63"/><line class="cls-1" x1="546.15" y1="697.87" x2="579.73" y2="697.87"/><line class="cls-1" x1="546.1" y1="639.71" x2="579.73" y2="639.71"/><polygon class="cls-1" points="445.46 639.71 411.88 639.71 395.1 668.79 411.88 697.87 445.46 697.87 462.26 668.79 445.46 639.71"/><polygon class="cls-1" points="428.62 610.63 395.04 610.63 378.25 639.71 395.04 668.79 428.62 668.79 445.41 639.71 428.62 610.63"/><polygon class="cls-1" points="411.88 639.71 378.31 639.71 361.51 668.79 378.31 697.87 411.88 697.87 428.68 668.79 411.88 639.71"/><line class="cls-1" x1="428.62" y1="610.63" x2="495.78" y2="610.63"/><line class="cls-1" x1="445.47" y1="697.87" x2="479.05" y2="697.87"/><line class="cls-1" x1="445.41" y1="639.71" x2="479.05" y2="639.71"/><polygon class="cls-1" points="1150.28 726.95 1116.7 726.95 1099.91 756.03 1116.7 785.11 1150.28 785.11 1167.07 756.03 1150.28 726.95"/><polygon class="cls-1" points="1133.44 697.87 1099.86 697.87 1083.07 726.95 1099.86 756.03 1133.44 756.03 1150.23 726.95 1133.44 697.87"/><polygon class="cls-1" points="1116.7 726.95 1083.12 726.95 1066.33 756.03 1083.12 785.11 1116.7 785.11 1133.49 756.03 1116.7 726.95"/><polygon class="cls-1" points="1251.03 726.95 1217.44 726.95 1200.65 756.03 1217.44 785.11 1251.03 785.11 1267.82 756.03 1251.03 726.95"/><polygon class="cls-1" points="1234.18 697.87 1200.6 697.87 1183.81 726.95 1200.6 756.03 1234.18 756.03 1250.97 726.95 1234.18 697.87"/><polygon class="cls-1" points="1217.44 726.95 1183.86 726.95 1167.07 756.03 1183.86 785.11 1217.44 785.11 1234.23 756.03 1217.44 726.95"/><line class="cls-1" x1="1133.44" y1="697.87" x2="1200.6" y2="697.87"/><line class="cls-1" x1="1150.28" y1="785.11" x2="1183.86" y2="785.11"/><line class="cls-1" x1="1150.23" y1="726.95" x2="1183.86" y2="726.95"/><polygon class="cls-1" points="1049.6 726.95 1016.01 726.95 999.23 756.03 1016.01 785.11 1049.6 785.11 1066.39 756.03 1049.6 726.95"/><polygon class="cls-1" points="1032.75 697.87 999.17 697.87 982.38 726.95 999.17 756.03 1032.75 756.03 1049.54 726.95 1032.75 697.87"/><polygon class="cls-1" points="1016.01 726.95 982.43 726.95 965.64 756.03 982.43 785.11 1016.01 785.11 1032.81 756.03 1016.01 726.95"/><line class="cls-1" x1="1032.75" y1="697.87" x2="1099.91" y2="697.87"/><line class="cls-1" x1="1049.6" y1="785.11" x2="1083.18" y2="785.11"/><line class="cls-1" x1="1049.54" y1="726.95" x2="1083.18" y2="726.95"/><polygon class="cls-1" points="948.91 726.95 915.33 726.95 898.54 756.03 915.33 785.11 948.91 785.11 965.7 756.03 948.91 726.95"/><polygon class="cls-1" points="932.06 697.87 898.48 697.87 881.69 726.95 898.48 756.03 932.06 756.03 948.85 726.95 932.06 697.87"/><polygon class="cls-1" points="915.33 726.95 881.75 726.95 864.96 756.03 881.75 785.11 915.33 785.11 932.12 756.03 915.33 726.95"/><line class="cls-1" x1="932.06" y1="697.87" x2="999.23" y2="697.87"/><line class="cls-1" x1="948.91" y1="785.11" x2="982.49" y2="785.11"/><line class="cls-1" x1="948.85" y1="726.95" x2="982.49" y2="726.95"/><polygon class="cls-1" points="848.22 726.95 814.64 726.95 797.85 756.03 814.64 785.11 848.22 785.11 865.01 756.03 848.22 726.95"/><polygon class="cls-1" points="831.38 697.87 797.8 697.87 781 726.95 797.8 756.03 831.38 756.03 848.17 726.95 831.38 697.87"/><polygon class="cls-1" points="814.64 726.95 781.06 726.95 764.27 756.03 781.06 785.11 814.64 785.11 831.43 756.03 814.64 726.95"/><line class="cls-1" x1="831.38" y1="697.87" x2="898.54" y2="697.87"/><line class="cls-1" x1="848.22" y1="785.11" x2="881.8" y2="785.11"/><line class="cls-1" x1="848.17" y1="726.95" x2="881.8" y2="726.95"/><polygon class="cls-1" points="747.53 726.95 713.95 726.95 697.16 756.03 713.95 785.11 747.53 785.11 764.32 756.03 747.53 726.95"/><polygon class="cls-1" points="730.69 697.87 697.11 697.87 680.32 726.95 697.11 756.03 730.69 756.03 747.48 726.95 730.69 697.87"/><polygon class="cls-1" points="713.95 726.95 680.37 726.95 663.58 756.03 680.37 785.11 713.95 785.11 730.74 756.03 713.95 726.95"/><line class="cls-1" x1="730.69" y1="697.87" x2="797.85" y2="697.87"/><line class="cls-1" x1="747.53" y1="785.11" x2="781.11" y2="785.11"/><line class="cls-1" x1="747.48" y1="726.95" x2="781.11" y2="726.95"/><polygon class="cls-1" points="646.84 726.95 613.26 726.95 596.47 756.03 613.26 785.11 646.84 785.11 663.63 756.03 646.84 726.95"/><polygon class="cls-1" points="630 697.87 596.42 697.87 579.63 726.95 596.42 756.03 630 756.03 646.79 726.95 630 697.87"/><polygon class="cls-1" points="613.26 726.95 579.68 726.95 562.89 756.03 579.68 785.11 613.26 785.11 630.05 756.03 613.26 726.95"/><line class="cls-1" x1="630" y1="697.87" x2="697.16" y2="697.87"/><line class="cls-1" x1="646.84" y1="785.11" x2="680.42" y2="785.11"/><line class="cls-1" x1="646.79" y1="726.95" x2="680.42" y2="726.95"/><polygon class="cls-1" points="546.15 726.95 512.57 726.95 495.78 756.03 512.57 785.11 546.15 785.11 562.94 756.03 546.15 726.95"/><polygon class="cls-1" points="529.31 697.87 495.73 697.87 478.94 726.95 495.73 756.03 529.31 756.03 546.1 726.95 529.31 697.87"/><polygon class="cls-1" points="512.57 726.95 478.99 726.95 462.2 756.03 478.99 785.11 512.57 785.11 529.36 756.03 512.57 726.95"/><line class="cls-1" x1="529.31" y1="697.87" x2="596.47" y2="697.87"/><line class="cls-1" x1="546.15" y1="785.11" x2="579.73" y2="785.11"/><line class="cls-1" x1="546.1" y1="726.95" x2="579.73" y2="726.95"/><polygon class="cls-1" points="445.46 726.95 411.88 726.95 395.1 756.03 411.88 785.11 445.46 785.11 462.26 756.03 445.46 726.95"/><polygon class="cls-1" points="428.62 697.87 395.04 697.87 378.25 726.95 395.04 756.03 428.62 756.03 445.41 726.95 428.62 697.87"/><polygon class="cls-1" points="411.88 726.95 378.31 726.95 361.51 756.03 378.31 785.11 411.88 785.11 428.68 756.03 411.88 726.95"/><line class="cls-1" x1="428.62" y1="697.87" x2="495.78" y2="697.87"/><line class="cls-1" x1="445.47" y1="785.11" x2="479.05" y2="785.11"/><line class="cls-1" x1="445.41" y1="726.95" x2="479.05" y2="726.95"/><polygon class="cls-1" points="1150.28 814.2 1116.7 814.2 1099.91 843.28 1116.7 872.36 1150.28 872.36 1167.07 843.28 1150.28 814.2"/><polygon class="cls-1" points="1133.44 785.11 1099.86 785.11 1083.07 814.2 1099.86 843.28 1133.44 843.28 1150.23 814.2 1133.44 785.11"/><polygon class="cls-1" points="1116.7 814.2 1083.12 814.2 1066.33 843.28 1083.12 872.36 1116.7 872.36 1133.49 843.28 1116.7 814.2"/><polygon class="cls-1" points="1251.03 814.2 1217.44 814.2 1200.65 843.28 1217.44 872.36 1251.03 872.36 1267.82 843.28 1251.03 814.2"/><polygon class="cls-1" points="1234.18 785.11 1200.6 785.11 1183.81 814.2 1200.6 843.28 1234.18 843.28 1250.97 814.2 1234.18 785.11"/><polygon class="cls-1" points="1217.44 814.2 1183.86 814.2 1167.07 843.28 1183.86 872.36 1217.44 872.36 1234.23 843.28 1217.44 814.2"/><line class="cls-1" x1="1133.44" y1="785.11" x2="1200.6" y2="785.11"/><line class="cls-1" x1="1150.23" y1="814.2" x2="1183.86" y2="814.2"/><polygon class="cls-1" points="1049.6 814.2 1016.01 814.2 999.23 843.28 1016.01 872.36 1049.6 872.36 1066.39 843.28 1049.6 814.2"/><polygon class="cls-1" points="1032.75 785.11 999.17 785.11 982.38 814.2 999.17 843.28 1032.75 843.28 1049.54 814.2 1032.75 785.11"/><polygon class="cls-1" points="1016.01 814.2 982.43 814.2 965.64 843.28 982.43 872.36 1016.01 872.36 1032.81 843.28 1016.01 814.2"/><line class="cls-1" x1="1032.75" y1="785.11" x2="1099.91" y2="785.11"/><line class="cls-1" x1="1049.54" y1="814.2" x2="1083.18" y2="814.2"/><polygon class="cls-1" points="948.91 814.2 915.33 814.2 898.54 843.28 915.33 872.36 948.91 872.36 965.7 843.28 948.91 814.2"/><polygon class="cls-1" points="932.06 785.11 898.48 785.11 881.69 814.2 898.48 843.28 932.06 843.28 948.85 814.2 932.06 785.11"/><polygon class="cls-1" points="915.33 814.2 881.75 814.2 864.96 843.28 881.75 872.36 915.33 872.36 932.12 843.28 915.33 814.2"/><line class="cls-1" x1="932.06" y1="785.11" x2="999.23" y2="785.11"/><line class="cls-1" x1="948.85" y1="814.2" x2="982.49" y2="814.2"/><polygon class="cls-1" points="848.22 814.2 814.64 814.2 797.85 843.28 814.64 872.36 848.22 872.36 865.01 843.28 848.22 814.2"/><polygon class="cls-1" points="831.38 785.11 797.8 785.11 781 814.2 797.8 843.28 831.38 843.28 848.17 814.2 831.38 785.11"/><polygon class="cls-1" points="814.64 814.2 781.06 814.2 764.27 843.28 781.06 872.36 814.64 872.36 831.43 843.28 814.64 814.2"/><line class="cls-1" x1="831.38" y1="785.11" x2="898.54" y2="785.11"/><line class="cls-1" x1="848.17" y1="814.2" x2="881.8" y2="814.2"/><polygon class="cls-1" points="747.53 814.2 713.95 814.2 697.16 843.28 713.95 872.36 747.53 872.36 764.32 843.28 747.53 814.2"/><polygon class="cls-1" points="730.69 785.11 697.11 785.11 680.32 814.2 697.11 843.28 730.69 843.28 747.48 814.2 730.69 785.11"/><polygon class="cls-1" points="713.95 814.2 680.37 814.2 663.58 843.28 680.37 872.36 713.95 872.36 730.74 843.28 713.95 814.2"/><line class="cls-1" x1="730.69" y1="785.11" x2="797.85" y2="785.11"/><line class="cls-1" x1="747.48" y1="814.2" x2="781.11" y2="814.2"/><polygon class="cls-1" points="646.84 814.2 613.26 814.2 596.47 843.28 613.26 872.36 646.84 872.36 663.63 843.28 646.84 814.2"/><polygon class="cls-1" points="630 785.11 596.42 785.11 579.63 814.2 596.42 843.28 630 843.28 646.79 814.2 630 785.11"/><polygon class="cls-1" points="613.26 814.2 579.68 814.2 562.89 843.28 579.68 872.36 613.26 872.36 630.05 843.28 613.26 814.2"/><line class="cls-1" x1="630" y1="785.11" x2="697.16" y2="785.11"/><line class="cls-1" x1="646.79" y1="814.2" x2="680.42" y2="814.2"/><polygon class="cls-1" points="546.15 814.2 512.57 814.2 495.78 843.28 512.57 872.36 546.15 872.36 562.94 843.28 546.15 814.2"/><polygon class="cls-1" points="529.31 785.11 495.73 785.11 478.94 814.2 495.73 843.28 529.31 843.28 546.1 814.2 529.31 785.11"/><polygon class="cls-1" points="512.57 814.2 478.99 814.2 462.2 843.28 478.99 872.36 512.57 872.36 529.36 843.28 512.57 814.2"/><line class="cls-1" x1="529.31" y1="785.11" x2="596.47" y2="785.11"/><line class="cls-1" x1="546.1" y1="814.2" x2="579.73" y2="814.2"/><polygon class="cls-1" points="445.46 814.2 411.88 814.2 395.1 843.28 411.88 872.36 445.46 872.36 462.26 843.28 445.46 814.2"/><polygon class="cls-1" points="428.62 785.11 395.04 785.11 378.25 814.2 395.04 843.28 428.62 843.28 445.41 814.2 428.62 785.11"/><polygon class="cls-1" points="411.88 814.2 378.31 814.2 361.51 843.28 378.31 872.36 411.88 872.36 428.68 843.28 411.88 814.2"/><line class="cls-1" x1="428.62" y1="785.11" x2="495.78" y2="785.11"/><line class="cls-1" x1="445.41" y1="814.2" x2="479.05" y2="814.2"/><line class="cls-1" x1="1167.02" y1="872.36" x2="1167.02" y2="785.11"/></g></mask><radialGradient id="radial-gradient" cx="721.76" cy="379.32" r="318.69" gradientTransform="translate(66.61 -81.83) scale(1.6 1.6)" gradientUnits="userSpaceOnUse"><stop offset="0" stop-color="#4fede5"/><stop offset="0.04" stop-color="#49e0d9"/><stop offset="0.2" stop-color="#36b3ae"/><stop offset="0.37" stop-color="#268e8b"/><stop offset="0.53" stop-color="#19716f"/><stop offset="0.69" stop-color="#105d5c"/><stop offset="0.85" stop-color="#0b5050"/><stop offset="1" stop-color="#094c4c"/></radialGradient><linearGradient id="New_Gradient_Swatch_2" x1="323.32" y1="-30.61" x2="323.32" y2="1085.67" gradientTransform="matrix(1, 0, 0, -1, -172.1, 927.56)" gradientUnits="userSpaceOnUse"><stop offset="0" stop-color="#094c4c"/><stop offset="0.27" stop-color="#4fede5"/><stop offset="0.44" stop-color="#094c4c"/><stop offset="0.59" stop-color="#4fe3e5"/><stop offset="0.73" stop-color="#094c4c"/><stop offset="0.85" stop-color="#4fede5"/><stop offset="1" stop-color="#094c4c"/></linearGradient><linearGradient id="New_Gradient_Swatch_2-2" x1="303.22" y1="-30.61" x2="303.22" y2="1085.67" gradientTransform="matrix(1, 0, 0, -1, -172.12, 927.52)" xlink:href="#New_Gradient_Swatch_2"/><linearGradient id="New_Gradient_Swatch_2-3" x1="-141.63" y1="400" x2="470.27" y2="400" gradientTransform="matrix(1, 0, 0, -1, 427.02, 958.12)" xlink:href="#New_Gradient_Swatch_2"/></defs><title>bg-welcome</title><rect class="cls-3" x="427.02" y="158.12" width="1200" height="800"/><g class="cls-4"><g class="cls-5"><g class="cls-6"><rect class="cls-7" x="427.7" y="158.04" width="1200" height="800"/></g><rect class="cls-3" x="-243.19" y="5.63" width="788.79" height="788.79" transform="translate(188.45 382.21) rotate(-45)"/><rect class="cls-8" x="-243.19" y="5.63" width="788.79" height="788.79" transform="translate(188.45 382.21) rotate(-45)"/><rect class="cls-3" x="-263.3" y="5.59" width="788.79" height="788.79" transform="translate(182.58 367.97) rotate(-45)"/><rect class="cls-9" x="-263.3" y="5.59" width="788.79" height="788.79" transform="translate(182.58 367.97) rotate(-45)"/><polygon class="cls-10" points="811 541.52 811 576.02 896.79 576.02 896.79 631.02 811 631.02 811 798.12 665 798.12 474.6 475.62 474.6 798.12 371.69 798.12 371.69 631.02 285.89 631.02 285.89 576.02 371.69 576.02 371.69 541.52 285.89 541.52 285.89 486.52 371.69 486.52 371.69 318.12 501.69 318.12 708.1 667.62 708.1 318.12 811 318.12 811 486.52 896.79 486.52 896.79 541.52 811 541.52"/></g></g></svg>