<?xml version="1.0" encoding="utf-8"?>
<!-- Generator: Adobe Illustrator 24.0.1, SVG Export Plug-In . SVG Version: 6.00 Build 0)  -->
<svg version="1.1" id="Layer_1" xmlns="http://www.w3.org/2000/svg" xmlns:xlink="http://www.w3.org/1999/xlink" x="0px" y="0px"
	 width="750px" height="520px" viewBox="0 0 750 520" style="enable-background:new 0 0 750 520;" xml:space="preserve">
<style type="text/css">
	.st0{fill:#101919;}
	.st1{fill:none;stroke:#4FEDE5;stroke-width:2;}
</style>
<g id="bg" transform="translate(-225 -140)">
	<g id="Rectangle_4754" transform="translate(225 140)">
		<path class="st0" d="M4,0h742c2.2,0,4,1.8,4,4v512c0,2.2-1.8,4-4,4H4c-2.2,0-4-1.8-4-4V4C0,1.8,1.8,0,4,0z"/>
		<path class="st1" d="M3.5,0h743c1.9,0,3.5,1.6,3.5,3.5v513c0,1.9-1.6,3.5-3.5,3.5H3.5c-1.9,0-3.5-1.6-3.5-3.5V3.5
			C0,1.6,1.6,0,3.5,0z"/>
	</g>
</g>
</svg>
