<?xml version="1.0" encoding="utf-8"?>
<!-- Generator: Adobe Illustrator 24.0.1, SVG Export Plug-In . SVG Version: 6.00 Build 0)  -->
<svg version="1.1" id="Layer_1" xmlns="http://www.w3.org/2000/svg" xmlns:xlink="http://www.w3.org/1999/xlink" x="0px" y="0px"
	 width="60px" height="60px" viewBox="0 0 60 60" style="enable-background:new 0 0 60 60;" xml:space="preserve">
<style type="text/css">
	.st0{fill:url(#BG_2_);}
	.st1{fill:#FFFFFF;}
</style>
<linearGradient id="BG_2_" gradientUnits="userSpaceOnUse" x1="45.0024" y1="465.9852" x2="14.9976" y2="414.0148" gradientTransform="matrix(1 0 0 1 0 -410)">
	<stop  offset="0" style="stop-color:#108286"/>
	<stop  offset="1" style="stop-color:#3FA9AD"/>
</linearGradient>
<circle id="BG_1_" class="st0" cx="30" cy="30" r="30"/>
<polygon id="N_logo" class="st1" points="44.7,28.9 44.7,31.2 50.5,31.2 50.5,34.9 44.7,34.9 44.7,46.1 34.9,46.1 22.1,24.4 
	22.1,46.1 15.3,46.1 15.3,34.9 9.5,34.9 9.5,31.2 15.3,31.2 15.3,28.9 9.5,28.9 9.5,25.2 15.3,25.2 15.3,13.9 24,13.9 37.8,37.3 
	37.8,13.9 44.7,13.9 44.7,25.2 50.5,25.2 50.5,28.9 "/>
</svg>
