<?xml version="1.0" encoding="utf-8"?>
<!-- Generator: Adobe Illustrator 24.0.1, SVG Export Plug-In . SVG Version: 6.00 Build 0)  -->
<svg version="1.1" id="nbc_logo" xmlns="http://www.w3.org/2000/svg" xmlns:xlink="http://www.w3.org/1999/xlink" x="0px" y="0px"
	 width="300px" height="100px" viewBox="0 0 300 100" style="enable-background:new 0 0 300 100;" xml:space="preserve">
<style type="text/css">
	.st0{fill:url(#BG_2_);}
	.st1{fill:#FFFFFF;}
	.st2{fill:url(#N_1_);}
	.st3{fill:url(#E_1_);}
	.st4{fill:url(#X_1_);}
	.st5{fill:url(#B_1_);}
	.st6{fill:url(#I_1_);}
	.st7{fill:url(#T_1_);}
</style>
<linearGradient id="BG_2_" gradientUnits="userSpaceOnUse" x1="61.5481" y1="18.8481" x2="23.8454" y2="84.1519" gradientTransform="matrix(1 0 0 -1 0 102)">
	<stop  offset="0" style="stop-color:#108286"/>
	<stop  offset="1" style="stop-color:#3FA9AD"/>
</linearGradient>
<circle id="BG_1_" class="st0" cx="42.7" cy="50.5" r="37.7"/>
<polygon id="N_logo" class="st1" points="61.2,49.1 61.2,52 68.5,52 68.5,56.6 61.2,56.6 61.2,70.7 48.9,70.7 32.8,43.5 32.8,70.7 
	24.2,70.7 24.2,56.6 16.9,56.6 16.9,52 24.2,52 24.2,49.1 16.9,49.1 16.9,44.5 24.2,44.5 24.2,30.3 35.1,30.3 52.5,59.7 52.5,30.3 
	61.2,30.3 61.2,44.5 68.5,44.5 68.5,49.1 "/>
<linearGradient id="N_1_" gradientUnits="userSpaceOnUse" x1="199.5603" y1="29.5122" x2="174.1031" y2="73.6057" gradientTransform="matrix(1 0 0 -1 -78.6 102)">
	<stop  offset="0" style="stop-color:#108286"/>
	<stop  offset="1" style="stop-color:#3FA9AD"/>
</linearGradient>
<path id="N" class="st2" d="M91.8,70.3V30.6h10.5l8.3,14.6c2.4,4.2,4.7,9.2,6.5,13.6h0.1c-0.5-5.2-0.7-10.6-0.7-16.6V30.5h8.3v39.8
	h-9.5L106.7,55c-2.4-4.3-5-9.4-6.9-14h-0.2c0.3,5.3,0.4,10.9,0.4,17.4v12L91.8,70.3L91.8,70.3z"/>
<linearGradient id="E_1_" gradientUnits="userSpaceOnUse" x1="238.2187" y1="30.9739" x2="214.6612" y2="71.7762" gradientTransform="matrix(1 0 0 -1 -78.6 102)">
	<stop  offset="0" style="stop-color:#108286"/>
	<stop  offset="1" style="stop-color:#3FA9AD"/>
</linearGradient>
<path id="E" class="st3" d="M159.1,53.5h-14.6V63h16.3v7.4h-25.3V30.6H160v7.4h-15.5v8.3h14.6L159.1,53.5L159.1,53.5L159.1,53.5z"/>
<linearGradient id="X_1_" gradientUnits="userSpaceOnUse" x1="275.3883" y1="29.0809" x2="249.6893" y2="73.5936" gradientTransform="matrix(1 0 0 -1 -78.6 102)">
	<stop  offset="0" style="stop-color:#108286"/>
	<stop  offset="1" style="stop-color:#3FA9AD"/>
</linearGradient>
<path id="X" class="st4" d="M190.9,70.3l-3.6-7.2c-1.5-2.8-2.4-4.8-3.5-7.1h-0.1c-0.8,2.3-1.8,4.4-3.1,7.1l-3.2,7.2H167l11.5-20.1
	l-11.1-19.7h10.3l3.5,7.3c1.2,2.4,2.1,4.4,3,6.6h0.1c0.9-2.5,1.7-4.3,2.7-6.6l3.4-7.3h10.3L189.4,50l11.8,20.4L190.9,70.3
	L190.9,70.3z"/>
<linearGradient id="B_1_" gradientUnits="userSpaceOnUse" x1="310.2682" y1="33.126" x2="288.2723" y2="71.224" gradientTransform="matrix(1 0 0 -1 -78.6 102)">
	<stop  offset="0" style="stop-color:#108286"/>
	<stop  offset="1" style="stop-color:#3FA9AD"/>
</linearGradient>
<path id="B" class="st5" d="M209,31.1c2.4-0.5,7.1-0.9,11.6-0.9c5.5,0,8.9,0.5,11.7,2.2c2.8,1.5,4.7,4.2,4.7,7.9
	c0,3.5-2.1,6.7-6.5,8.4v0.1c4.6,1.2,7.9,4.7,7.9,9.8c0,3.7-1.7,6.5-4.1,8.4c-2.9,2.3-7.7,3.6-15.6,3.6c-4.4,0-7.7-0.3-9.7-0.6
	L209,31.1z M218,46.3h3c4.8,0,7.3-1.9,7.3-4.9c0-3-2.3-4.6-6.4-4.6c-2,0-3.1,0.1-3.8,0.3V46.3z M218,64c0.9,0.2,1.9,0.2,3.5,0.2
	c4.1,0,7.7-1.6,7.7-5.8c0-4-3.6-5.6-8.1-5.6H218L218,64L218,64z"/>
<linearGradient id="I_1_" gradientUnits="userSpaceOnUse" x1="340.5321" y1="34.7021" x2="321.0623" y2="68.4231" gradientTransform="matrix(1 0 0 -1 -78.6 102)">
	<stop  offset="0" style="stop-color:#108286"/>
	<stop  offset="1" style="stop-color:#3FA9AD"/>
</linearGradient>
<path id="I" class="st6" d="M256.7,30.5v39.8h-9V30.5H256.7z"/>
<linearGradient id="T_1_" gradientUnits="userSpaceOnUse" x1="372.0624" y1="37.0473" x2="349.9076" y2="75.4203" gradientTransform="matrix(1 0 0 -1 -78.6 102)">
	<stop  offset="0" style="stop-color:#108286"/>
	<stop  offset="1" style="stop-color:#3FA9AD"/>
</linearGradient>
<path id="T" class="st7" d="M275.2,38.1h-10.7v-7.6H295v7.6h-10.9v32.2h-9L275.2,38.1L275.2,38.1z"/>
</svg>
